solid OpenSCAD_Model
  facet normal 0 0 -1
    outer loop
      vertex 94 0 0
      vertex 0 0 0
      vertex 0 132.88 0
    endloop
  endfacet
  facet normal 0 0 -1
    outer loop
      vertex 94 0 0
      vertex 0 132.88 0
      vertex 94 132.88 0
    endloop
  endfacet
  facet normal 0 0 1
    outer loop
      vertex 0 132.88 2.52
      vertex 0 0 2.52
      vertex 94 0 2.52
    endloop
  endfacet
  facet normal 0 0 1
    outer loop
      vertex 94 132.88 2.52
      vertex 0 132.88 2.52
      vertex 94 0 2.52
    endloop
  endfacet
  facet normal 0 -1 0
    outer loop
      vertex 94 0 0
      vertex 0 0 2.52
      vertex 0 0 0
    endloop
  endfacet
  facet normal 0 -1 0
    outer loop
      vertex 94 0 0
      vertex 94 0 2.52
      vertex 0 0 2.52
    endloop
  endfacet
  facet normal 1 0 0
    outer loop
      vertex 94 132.88 0
      vertex 94 0 2.52
      vertex 94 0 0
    endloop
  endfacet
  facet normal 1 0 -0
    outer loop
      vertex 94 132.88 0
      vertex 94 132.88 2.52
      vertex 94 0 2.52
    endloop
  endfacet
  facet normal 0 1 0
    outer loop
      vertex 0 132.88 0
      vertex 94 132.88 2.52
      vertex 94 132.88 0
    endloop
  endfacet
  facet normal 0 1 0
    outer loop
      vertex 0 132.88 0
      vertex 0 132.88 2.52
      vertex 94 132.88 2.52
    endloop
  endfacet
  facet normal -1 0 0
    outer loop
      vertex 0 0 0
      vertex 0 132.88 2.52
      vertex 0 132.88 0
    endloop
  endfacet
  facet normal -1 0 0
    outer loop
      vertex 0 0 0
      vertex 0 0 2.52
      vertex 0 132.88 2.52
    endloop
  endfacet
endsolid OpenSCAD_Model
