solid OpenSCAD_Model
  facet normal 0 0 1
    outer loop
      vertex 40 9 2.2
      vertex 21.6 4.5 2.2
      vertex 40 0 2.2
    endloop
  endfacet
  facet normal 0 0 1
    outer loop
      vertex 40 9 2.2
      vertex 21.5693 4.81214 2.2
      vertex 21.6 4.5 2.2
    endloop
  endfacet
  facet normal 0 0 1
    outer loop
      vertex 40 9 2.2
      vertex 21.4782 5.11229 2.2
      vertex 21.5693 4.81214 2.2
    endloop
  endfacet
  facet normal 0 0 1
    outer loop
      vertex 40 9 2.2
      vertex 21.3304 5.38891 2.2
      vertex 21.4782 5.11229 2.2
    endloop
  endfacet
  facet normal 0 0 1
    outer loop
      vertex 40 9 2.2
      vertex 21.1314 5.63137 2.2
      vertex 21.3304 5.38891 2.2
    endloop
  endfacet
  facet normal 0 0 1
    outer loop
      vertex 40 9 2.2
      vertex 20.8889 5.83035 2.2
      vertex 21.1314 5.63137 2.2
    endloop
  endfacet
  facet normal 0 0 1
    outer loop
      vertex 40 9 2.2
      vertex 20.6123 5.97821 2.2
      vertex 20.8889 5.83035 2.2
    endloop
  endfacet
  facet normal 0 0 1
    outer loop
      vertex 40 9 2.2
      vertex 20.3121 6.06926 2.2
      vertex 20.6123 5.97821 2.2
    endloop
  endfacet
  facet normal 0 0 1
    outer loop
      vertex 40 9 2.2
      vertex 20 6.1 2.2
      vertex 20.3121 6.06926 2.2
    endloop
  endfacet
  facet normal -0 0 1
    outer loop
      vertex 0.55 9 2.2
      vertex 20 6.1 2.2
      vertex 40 9 2.2
    endloop
  endfacet
  facet normal 0 0 1
    outer loop
      vertex 18.4307 4.81214 2.2
      vertex 0.55 9 2.2
      vertex 18.4 4.5 2.2
    endloop
  endfacet
  facet normal 0 0 1
    outer loop
      vertex 18.5218 5.11229 2.2
      vertex 0.55 9 2.2
      vertex 18.4307 4.81214 2.2
    endloop
  endfacet
  facet normal 0 0 1
    outer loop
      vertex 18.6696 5.38891 2.2
      vertex 0.55 9 2.2
      vertex 18.5218 5.11229 2.2
    endloop
  endfacet
  facet normal 0 0 1
    outer loop
      vertex 18.8686 5.63137 2.2
      vertex 0.55 9 2.2
      vertex 18.6696 5.38891 2.2
    endloop
  endfacet
  facet normal 0 0 1
    outer loop
      vertex 19.1111 5.83035 2.2
      vertex 0.55 9 2.2
      vertex 18.8686 5.63137 2.2
    endloop
  endfacet
  facet normal 0 0 1
    outer loop
      vertex 19.3877 5.97821 2.2
      vertex 0.55 9 2.2
      vertex 19.1111 5.83035 2.2
    endloop
  endfacet
  facet normal 0 0 1
    outer loop
      vertex 19.6879 6.06926 2.2
      vertex 0.55 9 2.2
      vertex 19.3877 5.97821 2.2
    endloop
  endfacet
  facet normal 0 0 1
    outer loop
      vertex 20 6.1 2.2
      vertex 0.55 9 2.2
      vertex 19.6879 6.06926 2.2
    endloop
  endfacet
  facet normal -0 0 1
    outer loop
      vertex 21.5693 4.18785 2.2
      vertex 40 0 2.2
      vertex 21.6 4.5 2.2
    endloop
  endfacet
  facet normal -0 0 1
    outer loop
      vertex 21.4782 3.88771 2.2
      vertex 40 0 2.2
      vertex 21.5693 4.18785 2.2
    endloop
  endfacet
  facet normal -0 0 1
    outer loop
      vertex 21.3304 3.61109 2.2
      vertex 40 0 2.2
      vertex 21.4782 3.88771 2.2
    endloop
  endfacet
  facet normal -0 0 1
    outer loop
      vertex 21.1314 3.36863 2.2
      vertex 40 0 2.2
      vertex 21.3304 3.61109 2.2
    endloop
  endfacet
  facet normal -0 0 1
    outer loop
      vertex 20.8889 3.16965 2.2
      vertex 40 0 2.2
      vertex 21.1314 3.36863 2.2
    endloop
  endfacet
  facet normal -0 0 1
    outer loop
      vertex 20.6123 3.02179 2.2
      vertex 40 0 2.2
      vertex 20.8889 3.16965 2.2
    endloop
  endfacet
  facet normal -0 0 1
    outer loop
      vertex 20.3121 2.93074 2.2
      vertex 40 0 2.2
      vertex 20.6123 3.02179 2.2
    endloop
  endfacet
  facet normal -0 0 1
    outer loop
      vertex 20 2.9 2.2
      vertex 40 0 2.2
      vertex 20.3121 2.93074 2.2
    endloop
  endfacet
  facet normal 0 0 1
    outer loop
      vertex 0.55 0 2.2
      vertex 20 2.9 2.2
      vertex 19.6879 2.93074 2.2
    endloop
  endfacet
  facet normal 0 0 1
    outer loop
      vertex 0.55 0 2.2
      vertex 18.4 4.5 2.2
      vertex 0.55 9 2.2
    endloop
  endfacet
  facet normal 0 0 1
    outer loop
      vertex 18.4 4.5 2.2
      vertex 0.55 0 2.2
      vertex 18.4307 4.18785 2.2
    endloop
  endfacet
  facet normal 0 0 1
    outer loop
      vertex 18.4307 4.18785 2.2
      vertex 0.55 0 2.2
      vertex 18.5218 3.88771 2.2
    endloop
  endfacet
  facet normal 0 0 1
    outer loop
      vertex 18.5218 3.88771 2.2
      vertex 0.55 0 2.2
      vertex 18.6696 3.61109 2.2
    endloop
  endfacet
  facet normal 0 0 1
    outer loop
      vertex 18.6696 3.61109 2.2
      vertex 0.55 0 2.2
      vertex 18.8686 3.36863 2.2
    endloop
  endfacet
  facet normal 0 0 1
    outer loop
      vertex 18.8686 3.36863 2.2
      vertex 0.55 0 2.2
      vertex 19.1111 3.16965 2.2
    endloop
  endfacet
  facet normal 0 0 1
    outer loop
      vertex 20 2.9 2.2
      vertex 0.55 0 2.2
      vertex 40 0 2.2
    endloop
  endfacet
  facet normal 0 0 1
    outer loop
      vertex 19.3877 3.02179 2.2
      vertex 0.55 0 2.2
      vertex 19.6879 2.93074 2.2
    endloop
  endfacet
  facet normal 0 0 1
    outer loop
      vertex 19.1111 3.16965 2.2
      vertex 0.55 0 2.2
      vertex 19.3877 3.02179 2.2
    endloop
  endfacet
  facet normal 1 -0 0
    outer loop
      vertex 0.55 0 3
      vertex 0.55 9 2.2
      vertex 0.55 9 3
    endloop
  endfacet
  facet normal 1 0 0
    outer loop
      vertex 0.55 9 2.2
      vertex 0.55 0 3
      vertex 0.55 0 2.2
    endloop
  endfacet
  facet normal 0 1 0
    outer loop
      vertex 40 9 2.2
      vertex 40 9 0
      vertex 0.55 9 2.2
    endloop
  endfacet
  facet normal 0 1 -0
    outer loop
      vertex 0.55 9 2.2
      vertex 0 9 3
      vertex 0.55 9 3
    endloop
  endfacet
  facet normal 0 1 0
    outer loop
      vertex 0.55 9 2.2
      vertex 0 9 0
      vertex 0 9 3
    endloop
  endfacet
  facet normal 0 1 0
    outer loop
      vertex 0 9 0
      vertex 0.55 9 2.2
      vertex 40 9 0
    endloop
  endfacet
  facet normal 0 -1 0
    outer loop
      vertex 0 0 3
      vertex 0.55 0 2.2
      vertex 0.55 0 3
    endloop
  endfacet
  facet normal 0 -1 0
    outer loop
      vertex 0 0 0
      vertex 0.55 0 2.2
      vertex 0 0 3
    endloop
  endfacet
  facet normal 0 -1 0
    outer loop
      vertex 40 0 0
      vertex 0.55 0 2.2
      vertex 0 0 0
    endloop
  endfacet
  facet normal 0 -1 0
    outer loop
      vertex 0.55 0 2.2
      vertex 40 0 0
      vertex 40 0 2.2
    endloop
  endfacet
  facet normal 1 -0 0
    outer loop
      vertex 40 0 2.2
      vertex 40 9 0
      vertex 40 9 2.2
    endloop
  endfacet
  facet normal 1 0 0
    outer loop
      vertex 40 9 0
      vertex 40 0 2.2
      vertex 40 0 0
    endloop
  endfacet
  facet normal -0 0 1
    outer loop
      vertex 0 9 3
      vertex 0.55 0 3
      vertex 0.55 9 3
    endloop
  endfacet
  facet normal 0 0 1
    outer loop
      vertex 0.55 0 3
      vertex 0 9 3
      vertex 0 0 3
    endloop
  endfacet
  facet normal 0 0 -1
    outer loop
      vertex 40 0 0
      vertex 21.6 4.5 0
      vertex 40 9 0
    endloop
  endfacet
  facet normal 0 0 -1
    outer loop
      vertex 40 0 0
      vertex 21.5693 4.18785 0
      vertex 21.6 4.5 0
    endloop
  endfacet
  facet normal 0 0 -1
    outer loop
      vertex 40 0 0
      vertex 21.4782 3.88771 0
      vertex 21.5693 4.18785 0
    endloop
  endfacet
  facet normal 0 0 -1
    outer loop
      vertex 40 0 0
      vertex 21.3304 3.61109 0
      vertex 21.4782 3.88771 0
    endloop
  endfacet
  facet normal 0 0 -1
    outer loop
      vertex 40 0 0
      vertex 21.1314 3.36863 0
      vertex 21.3304 3.61109 0
    endloop
  endfacet
  facet normal 0 0 -1
    outer loop
      vertex 40 0 0
      vertex 20.8889 3.16965 0
      vertex 21.1314 3.36863 0
    endloop
  endfacet
  facet normal 0 0 -1
    outer loop
      vertex 40 0 0
      vertex 20.6123 3.02179 0
      vertex 20.8889 3.16965 0
    endloop
  endfacet
  facet normal 0 0 -1
    outer loop
      vertex 40 0 0
      vertex 20.3121 2.93074 0
      vertex 20.6123 3.02179 0
    endloop
  endfacet
  facet normal 0 0 -1
    outer loop
      vertex 40 0 0
      vertex 20 2.9 0
      vertex 20.3121 2.93074 0
    endloop
  endfacet
  facet normal 0 0 -1
    outer loop
      vertex 0 0 0
      vertex 20 2.9 0
      vertex 40 0 0
    endloop
  endfacet
  facet normal -0 0 -1
    outer loop
      vertex 18.4307 4.18785 0
      vertex 0 0 0
      vertex 18.4 4.5 0
    endloop
  endfacet
  facet normal -0 0 -1
    outer loop
      vertex 18.5218 3.88771 0
      vertex 0 0 0
      vertex 18.4307 4.18785 0
    endloop
  endfacet
  facet normal -0 0 -1
    outer loop
      vertex 18.6696 3.61109 0
      vertex 0 0 0
      vertex 18.5218 3.88771 0
    endloop
  endfacet
  facet normal -0 0 -1
    outer loop
      vertex 18.8686 3.36863 0
      vertex 0 0 0
      vertex 18.6696 3.61109 0
    endloop
  endfacet
  facet normal -0 0 -1
    outer loop
      vertex 19.1111 3.16965 0
      vertex 0 0 0
      vertex 18.8686 3.36863 0
    endloop
  endfacet
  facet normal -0 0 -1
    outer loop
      vertex 19.3877 3.02179 0
      vertex 0 0 0
      vertex 19.1111 3.16965 0
    endloop
  endfacet
  facet normal -0 0 -1
    outer loop
      vertex 19.6879 2.93074 0
      vertex 0 0 0
      vertex 19.3877 3.02179 0
    endloop
  endfacet
  facet normal -0 0 -1
    outer loop
      vertex 20 2.9 0
      vertex 0 0 0
      vertex 19.6879 2.93074 0
    endloop
  endfacet
  facet normal 0 0 -1
    outer loop
      vertex 21.5693 4.81214 0
      vertex 40 9 0
      vertex 21.6 4.5 0
    endloop
  endfacet
  facet normal 0 0 -1
    outer loop
      vertex 21.4782 5.11229 0
      vertex 40 9 0
      vertex 21.5693 4.81214 0
    endloop
  endfacet
  facet normal 0 0 -1
    outer loop
      vertex 21.3304 5.38891 0
      vertex 40 9 0
      vertex 21.4782 5.11229 0
    endloop
  endfacet
  facet normal 0 0 -1
    outer loop
      vertex 21.1314 5.63137 0
      vertex 40 9 0
      vertex 21.3304 5.38891 0
    endloop
  endfacet
  facet normal 0 0 -1
    outer loop
      vertex 20.8889 5.83035 0
      vertex 40 9 0
      vertex 21.1314 5.63137 0
    endloop
  endfacet
  facet normal 0 0 -1
    outer loop
      vertex 20.6123 5.97821 0
      vertex 40 9 0
      vertex 20.8889 5.83035 0
    endloop
  endfacet
  facet normal 0 0 -1
    outer loop
      vertex 20.3121 6.06926 0
      vertex 40 9 0
      vertex 20.6123 5.97821 0
    endloop
  endfacet
  facet normal 0 0 -1
    outer loop
      vertex 20 6.1 0
      vertex 40 9 0
      vertex 20.3121 6.06926 0
    endloop
  endfacet
  facet normal 0 0 -1
    outer loop
      vertex 0 9 0
      vertex 20 6.1 0
      vertex 19.6879 6.06926 0
    endloop
  endfacet
  facet normal 0 0 -1
    outer loop
      vertex 0 9 0
      vertex 18.4 4.5 0
      vertex 0 0 0
    endloop
  endfacet
  facet normal 0 0 -1
    outer loop
      vertex 18.4 4.5 0
      vertex 0 9 0
      vertex 18.4307 4.81214 0
    endloop
  endfacet
  facet normal 0 0 -1
    outer loop
      vertex 18.4307 4.81214 0
      vertex 0 9 0
      vertex 18.5218 5.11229 0
    endloop
  endfacet
  facet normal 0 0 -1
    outer loop
      vertex 18.5218 5.11229 0
      vertex 0 9 0
      vertex 18.6696 5.38891 0
    endloop
  endfacet
  facet normal 0 0 -1
    outer loop
      vertex 18.6696 5.38891 0
      vertex 0 9 0
      vertex 18.8686 5.63137 0
    endloop
  endfacet
  facet normal 0 0 -1
    outer loop
      vertex 18.8686 5.63137 0
      vertex 0 9 0
      vertex 19.1111 5.83035 0
    endloop
  endfacet
  facet normal 0 0 -1
    outer loop
      vertex 20 6.1 0
      vertex 0 9 0
      vertex 40 9 0
    endloop
  endfacet
  facet normal 0 0 -1
    outer loop
      vertex 19.3877 5.97821 0
      vertex 0 9 0
      vertex 19.6879 6.06926 0
    endloop
  endfacet
  facet normal 0 0 -1
    outer loop
      vertex 19.1111 5.83035 0
      vertex 0 9 0
      vertex 19.3877 5.97821 0
    endloop
  endfacet
  facet normal -1 0 0
    outer loop
      vertex 0 0 0
      vertex 0 9 3
      vertex 0 9 0
    endloop
  endfacet
  facet normal -1 -0 0
    outer loop
      vertex 0 9 3
      vertex 0 0 0
      vertex 0 0 3
    endloop
  endfacet
  facet normal -0.290242 0.956953 0
    outer loop
      vertex 20.6123 3.02179 0
      vertex 20.3121 2.93074 2.2
      vertex 20.6123 3.02179 2.2
    endloop
  endfacet
  facet normal -0.290242 0.956953 0
    outer loop
      vertex 20.3121 2.93074 2.2
      vertex 20.6123 3.02179 0
      vertex 20.3121 2.93074 0
    endloop
  endfacet
  facet normal -0.956896 -0.290432 -9.06474e-19
    outer loop
      vertex 21.5693 4.81214 0
      vertex 21.4782 5.11229 2.2
      vertex 21.4782 5.11229 0
    endloop
  endfacet
  facet normal -0.956896 -0.290432 -9.06474e-19
    outer loop
      vertex 21.4782 5.11229 2.2
      vertex 21.5693 4.81214 0
      vertex 21.5693 4.81214 2.2
    endloop
  endfacet
  facet normal -0.995198 -0.097881 -8.70224e-19
    outer loop
      vertex 21.6 4.5 0
      vertex 21.5693 4.81214 2.2
      vertex 21.5693 4.81214 0
    endloop
  endfacet
  facet normal -0.995198 -0.097881 -8.70224e-19
    outer loop
      vertex 21.5693 4.81214 2.2
      vertex 21.6 4.5 0
      vertex 21.6 4.5 2.2
    endloop
  endfacet
  facet normal -0.881996 -0.471257 -2.68704e-18
    outer loop
      vertex 21.4782 5.11229 0
      vertex 21.3304 5.38891 2.2
      vertex 21.3304 5.38891 0
    endloop
  endfacet
  facet normal -0.881996 -0.471257 -2.68704e-18
    outer loop
      vertex 21.3304 5.38891 2.2
      vertex 21.4782 5.11229 0
      vertex 21.4782 5.11229 2.2
    endloop
  endfacet
  facet normal 0.881996 0.471257 -2.68704e-18
    outer loop
      vertex 18.6696 3.61109 2.2
      vertex 18.5218 3.88771 0
      vertex 18.5218 3.88771 2.2
    endloop
  endfacet
  facet normal 0.881996 0.471257 -2.68704e-18
    outer loop
      vertex 18.5218 3.88771 0
      vertex 18.6696 3.61109 2.2
      vertex 18.6696 3.61109 0
    endloop
  endfacet
  facet normal -0.290242 -0.956953 0
    outer loop
      vertex 20.3121 6.06926 0
      vertex 20.6123 5.97821 2.2
      vertex 20.3121 6.06926 2.2
    endloop
  endfacet
  facet normal -0.290242 -0.956953 -0
    outer loop
      vertex 20.6123 5.97821 2.2
      vertex 20.3121 6.06926 0
      vertex 20.6123 5.97821 0
    endloop
  endfacet
  facet normal 0.0980198 -0.995184 0
    outer loop
      vertex 19.6879 6.06926 0
      vertex 20 6.1 2.2
      vertex 19.6879 6.06926 2.2
    endloop
  endfacet
  facet normal 0.0980198 -0.995184 0
    outer loop
      vertex 20 6.1 2.2
      vertex 19.6879 6.06926 0
      vertex 20 6.1 0
    endloop
  endfacet
  facet normal 0.471432 0.881902 -0
    outer loop
      vertex 19.3877 3.02179 0
      vertex 19.1111 3.16965 2.2
      vertex 19.3877 3.02179 2.2
    endloop
  endfacet
  facet normal 0.471432 0.881902 0
    outer loop
      vertex 19.1111 3.16965 2.2
      vertex 19.3877 3.02179 0
      vertex 19.1111 3.16965 0
    endloop
  endfacet
  facet normal 0.471432 -0.881902 0
    outer loop
      vertex 19.1111 5.83035 0
      vertex 19.3877 5.97821 2.2
      vertex 19.1111 5.83035 2.2
    endloop
  endfacet
  facet normal 0.471432 -0.881902 0
    outer loop
      vertex 19.3877 5.97821 2.2
      vertex 19.1111 5.83035 0
      vertex 19.3877 5.97821 0
    endloop
  endfacet
  facet normal -0.471432 0.881902 0
    outer loop
      vertex 20.8889 3.16965 0
      vertex 20.6123 3.02179 2.2
      vertex 20.8889 3.16965 2.2
    endloop
  endfacet
  facet normal -0.471432 0.881902 0
    outer loop
      vertex 20.6123 3.02179 2.2
      vertex 20.8889 3.16965 0
      vertex 20.6123 3.02179 0
    endloop
  endfacet
  facet normal 0.772982 -0.634428 3.45523e-18
    outer loop
      vertex 18.6696 5.38891 2.2
      vertex 18.8686 5.63137 0
      vertex 18.8686 5.63137 2.2
    endloop
  endfacet
  facet normal 0.772982 -0.634428 3.45523e-18
    outer loop
      vertex 18.8686 5.63137 0
      vertex 18.6696 5.38891 2.2
      vertex 18.6696 5.38891 0
    endloop
  endfacet
  facet normal -0.772982 -0.634428 -3.45523e-18
    outer loop
      vertex 21.3304 5.38891 0
      vertex 21.1314 5.63137 2.2
      vertex 21.1314 5.63137 0
    endloop
  endfacet
  facet normal -0.772982 -0.634428 -3.45523e-18
    outer loop
      vertex 21.1314 5.63137 2.2
      vertex 21.3304 5.38891 0
      vertex 21.3304 5.38891 2.2
    endloop
  endfacet
  facet normal -0.772982 0.634428 -3.9455e-18
    outer loop
      vertex 21.1314 3.36863 0
      vertex 21.3304 3.61109 2.2
      vertex 21.3304 3.61109 0
    endloop
  endfacet
  facet normal -0.772982 0.634428 -3.9455e-18
    outer loop
      vertex 21.3304 3.61109 2.2
      vertex 21.1314 3.36863 0
      vertex 21.1314 3.36863 2.2
    endloop
  endfacet
  facet normal 0.290242 -0.956953 0
    outer loop
      vertex 19.3877 5.97821 0
      vertex 19.6879 6.06926 2.2
      vertex 19.3877 5.97821 2.2
    endloop
  endfacet
  facet normal 0.290242 -0.956953 0
    outer loop
      vertex 19.6879 6.06926 2.2
      vertex 19.3877 5.97821 0
      vertex 19.6879 6.06926 0
    endloop
  endfacet
  facet normal -0.634327 0.773065 0
    outer loop
      vertex 21.1314 3.36863 0
      vertex 20.8889 3.16965 2.2
      vertex 21.1314 3.36863 2.2
    endloop
  endfacet
  facet normal -0.634327 0.773065 0
    outer loop
      vertex 20.8889 3.16965 2.2
      vertex 21.1314 3.36863 0
      vertex 20.8889 3.16965 0
    endloop
  endfacet
  facet normal -0.995198 0.0978779 -4.65132e-19
    outer loop
      vertex 21.5693 4.18785 0
      vertex 21.6 4.5 2.2
      vertex 21.6 4.5 0
    endloop
  endfacet
  facet normal -0.995198 0.0978779 -4.65132e-19
    outer loop
      vertex 21.6 4.5 2.2
      vertex 21.5693 4.18785 0
      vertex 21.5693 4.18785 2.2
    endloop
  endfacet
  facet normal 0.290242 0.956953 -0
    outer loop
      vertex 19.6879 2.93074 0
      vertex 19.3877 3.02179 2.2
      vertex 19.6879 2.93074 2.2
    endloop
  endfacet
  facet normal 0.290242 0.956953 0
    outer loop
      vertex 19.3877 3.02179 2.2
      vertex 19.6879 2.93074 0
      vertex 19.3877 3.02179 0
    endloop
  endfacet
  facet normal -0.956893 0.290441 -4.05758e-19
    outer loop
      vertex 21.4782 3.88771 0
      vertex 21.5693 4.18785 2.2
      vertex 21.5693 4.18785 0
    endloop
  endfacet
  facet normal -0.956893 0.290441 -4.05758e-19
    outer loop
      vertex 21.5693 4.18785 2.2
      vertex 21.4782 3.88771 0
      vertex 21.4782 3.88771 2.2
    endloop
  endfacet
  facet normal 0.956893 0.290441 4.05758e-19
    outer loop
      vertex 18.5218 3.88771 2.2
      vertex 18.4307 4.18785 0
      vertex 18.4307 4.18785 2.2
    endloop
  endfacet
  facet normal 0.956893 0.290441 4.05758e-19
    outer loop
      vertex 18.4307 4.18785 0
      vertex 18.5218 3.88771 2.2
      vertex 18.5218 3.88771 0
    endloop
  endfacet
  facet normal -0.881996 0.471257 2.68704e-18
    outer loop
      vertex 21.3304 3.61109 0
      vertex 21.4782 3.88771 2.2
      vertex 21.4782 3.88771 0
    endloop
  endfacet
  facet normal -0.881996 0.471257 2.68704e-18
    outer loop
      vertex 21.4782 3.88771 2.2
      vertex 21.3304 3.61109 0
      vertex 21.3304 3.61109 2.2
    endloop
  endfacet
  facet normal 0.995198 -0.097881 8.70224e-19
    outer loop
      vertex 18.4 4.5 2.2
      vertex 18.4307 4.81214 0
      vertex 18.4307 4.81214 2.2
    endloop
  endfacet
  facet normal 0.995198 -0.097881 8.70224e-19
    outer loop
      vertex 18.4307 4.81214 0
      vertex 18.4 4.5 2.2
      vertex 18.4 4.5 0
    endloop
  endfacet
  facet normal -0.0980198 -0.995184 0
    outer loop
      vertex 20 6.1 0
      vertex 20.3121 6.06926 2.2
      vertex 20 6.1 2.2
    endloop
  endfacet
  facet normal -0.0980198 -0.995184 -0
    outer loop
      vertex 20.3121 6.06926 2.2
      vertex 20 6.1 0
      vertex 20.3121 6.06926 0
    endloop
  endfacet
  facet normal 0.634327 -0.773065 0
    outer loop
      vertex 18.8686 5.63137 0
      vertex 19.1111 5.83035 2.2
      vertex 18.8686 5.63137 2.2
    endloop
  endfacet
  facet normal 0.634327 -0.773065 0
    outer loop
      vertex 19.1111 5.83035 2.2
      vertex 18.8686 5.63137 0
      vertex 19.1111 5.83035 0
    endloop
  endfacet
  facet normal -0.634327 -0.773065 0
    outer loop
      vertex 20.8889 5.83035 0
      vertex 21.1314 5.63137 2.2
      vertex 20.8889 5.83035 2.2
    endloop
  endfacet
  facet normal -0.634327 -0.773065 -0
    outer loop
      vertex 21.1314 5.63137 2.2
      vertex 20.8889 5.83035 0
      vertex 21.1314 5.63137 0
    endloop
  endfacet
  facet normal -0.0980198 0.995184 0
    outer loop
      vertex 20.3121 2.93074 0
      vertex 20 2.9 2.2
      vertex 20.3121 2.93074 2.2
    endloop
  endfacet
  facet normal -0.0980198 0.995184 0
    outer loop
      vertex 20 2.9 2.2
      vertex 20.3121 2.93074 0
      vertex 20 2.9 0
    endloop
  endfacet
  facet normal -0.471432 -0.881902 0
    outer loop
      vertex 20.6123 5.97821 0
      vertex 20.8889 5.83035 2.2
      vertex 20.6123 5.97821 2.2
    endloop
  endfacet
  facet normal -0.471432 -0.881902 -0
    outer loop
      vertex 20.8889 5.83035 2.2
      vertex 20.6123 5.97821 0
      vertex 20.8889 5.83035 0
    endloop
  endfacet
  facet normal 0.772982 0.634428 3.9455e-18
    outer loop
      vertex 18.8686 3.36863 2.2
      vertex 18.6696 3.61109 0
      vertex 18.6696 3.61109 2.2
    endloop
  endfacet
  facet normal 0.772982 0.634428 3.9455e-18
    outer loop
      vertex 18.6696 3.61109 0
      vertex 18.8686 3.36863 2.2
      vertex 18.8686 3.36863 0
    endloop
  endfacet
  facet normal 0.0980198 0.995184 -0
    outer loop
      vertex 20 2.9 0
      vertex 19.6879 2.93074 2.2
      vertex 20 2.9 2.2
    endloop
  endfacet
  facet normal 0.0980198 0.995184 0
    outer loop
      vertex 19.6879 2.93074 2.2
      vertex 20 2.9 0
      vertex 19.6879 2.93074 0
    endloop
  endfacet
  facet normal 0.634327 0.773065 -0
    outer loop
      vertex 19.1111 3.16965 0
      vertex 18.8686 3.36863 2.2
      vertex 19.1111 3.16965 2.2
    endloop
  endfacet
  facet normal 0.634327 0.773065 0
    outer loop
      vertex 18.8686 3.36863 2.2
      vertex 19.1111 3.16965 0
      vertex 18.8686 3.36863 0
    endloop
  endfacet
  facet normal 0.956896 -0.290432 9.06474e-19
    outer loop
      vertex 18.4307 4.81214 2.2
      vertex 18.5218 5.11229 0
      vertex 18.5218 5.11229 2.2
    endloop
  endfacet
  facet normal 0.956896 -0.290432 9.06474e-19
    outer loop
      vertex 18.5218 5.11229 0
      vertex 18.4307 4.81214 2.2
      vertex 18.4307 4.81214 0
    endloop
  endfacet
  facet normal 0.881996 -0.471257 2.68704e-18
    outer loop
      vertex 18.5218 5.11229 2.2
      vertex 18.6696 5.38891 0
      vertex 18.6696 5.38891 2.2
    endloop
  endfacet
  facet normal 0.881996 -0.471257 2.68704e-18
    outer loop
      vertex 18.6696 5.38891 0
      vertex 18.5218 5.11229 2.2
      vertex 18.5218 5.11229 0
    endloop
  endfacet
  facet normal 0.995198 0.0978779 4.65132e-19
    outer loop
      vertex 18.4307 4.18785 2.2
      vertex 18.4 4.5 0
      vertex 18.4 4.5 2.2
    endloop
  endfacet
  facet normal 0.995198 0.0978779 4.65132e-19
    outer loop
      vertex 18.4 4.5 0
      vertex 18.4307 4.18785 2.2
      vertex 18.4307 4.18785 0
    endloop
  endfacet
endsolid OpenSCAD_Model
