solid OpenSCAD_Model
  facet normal -0.509051 -0.860736 0
    outer loop
      vertex 16.6745 1.22683 0
      vertex 16.7502 1.18206 10
      vertex 16.6745 1.22683 10
    endloop
  endfacet
  facet normal -0.509051 -0.860736 -0
    outer loop
      vertex 16.7502 1.18206 10
      vertex 16.6745 1.22683 0
      vertex 16.7502 1.18206 0
    endloop
  endfacet
  facet normal 0.861091 -0.508451 1.03129e-19
    outer loop
      vertex 14.7732 0.674455 10
      vertex 14.8179 0.750157 0
      vertex 14.8179 0.750157 10
    endloop
  endfacet
  facet normal 0.861091 -0.508451 1.03129e-19
    outer loop
      vertex 14.8179 0.750157 0
      vertex 14.7732 0.674455 10
      vertex 14.7732 0.674455 0
    endloop
  endfacet
  facet normal -0.917875 -0.396871 1.91837e-19
    outer loop
      vertex 17.3017 0.515374 0
      vertex 17.2668 0.59609 10
      vertex 17.2668 0.59609 0
    endloop
  endfacet
  facet normal -0.917875 -0.396871 1.91837e-19
    outer loop
      vertex 17.2668 0.59609 10
      vertex 17.3017 0.515374 0
      vertex 17.3017 0.515374 10
    endloop
  endfacet
  facet normal 0.750462 -0.660914 -1.48731e-19
    outer loop
      vertex 14.9213 0.892393 10
      vertex 14.9794 0.958365 0
      vertex 14.9794 0.958365 10
    endloop
  endfacet
  facet normal 0.750462 -0.660914 -1.48731e-19
    outer loop
      vertex 14.9794 0.958365 0
      vertex 14.9213 0.892393 10
      vertex 14.9213 0.892393 0
    endloop
  endfacet
  facet normal 0.66114 -0.750262 0
    outer loop
      vertex 15.0416 1.02056 0
      vertex 15.1076 1.07872 10
      vertex 15.0416 1.02056 10
    endloop
  endfacet
  facet normal 0.66114 -0.750262 0
    outer loop
      vertex 15.1076 1.07872 10
      vertex 15.0416 1.02056 0
      vertex 15.1076 1.07872 0
    endloop
  endfacet
  facet normal -0.750462 -0.660914 1.48731e-19
    outer loop
      vertex 17.0787 0.892393 0
      vertex 17.0206 0.958365 10
      vertex 17.0206 0.958365 0
    endloop
  endfacet
  facet normal -0.750462 -0.660914 1.48731e-19
    outer loop
      vertex 17.0206 0.958365 10
      vertex 17.0787 0.892393 0
      vertex 17.0787 0.892393 10
    endloop
  endfacet
  facet normal -0.940852 -0.338816 -2.19012e-19
    outer loop
      vertex 17.3315 0.432623 0
      vertex 17.3017 0.515374 10
      vertex 17.3017 0.515374 0
    endloop
  endfacet
  facet normal -0.940852 -0.338816 -2.19012e-19
    outer loop
      vertex 17.3017 0.515374 10
      vertex 17.3315 0.432623 0
      vertex 17.3315 0.432623 10
    endloop
  endfacet
  facet normal -0.562341 -0.826905 0
    outer loop
      vertex 16.7502 1.18206 0
      vertex 16.8229 1.13262 10
      vertex 16.7502 1.18206 10
    endloop
  endfacet
  facet normal -0.562341 -0.826905 -0
    outer loop
      vertex 16.8229 1.13262 10
      vertex 16.7502 1.18206 0
      vertex 16.8229 1.13262 0
    endloop
  endfacet
  facet normal -0.790183 -0.612871 1.90971e-19
    outer loop
      vertex 17.1326 0.822899 0
      vertex 17.0787 0.892393 10
      vertex 17.0787 0.892393 0
    endloop
  endfacet
  facet normal -0.790183 -0.612871 1.90971e-19
    outer loop
      vertex 17.0787 0.892393 10
      vertex 17.1326 0.822899 0
      vertex 17.1326 0.822899 10
    endloop
  endfacet
  facet normal -0.15657 -0.987667 0
    outer loop
      vertex 16.1755 1.38896 0
      vertex 16.2623 1.3752 10
      vertex 16.1755 1.38896 10
    endloop
  endfacet
  facet normal -0.15657 -0.987667 -0
    outer loop
      vertex 16.2623 1.3752 10
      vertex 16.1755 1.38896 0
      vertex 16.2623 1.3752 0
    endloop
  endfacet
  facet normal -0.612838 -0.790209 0
    outer loop
      vertex 16.8229 1.13262 0
      vertex 16.8924 1.07872 10
      vertex 16.8229 1.13262 10
    endloop
  endfacet
  facet normal -0.612838 -0.790209 -0
    outer loop
      vertex 16.8924 1.07872 10
      vertex 16.8229 1.13262 0
      vertex 16.8924 1.07872 0
    endloop
  endfacet
  facet normal -0.995643 -0.093242 2.7081e-20
    outer loop
      vertex 17.3972 0.0879059 0
      vertex 17.389 0.175466 10
      vertex 17.389 0.175466 0
    endloop
  endfacet
  facet normal -0.995643 -0.093242 2.7081e-20
    outer loop
      vertex 17.389 0.175466 10
      vertex 17.3972 0.0879059 0
      vertex 17.3972 0.0879059 10
    endloop
  endfacet
  facet normal 0.790183 -0.612871 1.28285e-19
    outer loop
      vertex 14.8674 0.822899 10
      vertex 14.9213 0.892393 0
      vertex 14.9213 0.892393 10
    endloop
  endfacet
  facet normal 0.790183 -0.612871 1.28285e-19
    outer loop
      vertex 14.9213 0.892393 0
      vertex 14.8674 0.822899 10
      vertex 14.8674 0.822899 0
    endloop
  endfacet
  facet normal -0.987615 -0.156896 -8.93216e-20
    outer loop
      vertex 17.389 0.175466 0
      vertex 17.3752 0.262333 10
      vertex 17.3752 0.262333 0
    endloop
  endfacet
  facet normal -0.987615 -0.156896 -8.93216e-20
    outer loop
      vertex 17.3752 0.262333 10
      vertex 17.389 0.175466 0
      vertex 17.389 0.175466 10
    endloop
  endfacet
  facet normal -0.453839 -0.891084 0
    outer loop
      vertex 16.5961 1.26676 0
      vertex 16.6745 1.22683 10
      vertex 16.5961 1.26676 10
    endloop
  endfacet
  facet normal -0.453839 -0.891084 -0
    outer loop
      vertex 16.6745 1.22683 10
      vertex 16.5961 1.26676 0
      vertex 16.6745 1.22683 0
    endloop
  endfacet
  facet normal 0.279196 -0.960234 0
    outer loop
      vertex 15.5674 1.33148 0
      vertex 15.6518 1.35602 10
      vertex 15.5674 1.33148 10
    endloop
  endfacet
  facet normal 0.279196 -0.960234 0
    outer loop
      vertex 15.6518 1.35602 10
      vertex 15.5674 1.33148 0
      vertex 15.6518 1.35602 0
    endloop
  endfacet
  facet normal -0.66114 -0.750262 0
    outer loop
      vertex 16.8924 1.07872 0
      vertex 16.9584 1.02056 10
      vertex 16.8924 1.07872 10
    endloop
  endfacet
  facet normal -0.66114 -0.750262 -0
    outer loop
      vertex 16.9584 1.02056 10
      vertex 16.8924 1.07872 0
      vertex 16.9584 1.02056 0
    endloop
  endfacet
  facet normal -0.826739 -0.562585 -1.84361e-19
    outer loop
      vertex 17.1821 0.750157 0
      vertex 17.1326 0.822899 10
      vertex 17.1326 0.822899 0
    endloop
  endfacet
  facet normal -0.826739 -0.562585 -1.84361e-19
    outer loop
      vertex 17.1326 0.822899 10
      vertex 17.1821 0.750157 0
      vertex 17.1821 0.750157 10
    endloop
  endfacet
  facet normal -0.0941011 -0.995563 0
    outer loop
      vertex 16.0879 1.39724 0
      vertex 16.1755 1.38896 10
      vertex 16.0879 1.39724 10
    endloop
  endfacet
  facet normal -0.0941011 -0.995563 -0
    outer loop
      vertex 16.1755 1.38896 10
      vertex 16.0879 1.39724 0
      vertex 16.1755 1.38896 0
    endloop
  endfacet
  facet normal -0.397224 -0.917721 0
    outer loop
      vertex 16.5154 1.30169 0
      vertex 16.5961 1.26676 10
      vertex 16.5154 1.30169 10
    endloop
  endfacet
  facet normal -0.397224 -0.917721 -0
    outer loop
      vertex 16.5961 1.26676 10
      vertex 16.5154 1.30169 0
      vertex 16.5961 1.26676 0
    endloop
  endfacet
  facet normal -0.217917 -0.975967 0
    outer loop
      vertex 16.2623 1.3752 0
      vertex 16.3482 1.35602 10
      vertex 16.2623 1.3752 10
    endloop
  endfacet
  facet normal -0.217917 -0.975967 -0
    outer loop
      vertex 16.3482 1.35602 10
      vertex 16.2623 1.3752 0
      vertex 16.3482 1.35602 0
    endloop
  endfacet
  facet normal -0.861091 -0.508451 -1.4032e-19
    outer loop
      vertex 17.2268 0.674455 0
      vertex 17.1821 0.750157 10
      vertex 17.1821 0.750157 0
    endloop
  endfacet
  facet normal -0.861091 -0.508451 -1.4032e-19
    outer loop
      vertex 17.1821 0.750157 10
      vertex 17.2268 0.674455 0
      vertex 17.2268 0.674455 10
    endloop
  endfacet
  facet normal 0.15657 -0.987667 0
    outer loop
      vertex 15.7377 1.3752 0
      vertex 15.8245 1.38896 10
      vertex 15.7377 1.3752 10
    endloop
  endfacet
  facet normal 0.15657 -0.987667 0
    outer loop
      vertex 15.8245 1.38896 10
      vertex 15.7377 1.3752 0
      vertex 15.8245 1.38896 0
    endloop
  endfacet
  facet normal 0.960406 -0.278603 -1.45367e-19
    outer loop
      vertex 14.644 0.348166 10
      vertex 14.6685 0.432623 0
      vertex 14.6685 0.432623 10
    endloop
  endfacet
  facet normal 0.960406 -0.278603 -1.45367e-19
    outer loop
      vertex 14.6685 0.432623 0
      vertex 14.644 0.348166 10
      vertex 14.644 0.348166 0
    endloop
  endfacet
  facet normal 0.338538 -0.940953 0
    outer loop
      vertex 15.4846 1.30169 0
      vertex 15.5674 1.33148 10
      vertex 15.4846 1.30169 10
    endloop
  endfacet
  facet normal 0.338538 -0.940953 0
    outer loop
      vertex 15.5674 1.33148 10
      vertex 15.4846 1.30169 0
      vertex 15.5674 1.33148 0
    endloop
  endfacet
  facet normal 0.0941011 -0.995563 0
    outer loop
      vertex 15.8245 1.38896 0
      vertex 15.9121 1.39724 10
      vertex 15.8245 1.38896 10
    endloop
  endfacet
  facet normal 0.0941011 -0.995563 0
    outer loop
      vertex 15.9121 1.39724 10
      vertex 15.8245 1.38896 0
      vertex 15.9121 1.39724 0
    endloop
  endfacet
  facet normal 0.707078 -0.707135 -1.78538e-19
    outer loop
      vertex 14.9794 0.958365 10
      vertex 15.0416 1.02056 0
      vertex 15.0416 1.02056 10
    endloop
  endfacet
  facet normal 0.707078 -0.707135 -1.78538e-19
    outer loop
      vertex 15.0416 1.02056 0
      vertex 14.9794 0.958365 10
      vertex 14.9794 0.958365 0
    endloop
  endfacet
  facet normal -0.975883 -0.218295 8.48439e-20
    outer loop
      vertex 17.3752 0.262333 0
      vertex 17.356 0.348166 10
      vertex 17.356 0.348166 0
    endloop
  endfacet
  facet normal -0.975883 -0.218295 8.48439e-20
    outer loop
      vertex 17.356 0.348166 10
      vertex 17.3752 0.262333 0
      vertex 17.3752 0.262333 10
    endloop
  endfacet
  facet normal 0.217917 -0.975967 0
    outer loop
      vertex 15.6518 1.35602 0
      vertex 15.7377 1.3752 10
      vertex 15.6518 1.35602 10
    endloop
  endfacet
  facet normal 0.217917 -0.975967 0
    outer loop
      vertex 15.7377 1.3752 10
      vertex 15.6518 1.35602 0
      vertex 15.7377 1.3752 0
    endloop
  endfacet
  facet normal 0.562341 -0.826905 0
    outer loop
      vertex 15.1771 1.13262 0
      vertex 15.2498 1.18206 10
      vertex 15.1771 1.13262 10
    endloop
  endfacet
  facet normal 0.562341 -0.826905 0
    outer loop
      vertex 15.2498 1.18206 10
      vertex 15.1771 1.13262 0
      vertex 15.2498 1.18206 0
    endloop
  endfacet
  facet normal -0.960406 -0.278603 2.08618e-19
    outer loop
      vertex 17.356 0.348166 0
      vertex 17.3315 0.432623 10
      vertex 17.3315 0.432623 0
    endloop
  endfacet
  facet normal -0.960406 -0.278603 2.08618e-19
    outer loop
      vertex 17.3315 0.432623 10
      vertex 17.356 0.348166 0
      vertex 17.356 0.348166 10
    endloop
  endfacet
  facet normal -0.707078 -0.707135 1.78538e-19
    outer loop
      vertex 17.0206 0.958365 0
      vertex 16.9584 1.02056 10
      vertex 16.9584 1.02056 0
    endloop
  endfacet
  facet normal -0.707078 -0.707135 1.78538e-19
    outer loop
      vertex 16.9584 1.02056 10
      vertex 17.0206 0.958365 0
      vertex 17.0206 0.958365 10
    endloop
  endfacet
  facet normal -0.999493 -0.0318361 -2.89393e-20
    outer loop
      vertex 17.4 0 0
      vertex 17.3972 0.0879059 10
      vertex 17.3972 0.0879059 0
    endloop
  endfacet
  facet normal -0.999493 -0.0318361 -2.89393e-20
    outer loop
      vertex 17.3972 0.0879059 10
      vertex 17.4 0 0
      vertex 17.4 0 10
    endloop
  endfacet
  facet normal -0.338538 -0.940953 0
    outer loop
      vertex 16.4326 1.33148 0
      vertex 16.5154 1.30169 10
      vertex 16.4326 1.33148 10
    endloop
  endfacet
  facet normal -0.338538 -0.940953 -0
    outer loop
      vertex 16.5154 1.30169 10
      vertex 16.4326 1.33148 0
      vertex 16.5154 1.30169 0
    endloop
  endfacet
  facet normal -0.279196 -0.960234 0
    outer loop
      vertex 16.3482 1.35602 0
      vertex 16.4326 1.33148 10
      vertex 16.3482 1.35602 10
    endloop
  endfacet
  facet normal -0.279196 -0.960234 -0
    outer loop
      vertex 16.4326 1.33148 10
      vertex 16.3482 1.35602 0
      vertex 16.4326 1.33148 0
    endloop
  endfacet
  facet normal 0.612838 -0.790209 0
    outer loop
      vertex 15.1076 1.07872 0
      vertex 15.1771 1.13262 10
      vertex 15.1076 1.07872 10
    endloop
  endfacet
  facet normal 0.612838 -0.790209 0
    outer loop
      vertex 15.1771 1.13262 10
      vertex 15.1076 1.07872 0
      vertex 15.1771 1.13262 0
    endloop
  endfacet
  facet normal 0.509051 -0.860736 0
    outer loop
      vertex 15.2498 1.18206 0
      vertex 15.3255 1.22683 10
      vertex 15.2498 1.18206 10
    endloop
  endfacet
  facet normal 0.509051 -0.860736 0
    outer loop
      vertex 15.3255 1.22683 10
      vertex 15.2498 1.18206 0
      vertex 15.3255 1.22683 0
    endloop
  endfacet
  facet normal 0.0313839 -0.999507 0
    outer loop
      vertex 15.9121 1.39724 0
      vertex 16 1.4 10
      vertex 15.9121 1.39724 10
    endloop
  endfacet
  facet normal 0.0313839 -0.999507 0
    outer loop
      vertex 16 1.4 10
      vertex 15.9121 1.39724 0
      vertex 16 1.4 0
    endloop
  endfacet
  facet normal 0.940852 -0.338816 1.93419e-19
    outer loop
      vertex 14.6685 0.432623 10
      vertex 14.6983 0.515374 0
      vertex 14.6983 0.515374 10
    endloop
  endfacet
  facet normal 0.940852 -0.338816 1.93419e-19
    outer loop
      vertex 14.6983 0.515374 0
      vertex 14.6685 0.432623 10
      vertex 14.6685 0.432623 0
    endloop
  endfacet
  facet normal 0.975883 -0.218295 -4.93582e-20
    outer loop
      vertex 14.6248 0.262333 10
      vertex 14.644 0.348166 0
      vertex 14.644 0.348166 10
    endloop
  endfacet
  facet normal 0.975883 -0.218295 -4.93582e-20
    outer loop
      vertex 14.644 0.348166 0
      vertex 14.6248 0.262333 10
      vertex 14.6248 0.262333 0
    endloop
  endfacet
  facet normal 0.453839 -0.891084 0
    outer loop
      vertex 15.3255 1.22683 0
      vertex 15.4039 1.26676 10
      vertex 15.3255 1.22683 10
    endloop
  endfacet
  facet normal 0.453839 -0.891084 0
    outer loop
      vertex 15.4039 1.26676 10
      vertex 15.3255 1.22683 0
      vertex 15.4039 1.26676 0
    endloop
  endfacet
  facet normal 0.397224 -0.917721 0
    outer loop
      vertex 15.4039 1.26676 0
      vertex 15.4846 1.30169 10
      vertex 15.4039 1.26676 10
    endloop
  endfacet
  facet normal 0.397224 -0.917721 0
    outer loop
      vertex 15.4846 1.30169 10
      vertex 15.4039 1.26676 0
      vertex 15.4846 1.30169 0
    endloop
  endfacet
  facet normal -0.89068 -0.454631 1.73436e-19
    outer loop
      vertex 17.2668 0.59609 0
      vertex 17.2268 0.674455 10
      vertex 17.2268 0.674455 0
    endloop
  endfacet
  facet normal -0.89068 -0.454631 1.73436e-19
    outer loop
      vertex 17.2268 0.674455 10
      vertex 17.2668 0.59609 0
      vertex 17.2668 0.59609 10
    endloop
  endfacet
  facet normal 0.987615 -0.156896 8.93216e-20
    outer loop
      vertex 14.611 0.175466 10
      vertex 14.6248 0.262333 0
      vertex 14.6248 0.262333 10
    endloop
  endfacet
  facet normal 0.987615 -0.156896 8.93216e-20
    outer loop
      vertex 14.6248 0.262333 0
      vertex 14.611 0.175466 10
      vertex 14.611 0.175466 0
    endloop
  endfacet
  facet normal 0.999493 -0.0318361 2.90048e-20
    outer loop
      vertex 14.6 0 10
      vertex 14.6028 0.0879059 0
      vertex 14.6028 0.0879059 10
    endloop
  endfacet
  facet normal 0.999493 -0.0318361 2.90048e-20
    outer loop
      vertex 14.6028 0.0879059 0
      vertex 14.6 0 10
      vertex 14.6 0 0
    endloop
  endfacet
  facet normal 0.995643 -0.093242 2.41216e-20
    outer loop
      vertex 14.6028 0.0879059 10
      vertex 14.611 0.175466 0
      vertex 14.611 0.175466 10
    endloop
  endfacet
  facet normal 0.995643 -0.093242 2.41216e-20
    outer loop
      vertex 14.611 0.175466 0
      vertex 14.6028 0.0879059 10
      vertex 14.6028 0.0879059 0
    endloop
  endfacet
  facet normal -0.0313839 -0.999507 0
    outer loop
      vertex 16 1.4 0
      vertex 16.0879 1.39724 10
      vertex 16 1.4 10
    endloop
  endfacet
  facet normal -0.0313839 -0.999507 -0
    outer loop
      vertex 16.0879 1.39724 10
      vertex 16 1.4 0
      vertex 16.0879 1.39724 0
    endloop
  endfacet
  facet normal 0.917875 -0.396871 -1.91837e-19
    outer loop
      vertex 14.6983 0.515374 10
      vertex 14.7332 0.59609 0
      vertex 14.7332 0.59609 10
    endloop
  endfacet
  facet normal 0.917875 -0.396871 -1.91837e-19
    outer loop
      vertex 14.7332 0.59609 0
      vertex 14.6983 0.515374 10
      vertex 14.6983 0.515374 0
    endloop
  endfacet
  facet normal 0.826739 -0.562585 1.60323e-19
    outer loop
      vertex 14.8179 0.750157 10
      vertex 14.8674 0.822899 0
      vertex 14.8674 0.822899 10
    endloop
  endfacet
  facet normal 0.826739 -0.562585 1.60323e-19
    outer loop
      vertex 14.8674 0.822899 0
      vertex 14.8179 0.750157 10
      vertex 14.8179 0.750157 0
    endloop
  endfacet
  facet normal 0.89068 -0.454631 -1.73436e-19
    outer loop
      vertex 14.7332 0.59609 10
      vertex 14.7732 0.674455 0
      vertex 14.7732 0.674455 10
    endloop
  endfacet
  facet normal 0.89068 -0.454631 -1.73436e-19
    outer loop
      vertex 14.7732 0.674455 0
      vertex 14.7332 0.59609 10
      vertex 14.7332 0.59609 0
    endloop
  endfacet
  facet normal 0 -0.0941225 -0.995561
    outer loop
      vertex 6 19.1711 7.71962
      vertex 9 19.3415 7.70351
      vertex 9 19.1711 7.71962
    endloop
  endfacet
  facet normal -0 -0.0941225 -0.995561
    outer loop
      vertex 9 19.3415 7.70351
      vertex 6 19.1711 7.71962
      vertex 6 19.3415 7.70351
    endloop
  endfacet
  facet normal 0 -0.0314281 -0.999506
    outer loop
      vertex 6 19 7.725
      vertex 9 19.1711 7.71962
      vertex 9 19 7.725
    endloop
  endfacet
  facet normal -0 -0.0314281 -0.999506
    outer loop
      vertex 9 19.1711 7.71962
      vertex 6 19 7.725
      vertex 6 19.1711 7.71962
    endloop
  endfacet
  facet normal 0 0.661345 -0.750082
    outer loop
      vertex 6 17.1346 6.98644
      vertex 9 17.263 7.09965
      vertex 9 17.1346 6.98644
    endloop
  endfacet
  facet normal 0 0.661345 -0.750082
    outer loop
      vertex 9 17.263 7.09965
      vertex 6 17.1346 6.98644
      vertex 6 17.263 7.09965
    endloop
  endfacet
  facet normal -3.92617e-19 0.750136 0.661283
    outer loop
      vertex 9 17.0136 3.13461
      vertex 6 16.9004 3.26302
      vertex 9 16.9004 3.26302
    endloop
  endfacet
  facet normal -3.92617e-19 0.750136 0.661283
    outer loop
      vertex 6 16.9004 3.26302
      vertex 9 17.0136 3.13461
      vertex 6 17.0136 3.13461
    endloop
  endfacet
  facet normal 4.62878e-19 0.750136 -0.661283
    outer loop
      vertex 9 16.9004 6.73698
      vertex 6 17.0136 6.86539
      vertex 9 17.0136 6.86539
    endloop
  endfacet
  facet normal 4.62878e-19 0.750136 -0.661283
    outer loop
      vertex 6 17.0136 6.86539
      vertex 9 16.9004 6.73698
      vertex 6 16.9004 6.73698
    endloop
  endfacet
  facet normal 0 0.156418 -0.987691
    outer loop
      vertex 6 18.4894 7.67673
      vertex 9 18.6585 7.70351
      vertex 9 18.4894 7.67673
    endloop
  endfacet
  facet normal 0 0.156418 -0.987691
    outer loop
      vertex 9 18.6585 7.70351
      vertex 6 18.4894 7.67673
      vertex 6 18.6585 7.70351
    endloop
  endfacet
  facet normal -5.40729e-19 0.827129 -0.562013
    outer loop
      vertex 9 16.6992 6.46013
      vertex 6 16.7954 6.60171
      vertex 9 16.7954 6.60171
    endloop
  endfacet
  facet normal -5.40729e-19 0.827129 -0.562013
    outer loop
      vertex 6 16.7954 6.60171
      vertex 9 16.6992 6.46013
      vertex 6 16.6992 6.46013
    endloop
  endfacet
  facet normal -0 0.453788 0.891109
    outer loop
      vertex 6 17.8398 2.53435
      vertex 9 17.6872 2.61206
      vertex 9 17.8398 2.53435
    endloop
  endfacet
  facet normal 0 0.453788 0.891109
    outer loop
      vertex 9 17.6872 2.61206
      vertex 6 17.8398 2.53435
      vertex 6 17.6872 2.61206
    endloop
  endfacet
  facet normal -1.38412e-18 0.707253 0.706961
    outer loop
      vertex 9 17.1346 3.01356
      vertex 6 17.0136 3.13461
      vertex 9 17.0136 3.13461
    endloop
  endfacet
  facet normal -1.38412e-18 0.707253 0.706961
    outer loop
      vertex 6 17.0136 3.13461
      vertex 9 17.1346 3.01356
      vertex 6 17.1346 3.01356
    endloop
  endfacet
  facet normal -0 0.0314281 0.999506
    outer loop
      vertex 6 19 2.275
      vertex 9 18.8289 2.28038
      vertex 9 19 2.275
    endloop
  endfacet
  facet normal 0 0.0314281 0.999506
    outer loop
      vertex 9 18.8289 2.28038
      vertex 6 19 2.275
      vertex 6 18.8289 2.28038
    endloop
  endfacet
  facet normal -7.83757e-20 0.999502 -0.0315448
    outer loop
      vertex 9 16.275 5
      vertex 6 16.2804 5.1711
      vertex 9 16.2804 5.1711
    endloop
  endfacet
  facet normal -7.83757e-20 0.999502 -0.0315448
    outer loop
      vertex 6 16.2804 5.1711
      vertex 9 16.275 5
      vertex 6 16.275 5
    endloop
  endfacet
  facet normal 1 0 0
    outer loop
      vertex 6 19.8421 7.59163
      vertex 6 20 2.46523
      vertex 6 20 7.53477
    endloop
  endfacet
  facet normal 1 0 0
    outer loop
      vertex 6 19.8421 7.59163
      vertex 6 19.8421 2.40837
      vertex 6 20 2.46523
    endloop
  endfacet
  facet normal 1 0 0
    outer loop
      vertex 6 19.6777 7.63939
      vertex 6 19.8421 2.40837
      vertex 6 19.8421 7.59163
    endloop
  endfacet
  facet normal 1 0 0
    outer loop
      vertex 6 19.6777 7.63939
      vertex 6 19.6777 2.36061
      vertex 6 19.8421 2.40837
    endloop
  endfacet
  facet normal 1 0 0
    outer loop
      vertex 6 19.5106 7.67673
      vertex 6 19.6777 2.36061
      vertex 6 19.6777 7.63939
    endloop
  endfacet
  facet normal 1 0 0
    outer loop
      vertex 6 19.5106 7.67673
      vertex 6 19.5106 2.32327
      vertex 6 19.6777 2.36061
    endloop
  endfacet
  facet normal 1 0 0
    outer loop
      vertex 6 19.3415 7.70351
      vertex 6 19.5106 2.32327
      vertex 6 19.5106 7.67673
    endloop
  endfacet
  facet normal 1 0 0
    outer loop
      vertex 6 19.3415 7.70351
      vertex 6 19.3415 2.29649
      vertex 6 19.5106 2.32327
    endloop
  endfacet
  facet normal 1 0 0
    outer loop
      vertex 6 19.1711 7.71962
      vertex 6 19.3415 2.29649
      vertex 6 19.3415 7.70351
    endloop
  endfacet
  facet normal 1 0 0
    outer loop
      vertex 6 19.1711 7.71962
      vertex 6 19.1711 2.28038
      vertex 6 19.3415 2.29649
    endloop
  endfacet
  facet normal 1 0 0
    outer loop
      vertex 6 19 7.725
      vertex 6 19.1711 2.28038
      vertex 6 19.1711 7.71962
    endloop
  endfacet
  facet normal 1 0 0
    outer loop
      vertex 6 19 7.725
      vertex 6 19 2.275
      vertex 6 19.1711 2.28038
    endloop
  endfacet
  facet normal 1 -0 0
    outer loop
      vertex 6 18.8289 7.71962
      vertex 6 19 2.275
      vertex 6 19 7.725
    endloop
  endfacet
  facet normal 1 0 0
    outer loop
      vertex 6 18.8289 7.71962
      vertex 6 18.8289 2.28038
      vertex 6 19 2.275
    endloop
  endfacet
  facet normal 1 -0 0
    outer loop
      vertex 6 18.6585 7.70351
      vertex 6 18.8289 2.28038
      vertex 6 18.8289 7.71962
    endloop
  endfacet
  facet normal 1 0 0
    outer loop
      vertex 6 18.6585 7.70351
      vertex 6 18.6585 2.29649
      vertex 6 18.8289 2.28038
    endloop
  endfacet
  facet normal 1 -0 0
    outer loop
      vertex 6 18.4894 7.67673
      vertex 6 18.6585 2.29649
      vertex 6 18.6585 7.70351
    endloop
  endfacet
  facet normal 1 0 0
    outer loop
      vertex 6 18.4894 7.67673
      vertex 6 18.4894 2.32327
      vertex 6 18.6585 2.29649
    endloop
  endfacet
  facet normal 1 -0 0
    outer loop
      vertex 6 18.3223 7.63939
      vertex 6 18.4894 2.32327
      vertex 6 18.4894 7.67673
    endloop
  endfacet
  facet normal 1 0 0
    outer loop
      vertex 6 18.3223 7.63939
      vertex 6 18.3223 2.36061
      vertex 6 18.4894 2.32327
    endloop
  endfacet
  facet normal 1 -0 0
    outer loop
      vertex 6 18.1579 7.59163
      vertex 6 18.3223 2.36061
      vertex 6 18.3223 7.63939
    endloop
  endfacet
  facet normal 1 0 0
    outer loop
      vertex 6 18.1579 7.59163
      vertex 6 18.1579 2.40837
      vertex 6 18.3223 2.36061
    endloop
  endfacet
  facet normal 1 -0 0
    outer loop
      vertex 6 17.9969 7.53364
      vertex 6 18.1579 2.40837
      vertex 6 18.1579 7.59163
    endloop
  endfacet
  facet normal 1 0 0
    outer loop
      vertex 6 17.9969 7.53364
      vertex 6 17.9969 2.46636
      vertex 6 18.1579 2.40837
    endloop
  endfacet
  facet normal 1 -0 0
    outer loop
      vertex 6 17.8398 7.46565
      vertex 6 17.9969 2.46636
      vertex 6 17.9969 7.53364
    endloop
  endfacet
  facet normal 1 0 0
    outer loop
      vertex 6 17.8398 7.46565
      vertex 6 17.8398 2.53435
      vertex 6 17.9969 2.46636
    endloop
  endfacet
  facet normal 1 -0 0
    outer loop
      vertex 6 17.6872 7.38794
      vertex 6 17.8398 2.53435
      vertex 6 17.8398 7.46565
    endloop
  endfacet
  facet normal 1 0 0
    outer loop
      vertex 6 17.6872 7.38794
      vertex 6 17.6872 2.61206
      vertex 6 17.8398 2.53435
    endloop
  endfacet
  facet normal 1 -0 0
    outer loop
      vertex 6 17.5399 7.30079
      vertex 6 17.6872 2.61206
      vertex 6 17.6872 7.38794
    endloop
  endfacet
  facet normal 1 0 0
    outer loop
      vertex 6 17.5399 7.30079
      vertex 6 17.5399 2.69921
      vertex 6 17.6872 2.61206
    endloop
  endfacet
  facet normal 1 -0 0
    outer loop
      vertex 6 17.3983 7.20457
      vertex 6 17.5399 2.69921
      vertex 6 17.5399 7.30079
    endloop
  endfacet
  facet normal 1 0 0
    outer loop
      vertex 6 17.3983 7.20457
      vertex 6 17.3983 2.79543
      vertex 6 17.5399 2.69921
    endloop
  endfacet
  facet normal 1 -0 0
    outer loop
      vertex 6 17.263 7.09965
      vertex 6 17.3983 2.79543
      vertex 6 17.3983 7.20457
    endloop
  endfacet
  facet normal 1 0 0
    outer loop
      vertex 6 17.263 7.09965
      vertex 6 17.263 2.90035
      vertex 6 17.3983 2.79543
    endloop
  endfacet
  facet normal 1 -0 0
    outer loop
      vertex 6 17.1346 6.98644
      vertex 6 17.263 2.90035
      vertex 6 17.263 7.09965
    endloop
  endfacet
  facet normal 1 0 0
    outer loop
      vertex 6 17.1346 6.98644
      vertex 6 17.1346 3.01356
      vertex 6 17.263 2.90035
    endloop
  endfacet
  facet normal 1 -0 0
    outer loop
      vertex 6 17.0136 6.86539
      vertex 6 17.1346 3.01356
      vertex 6 17.1346 6.98644
    endloop
  endfacet
  facet normal 1 0 0
    outer loop
      vertex 6 17.0136 6.86539
      vertex 6 17.0136 3.13461
      vertex 6 17.1346 3.01356
    endloop
  endfacet
  facet normal 1 -0 0
    outer loop
      vertex 6 16.9004 6.73698
      vertex 6 17.0136 3.13461
      vertex 6 17.0136 6.86539
    endloop
  endfacet
  facet normal 1 0 0
    outer loop
      vertex 6 16.9004 6.73698
      vertex 6 16.9004 3.26302
      vertex 6 17.0136 3.13461
    endloop
  endfacet
  facet normal 1 -0 0
    outer loop
      vertex 6 16.7954 6.60171
      vertex 6 16.9004 3.26302
      vertex 6 16.9004 6.73698
    endloop
  endfacet
  facet normal 1 0 0
    outer loop
      vertex 6 16.7954 6.60171
      vertex 6 16.7954 3.39829
      vertex 6 16.9004 3.26302
    endloop
  endfacet
  facet normal 1 -0 0
    outer loop
      vertex 6 16.6992 6.46013
      vertex 6 16.7954 3.39829
      vertex 6 16.7954 6.60171
    endloop
  endfacet
  facet normal 1 0 0
    outer loop
      vertex 6 16.6992 6.46013
      vertex 6 16.6992 3.53987
      vertex 6 16.7954 3.39829
    endloop
  endfacet
  facet normal 1 -0 0
    outer loop
      vertex 6 16.6121 6.31278
      vertex 6 16.6992 3.53987
      vertex 6 16.6992 6.46013
    endloop
  endfacet
  facet normal 1 0 0
    outer loop
      vertex 6 16.6121 6.31278
      vertex 6 16.6121 3.68722
      vertex 6 16.6992 3.53987
    endloop
  endfacet
  facet normal 1 -0 0
    outer loop
      vertex 6 16.5343 6.16025
      vertex 6 16.6121 3.68722
      vertex 6 16.6121 6.31278
    endloop
  endfacet
  facet normal 1 0 0
    outer loop
      vertex 6 16.5343 6.16025
      vertex 6 16.5343 3.83975
      vertex 6 16.6121 3.68722
    endloop
  endfacet
  facet normal 1 -0 0
    outer loop
      vertex 6 16.4664 6.00314
      vertex 6 16.5343 3.83975
      vertex 6 16.5343 6.16025
    endloop
  endfacet
  facet normal 1 0 0
    outer loop
      vertex 6 16.4664 6.00314
      vertex 6 16.4664 3.99686
      vertex 6 16.5343 3.83975
    endloop
  endfacet
  facet normal 1 -0 0
    outer loop
      vertex 6 16.4084 5.84207
      vertex 6 16.4664 3.99686
      vertex 6 16.4664 6.00314
    endloop
  endfacet
  facet normal 1 0 0
    outer loop
      vertex 6 16.4084 5.84207
      vertex 6 16.4084 4.15793
      vertex 6 16.4664 3.99686
    endloop
  endfacet
  facet normal 1 -0 0
    outer loop
      vertex 6 16.3606 5.67768
      vertex 6 16.4084 4.15793
      vertex 6 16.4084 5.84207
    endloop
  endfacet
  facet normal 1 0 0
    outer loop
      vertex 6 16.3606 5.67768
      vertex 6 16.3606 4.32232
      vertex 6 16.4084 4.15793
    endloop
  endfacet
  facet normal 1 -0 0
    outer loop
      vertex 6 16.3233 5.51061
      vertex 6 16.3606 4.32232
      vertex 6 16.3606 5.67768
    endloop
  endfacet
  facet normal 1 0 0
    outer loop
      vertex 6 16.3233 5.51061
      vertex 6 16.3233 4.48939
      vertex 6 16.3606 4.32232
    endloop
  endfacet
  facet normal 1 -0 0
    outer loop
      vertex 6 16.2965 5.34153
      vertex 6 16.3233 4.48939
      vertex 6 16.3233 5.51061
    endloop
  endfacet
  facet normal 1 0 0
    outer loop
      vertex 6 16.2965 5.34153
      vertex 6 16.2965 4.65847
      vertex 6 16.3233 4.48939
    endloop
  endfacet
  facet normal 1 -0 0
    outer loop
      vertex 6 16.2804 5.1711
      vertex 6 16.2965 4.65847
      vertex 6 16.2965 5.34153
    endloop
  endfacet
  facet normal 1 0 0
    outer loop
      vertex 6 16.2804 5.1711
      vertex 6 16.2804 4.8289
      vertex 6 16.2965 4.65847
    endloop
  endfacet
  facet normal 1 0 -0
    outer loop
      vertex 6 16.2804 4.8289
      vertex 6 16.2804 5.1711
      vertex 6 16.275 5
    endloop
  endfacet
  facet normal 0 0.0314281 -0.999506
    outer loop
      vertex 6 18.8289 7.71962
      vertex 9 19 7.725
      vertex 9 18.8289 7.71962
    endloop
  endfacet
  facet normal 0 0.0314281 -0.999506
    outer loop
      vertex 9 19 7.725
      vertex 6 18.8289 7.71962
      vertex 6 19 7.725
    endloop
  endfacet
  facet normal 0 0.338875 -0.940832
    outer loop
      vertex 6 17.9969 7.53364
      vertex 9 18.1579 7.59163
      vertex 9 17.9969 7.53364
    endloop
  endfacet
  facet normal 0 0.338875 -0.940832
    outer loop
      vertex 9 18.1579 7.59163
      vertex 6 17.9969 7.53364
      vertex 6 18.1579 7.59163
    endloop
  endfacet
  facet normal 0 -0.278977 -0.960298
    outer loop
      vertex 6 19.6777 7.63939
      vertex 9 19.8421 7.59163
      vertex 9 19.6777 7.63939
    endloop
  endfacet
  facet normal -0 -0.278977 -0.960298
    outer loop
      vertex 9 19.8421 7.59163
      vertex 6 19.6777 7.63939
      vertex 6 19.8421 7.59163
    endloop
  endfacet
  facet normal 0 -0.338804 0.940857
    outer loop
      vertex 6 20 2.46523
      vertex 9 19.8421 2.40837
      vertex 9 20 2.46523
    endloop
  endfacet
  facet normal 0 -0.338804 0.940857
    outer loop
      vertex 9 19.8421 2.40837
      vertex 6 20 2.46523
      vertex 6 19.8421 2.40837
    endloop
  endfacet
  facet normal -0 0.156418 0.987691
    outer loop
      vertex 6 18.6585 2.29649
      vertex 9 18.4894 2.32327
      vertex 9 18.6585 2.29649
    endloop
  endfacet
  facet normal 0 0.156418 0.987691
    outer loop
      vertex 9 18.4894 2.32327
      vertex 6 18.6585 2.29649
      vertex 6 18.4894 2.32327
    endloop
  endfacet
  facet normal 8.76789e-20 0.890813 -0.454371
    outer loop
      vertex 9 16.5343 6.16025
      vertex 6 16.6121 6.31278
      vertex 9 16.6121 6.31278
    endloop
  endfacet
  facet normal 8.76789e-20 0.890813 -0.454371
    outer loop
      vertex 6 16.6121 6.31278
      vertex 9 16.5343 6.16025
      vertex 6 16.5343 6.16025
    endloop
  endfacet
  facet normal 3.07436e-19 0.995568 -0.0940482
    outer loop
      vertex 9 16.2804 5.1711
      vertex 6 16.2965 5.34153
      vertex 9 16.2965 5.34153
    endloop
  endfacet
  facet normal 3.07436e-19 0.995568 -0.0940482
    outer loop
      vertex 6 16.2965 5.34153
      vertex 9 16.2804 5.1711
      vertex 6 16.2804 5.1711
    endloop
  endfacet
  facet normal 3.9186e-19 0.789946 0.613176
    outer loop
      vertex 9 16.9004 3.26302
      vertex 6 16.7954 3.39829
      vertex 9 16.7954 3.39829
    endloop
  endfacet
  facet normal 3.9186e-19 0.789946 0.613176
    outer loop
      vertex 6 16.7954 3.39829
      vertex 9 16.9004 3.26302
      vertex 6 16.9004 3.26302
    endloop
  endfacet
  facet normal 0 -0.218081 0.975931
    outer loop
      vertex 6 19.6777 2.36061
      vertex 9 19.5106 2.32327
      vertex 9 19.6777 2.36061
    endloop
  endfacet
  facet normal 0 -0.218081 0.975931
    outer loop
      vertex 9 19.5106 2.32327
      vertex 6 19.6777 2.36061
      vertex 6 19.5106 2.32327
    endloop
  endfacet
  facet normal -0 0.6128 0.790238
    outer loop
      vertex 6 17.3983 2.79543
      vertex 9 17.263 2.90035
      vertex 9 17.3983 2.79543
    endloop
  endfacet
  facet normal 0 0.6128 0.790238
    outer loop
      vertex 9 17.263 2.90035
      vertex 6 17.3983 2.79543
      vertex 6 17.263 2.90035
    endloop
  endfacet
  facet normal 3.0123e-19 0.917941 -0.396717
    outer loop
      vertex 9 16.4664 6.00314
      vertex 6 16.5343 6.16025
      vertex 9 16.5343 6.16025
    endloop
  endfacet
  facet normal 3.0123e-19 0.917941 -0.396717
    outer loop
      vertex 6 16.5343 6.16025
      vertex 9 16.4664 6.00314
      vertex 6 16.4664 6.00314
    endloop
  endfacet
  facet normal 0 0.0941225 -0.995561
    outer loop
      vertex 6 18.6585 7.70351
      vertex 9 18.8289 7.71962
      vertex 9 18.6585 7.70351
    endloop
  endfacet
  facet normal 0 0.0941225 -0.995561
    outer loop
      vertex 9 18.8289 7.71962
      vertex 6 18.6585 7.70351
      vertex 6 18.8289 7.71962
    endloop
  endfacet
  facet normal 0 0.509202 -0.860647
    outer loop
      vertex 6 17.5399 7.30079
      vertex 9 17.6872 7.38794
      vertex 9 17.5399 7.30079
    endloop
  endfacet
  facet normal 0 0.509202 -0.860647
    outer loop
      vertex 9 17.6872 7.38794
      vertex 6 17.5399 7.30079
      vertex 6 17.6872 7.38794
    endloop
  endfacet
  facet normal -1.59316e-18 0.917941 0.396717
    outer loop
      vertex 9 16.5343 3.83975
      vertex 6 16.4664 3.99686
      vertex 9 16.4664 3.99686
    endloop
  endfacet
  facet normal -1.59316e-18 0.917941 0.396717
    outer loop
      vertex 6 16.4664 3.99686
      vertex 9 16.5343 3.83975
      vertex 6 16.5343 3.83975
    endloop
  endfacet
  facet normal -3.68651e-19 0.890813 0.454371
    outer loop
      vertex 9 16.6121 3.68722
      vertex 6 16.5343 3.83975
      vertex 9 16.5343 3.83975
    endloop
  endfacet
  facet normal -3.68651e-19 0.890813 0.454371
    outer loop
      vertex 6 16.5343 3.83975
      vertex 9 16.6121 3.68722
      vertex 6 16.6121 3.68722
    endloop
  endfacet
  facet normal -0 0.218081 0.975931
    outer loop
      vertex 6 18.4894 2.32327
      vertex 9 18.3223 2.36061
      vertex 9 18.4894 2.32327
    endloop
  endfacet
  facet normal 0 0.218081 0.975931
    outer loop
      vertex 9 18.3223 2.36061
      vertex 6 18.4894 2.32327
      vertex 6 18.3223 2.36061
    endloop
  endfacet
  facet normal -0 0.397181 0.91774
    outer loop
      vertex 6 17.9969 2.46636
      vertex 9 17.8398 2.53435
      vertex 9 17.9969 2.46636
    endloop
  endfacet
  facet normal 0 0.397181 0.91774
    outer loop
      vertex 9 17.8398 2.53435
      vertex 6 17.9969 2.46636
      vertex 6 17.8398 2.53435
    endloop
  endfacet
  facet normal -7.97075e-19 0.789946 -0.613176
    outer loop
      vertex 9 16.7954 6.60171
      vertex 6 16.9004 6.73698
      vertex 9 16.9004 6.73698
    endloop
  endfacet
  facet normal -7.97075e-19 0.789946 -0.613176
    outer loop
      vertex 6 16.9004 6.73698
      vertex 9 16.7954 6.60171
      vertex 6 16.7954 6.60171
    endloop
  endfacet
  facet normal 0 -0.218081 -0.975931
    outer loop
      vertex 6 19.5106 7.67673
      vertex 9 19.6777 7.63939
      vertex 9 19.5106 7.67673
    endloop
  endfacet
  facet normal -0 -0.218081 -0.975931
    outer loop
      vertex 9 19.6777 7.63939
      vertex 6 19.5106 7.67673
      vertex 6 19.6777 7.63939
    endloop
  endfacet
  facet normal -0 0.661345 0.750082
    outer loop
      vertex 6 17.263 2.90035
      vertex 9 17.1346 3.01356
      vertex 9 17.263 2.90035
    endloop
  endfacet
  facet normal 0 0.661345 0.750082
    outer loop
      vertex 9 17.1346 3.01356
      vertex 6 17.263 2.90035
      vertex 6 17.1346 3.01356
    endloop
  endfacet
  facet normal 1.30304e-18 0.707253 -0.706961
    outer loop
      vertex 9 17.0136 6.86539
      vertex 6 17.1346 6.98644
      vertex 9 17.1346 6.98644
    endloop
  endfacet
  facet normal 1.30304e-18 0.707253 -0.706961
    outer loop
      vertex 6 17.1346 6.98644
      vertex 9 17.0136 6.86539
      vertex 6 17.0136 6.86539
    endloop
  endfacet
  facet normal -0 0.0941225 0.995561
    outer loop
      vertex 6 18.8289 2.28038
      vertex 9 18.6585 2.29649
      vertex 9 18.8289 2.28038
    endloop
  endfacet
  facet normal 0 0.0941225 0.995561
    outer loop
      vertex 9 18.6585 2.29649
      vertex 6 18.8289 2.28038
      vertex 6 18.6585 2.29649
    endloop
  endfacet
  facet normal 0 0.278977 -0.960298
    outer loop
      vertex 6 18.1579 7.59163
      vertex 9 18.3223 7.63939
      vertex 9 18.1579 7.59163
    endloop
  endfacet
  facet normal 0 0.278977 -0.960298
    outer loop
      vertex 9 18.3223 7.63939
      vertex 6 18.1579 7.59163
      vertex 6 18.3223 7.63939
    endloop
  endfacet
  facet normal 0 -0.278977 0.960298
    outer loop
      vertex 6 19.8421 2.40837
      vertex 9 19.6777 2.36061
      vertex 9 19.8421 2.40837
    endloop
  endfacet
  facet normal 0 -0.278977 0.960298
    outer loop
      vertex 9 19.6777 2.36061
      vertex 6 19.8421 2.40837
      vertex 6 19.6777 2.36061
    endloop
  endfacet
  facet normal -3.18675e-19 0.827129 0.562013
    outer loop
      vertex 9 16.7954 3.39829
      vertex 6 16.6992 3.53987
      vertex 9 16.6992 3.53987
    endloop
  endfacet
  facet normal -3.18675e-19 0.827129 0.562013
    outer loop
      vertex 6 16.6992 3.53987
      vertex 9 16.7954 3.39829
      vertex 6 16.7954 3.39829
    endloop
  endfacet
  facet normal 1.42987e-18 0.860851 -0.508857
    outer loop
      vertex 9 16.6121 6.31278
      vertex 6 16.6992 6.46013
      vertex 9 16.6992 6.46013
    endloop
  endfacet
  facet normal 1.42987e-18 0.860851 -0.508857
    outer loop
      vertex 6 16.6992 6.46013
      vertex 9 16.6121 6.31278
      vertex 6 16.6121 6.31278
    endloop
  endfacet
  facet normal 7.83757e-20 0.999502 0.0315448
    outer loop
      vertex 9 16.2804 4.8289
      vertex 6 16.275 5
      vertex 9 16.275 5
    endloop
  endfacet
  facet normal 7.83757e-20 0.999502 0.0315448
    outer loop
      vertex 6 16.275 5
      vertex 9 16.2804 4.8289
      vertex 6 16.2804 4.8289
    endloop
  endfacet
  facet normal 0 -0.0314281 0.999506
    outer loop
      vertex 6 19.1711 2.28038
      vertex 9 19 2.275
      vertex 9 19.1711 2.28038
    endloop
  endfacet
  facet normal 0 -0.0314281 0.999506
    outer loop
      vertex 9 19 2.275
      vertex 6 19.1711 2.28038
      vertex 6 19 2.275
    endloop
  endfacet
  facet normal 1.01907e-18 0.960231 0.279208
    outer loop
      vertex 9 16.4084 4.15793
      vertex 6 16.3606 4.32232
      vertex 9 16.3606 4.32232
    endloop
  endfacet
  facet normal 1.01907e-18 0.960231 0.279208
    outer loop
      vertex 6 16.3606 4.32232
      vertex 9 16.4084 4.15793
      vertex 6 16.4084 4.15793
    endloop
  endfacet
  facet normal 0 -0.156418 -0.987691
    outer loop
      vertex 6 19.3415 7.70351
      vertex 9 19.5106 7.67673
      vertex 9 19.3415 7.70351
    endloop
  endfacet
  facet normal -0 -0.156418 -0.987691
    outer loop
      vertex 9 19.5106 7.67673
      vertex 6 19.3415 7.70351
      vertex 6 19.5106 7.67673
    endloop
  endfacet
  facet normal 0 -0.338804 -0.940857
    outer loop
      vertex 6 19.8421 7.59163
      vertex 9 20 7.53477
      vertex 9 19.8421 7.59163
    endloop
  endfacet
  facet normal -0 -0.338804 -0.940857
    outer loop
      vertex 9 20 7.53477
      vertex 6 19.8421 7.59163
      vertex 6 20 7.53477
    endloop
  endfacet
  facet normal -0 0.562038 0.827111
    outer loop
      vertex 6 17.5399 2.69921
      vertex 9 17.3983 2.79543
      vertex 9 17.5399 2.69921
    endloop
  endfacet
  facet normal 0 0.562038 0.827111
    outer loop
      vertex 9 17.3983 2.79543
      vertex 6 17.5399 2.69921
      vertex 6 17.3983 2.79543
    endloop
  endfacet
  facet normal -0 0.278977 0.960298
    outer loop
      vertex 6 18.3223 2.36061
      vertex 9 18.1579 2.40837
      vertex 9 18.3223 2.36061
    endloop
  endfacet
  facet normal 0 0.278977 0.960298
    outer loop
      vertex 9 18.1579 2.40837
      vertex 6 18.3223 2.36061
      vertex 6 18.1579 2.40837
    endloop
  endfacet
  facet normal -4.24515e-19 0.860851 0.508857
    outer loop
      vertex 9 16.6992 3.53987
      vertex 6 16.6121 3.68722
      vertex 9 16.6121 3.68722
    endloop
  endfacet
  facet normal -4.24515e-19 0.860851 0.508857
    outer loop
      vertex 6 16.6121 3.68722
      vertex 9 16.6992 3.53987
      vertex 6 16.6992 3.53987
    endloop
  endfacet
  facet normal -2.7784e-19 0.975972 0.217895
    outer loop
      vertex 9 16.3606 4.32232
      vertex 6 16.3233 4.48939
      vertex 9 16.3233 4.48939
    endloop
  endfacet
  facet normal -2.7784e-19 0.975972 0.217895
    outer loop
      vertex 6 16.3233 4.48939
      vertex 9 16.3606 4.32232
      vertex 6 16.3606 4.32232
    endloop
  endfacet
  facet normal 0 -0.0941225 0.995561
    outer loop
      vertex 6 19.3415 2.29649
      vertex 9 19.1711 2.28038
      vertex 9 19.3415 2.29649
    endloop
  endfacet
  facet normal 0 -0.0941225 0.995561
    outer loop
      vertex 9 19.1711 2.28038
      vertex 6 19.3415 2.29649
      vertex 6 19.1711 2.28038
    endloop
  endfacet
  facet normal -1.01907e-18 0.960231 -0.279208
    outer loop
      vertex 9 16.3606 5.67768
      vertex 6 16.4084 5.84207
      vertex 9 16.4084 5.84207
    endloop
  endfacet
  facet normal -1.01907e-18 0.960231 -0.279208
    outer loop
      vertex 6 16.4084 5.84207
      vertex 9 16.3606 5.67768
      vertex 6 16.3606 5.67768
    endloop
  endfacet
  facet normal -0 0.338875 0.940832
    outer loop
      vertex 6 18.1579 2.40837
      vertex 9 17.9969 2.46636
      vertex 9 18.1579 2.40837
    endloop
  endfacet
  facet normal 0 0.338875 0.940832
    outer loop
      vertex 9 17.9969 2.46636
      vertex 6 18.1579 2.40837
      vertex 6 17.9969 2.46636
    endloop
  endfacet
  facet normal -0 0.509202 0.860647
    outer loop
      vertex 6 17.6872 2.61206
      vertex 9 17.5399 2.69921
      vertex 9 17.6872 2.61206
    endloop
  endfacet
  facet normal 0 0.509202 0.860647
    outer loop
      vertex 9 17.5399 2.69921
      vertex 6 17.6872 2.61206
      vertex 6 17.5399 2.69921
    endloop
  endfacet
  facet normal 0 0.218081 -0.975931
    outer loop
      vertex 6 18.3223 7.63939
      vertex 9 18.4894 7.67673
      vertex 9 18.3223 7.63939
    endloop
  endfacet
  facet normal 0 0.218081 -0.975931
    outer loop
      vertex 9 18.4894 7.67673
      vertex 6 18.3223 7.63939
      vertex 6 18.4894 7.67673
    endloop
  endfacet
  facet normal 2.7784e-19 0.975972 -0.217895
    outer loop
      vertex 9 16.3233 5.51061
      vertex 6 16.3606 5.67768
      vertex 9 16.3606 5.67768
    endloop
  endfacet
  facet normal 2.7784e-19 0.975972 -0.217895
    outer loop
      vertex 6 16.3606 5.67768
      vertex 9 16.3233 5.51061
      vertex 6 16.3233 5.51061
    endloop
  endfacet
  facet normal -6.16522e-21 0.94086 -0.338796
    outer loop
      vertex 9 16.4084 5.84207
      vertex 6 16.4664 6.00314
      vertex 9 16.4664 6.00314
    endloop
  endfacet
  facet normal -6.16522e-21 0.94086 -0.338796
    outer loop
      vertex 6 16.4664 6.00314
      vertex 9 16.4084 5.84207
      vertex 6 16.4084 5.84207
    endloop
  endfacet
  facet normal -2.5471e-19 0.98767 -0.15655
    outer loop
      vertex 9 16.2965 5.34153
      vertex 6 16.3233 5.51061
      vertex 9 16.3233 5.51061
    endloop
  endfacet
  facet normal -2.5471e-19 0.98767 -0.15655
    outer loop
      vertex 6 16.3233 5.51061
      vertex 9 16.2965 5.34153
      vertex 6 16.2965 5.34153
    endloop
  endfacet
  facet normal 0 0.562038 -0.827111
    outer loop
      vertex 6 17.3983 7.20457
      vertex 9 17.5399 7.30079
      vertex 9 17.3983 7.20457
    endloop
  endfacet
  facet normal 0 0.562038 -0.827111
    outer loop
      vertex 9 17.5399 7.30079
      vertex 6 17.3983 7.20457
      vertex 6 17.5399 7.30079
    endloop
  endfacet
  facet normal 0 -0.156418 0.987691
    outer loop
      vertex 6 19.5106 2.32327
      vertex 9 19.3415 2.29649
      vertex 9 19.5106 2.32327
    endloop
  endfacet
  facet normal 0 -0.156418 0.987691
    outer loop
      vertex 9 19.3415 2.29649
      vertex 6 19.5106 2.32327
      vertex 6 19.3415 2.29649
    endloop
  endfacet
  facet normal 6.16522e-21 0.94086 0.338796
    outer loop
      vertex 9 16.4664 3.99686
      vertex 6 16.4084 4.15793
      vertex 9 16.4084 4.15793
    endloop
  endfacet
  facet normal 6.16522e-21 0.94086 0.338796
    outer loop
      vertex 6 16.4084 4.15793
      vertex 9 16.4664 3.99686
      vertex 6 16.4664 3.99686
    endloop
  endfacet
  facet normal 0 0.6128 -0.790238
    outer loop
      vertex 6 17.263 7.09965
      vertex 9 17.3983 7.20457
      vertex 9 17.263 7.09965
    endloop
  endfacet
  facet normal 0 0.6128 -0.790238
    outer loop
      vertex 9 17.3983 7.20457
      vertex 6 17.263 7.09965
      vertex 6 17.3983 7.20457
    endloop
  endfacet
  facet normal 0 0.397181 -0.91774
    outer loop
      vertex 6 17.8398 7.46565
      vertex 9 17.9969 7.53364
      vertex 9 17.8398 7.46565
    endloop
  endfacet
  facet normal 0 0.397181 -0.91774
    outer loop
      vertex 9 17.9969 7.53364
      vertex 6 17.8398 7.46565
      vertex 6 17.9969 7.53364
    endloop
  endfacet
  facet normal 0 0.453788 -0.891109
    outer loop
      vertex 6 17.6872 7.38794
      vertex 9 17.8398 7.46565
      vertex 9 17.6872 7.38794
    endloop
  endfacet
  facet normal 0 0.453788 -0.891109
    outer loop
      vertex 9 17.8398 7.46565
      vertex 6 17.6872 7.38794
      vertex 6 17.8398 7.46565
    endloop
  endfacet
  facet normal -3.07436e-19 0.995568 0.0940482
    outer loop
      vertex 9 16.2965 4.65847
      vertex 6 16.2804 4.8289
      vertex 9 16.2804 4.8289
    endloop
  endfacet
  facet normal -3.07436e-19 0.995568 0.0940482
    outer loop
      vertex 6 16.2804 4.8289
      vertex 9 16.2965 4.65847
      vertex 6 16.2965 4.65847
    endloop
  endfacet
  facet normal 2.5471e-19 0.98767 0.15655
    outer loop
      vertex 9 16.3233 4.48939
      vertex 6 16.2965 4.65847
      vertex 9 16.2965 4.65847
    endloop
  endfacet
  facet normal 2.5471e-19 0.98767 0.15655
    outer loop
      vertex 6 16.2965 4.65847
      vertex 9 16.3233 4.48939
      vertex 6 16.3233 4.48939
    endloop
  endfacet
  facet normal -1 0 0
    outer loop
      vertex 9 19.8421 2.40837
      vertex 9 20 7.53477
      vertex 9 20 2.46523
    endloop
  endfacet
  facet normal -1 0 0
    outer loop
      vertex 9 19.8421 2.40837
      vertex 9 19.8421 7.59163
      vertex 9 20 7.53477
    endloop
  endfacet
  facet normal -1 0 0
    outer loop
      vertex 9 19.6777 2.36061
      vertex 9 19.8421 7.59163
      vertex 9 19.8421 2.40837
    endloop
  endfacet
  facet normal -1 0 0
    outer loop
      vertex 9 19.6777 2.36061
      vertex 9 19.6777 7.63939
      vertex 9 19.8421 7.59163
    endloop
  endfacet
  facet normal -1 0 0
    outer loop
      vertex 9 19.5106 2.32327
      vertex 9 19.6777 7.63939
      vertex 9 19.6777 2.36061
    endloop
  endfacet
  facet normal -1 0 0
    outer loop
      vertex 9 19.5106 2.32327
      vertex 9 19.5106 7.67673
      vertex 9 19.6777 7.63939
    endloop
  endfacet
  facet normal -1 0 0
    outer loop
      vertex 9 19.3415 2.29649
      vertex 9 19.5106 7.67673
      vertex 9 19.5106 2.32327
    endloop
  endfacet
  facet normal -1 0 0
    outer loop
      vertex 9 19.3415 2.29649
      vertex 9 19.3415 7.70351
      vertex 9 19.5106 7.67673
    endloop
  endfacet
  facet normal -1 0 0
    outer loop
      vertex 9 19.1711 2.28038
      vertex 9 19.3415 7.70351
      vertex 9 19.3415 2.29649
    endloop
  endfacet
  facet normal -1 0 0
    outer loop
      vertex 9 19.1711 2.28038
      vertex 9 19.1711 7.71962
      vertex 9 19.3415 7.70351
    endloop
  endfacet
  facet normal -1 0 0
    outer loop
      vertex 9 19 2.275
      vertex 9 19.1711 7.71962
      vertex 9 19.1711 2.28038
    endloop
  endfacet
  facet normal -1 0 0
    outer loop
      vertex 9 19 2.275
      vertex 9 19 7.725
      vertex 9 19.1711 7.71962
    endloop
  endfacet
  facet normal -1 0 0
    outer loop
      vertex 9 18.8289 2.28038
      vertex 9 19 7.725
      vertex 9 19 2.275
    endloop
  endfacet
  facet normal -1 0 0
    outer loop
      vertex 9 18.8289 2.28038
      vertex 9 18.8289 7.71962
      vertex 9 19 7.725
    endloop
  endfacet
  facet normal -1 0 0
    outer loop
      vertex 9 18.6585 2.29649
      vertex 9 18.8289 7.71962
      vertex 9 18.8289 2.28038
    endloop
  endfacet
  facet normal -1 0 0
    outer loop
      vertex 9 18.6585 2.29649
      vertex 9 18.6585 7.70351
      vertex 9 18.8289 7.71962
    endloop
  endfacet
  facet normal -1 0 0
    outer loop
      vertex 9 18.4894 2.32327
      vertex 9 18.6585 7.70351
      vertex 9 18.6585 2.29649
    endloop
  endfacet
  facet normal -1 0 0
    outer loop
      vertex 9 18.4894 2.32327
      vertex 9 18.4894 7.67673
      vertex 9 18.6585 7.70351
    endloop
  endfacet
  facet normal -1 0 0
    outer loop
      vertex 9 18.3223 2.36061
      vertex 9 18.4894 7.67673
      vertex 9 18.4894 2.32327
    endloop
  endfacet
  facet normal -1 0 0
    outer loop
      vertex 9 18.3223 2.36061
      vertex 9 18.3223 7.63939
      vertex 9 18.4894 7.67673
    endloop
  endfacet
  facet normal -1 0 0
    outer loop
      vertex 9 18.1579 2.40837
      vertex 9 18.3223 7.63939
      vertex 9 18.3223 2.36061
    endloop
  endfacet
  facet normal -1 0 0
    outer loop
      vertex 9 18.1579 2.40837
      vertex 9 18.1579 7.59163
      vertex 9 18.3223 7.63939
    endloop
  endfacet
  facet normal -1 0 0
    outer loop
      vertex 9 17.9969 2.46636
      vertex 9 18.1579 7.59163
      vertex 9 18.1579 2.40837
    endloop
  endfacet
  facet normal -1 0 0
    outer loop
      vertex 9 17.9969 2.46636
      vertex 9 17.9969 7.53364
      vertex 9 18.1579 7.59163
    endloop
  endfacet
  facet normal -1 0 0
    outer loop
      vertex 9 17.8398 2.53435
      vertex 9 17.9969 7.53364
      vertex 9 17.9969 2.46636
    endloop
  endfacet
  facet normal -1 0 0
    outer loop
      vertex 9 17.8398 2.53435
      vertex 9 17.8398 7.46565
      vertex 9 17.9969 7.53364
    endloop
  endfacet
  facet normal -1 0 0
    outer loop
      vertex 9 17.6872 2.61206
      vertex 9 17.8398 7.46565
      vertex 9 17.8398 2.53435
    endloop
  endfacet
  facet normal -1 0 0
    outer loop
      vertex 9 17.6872 2.61206
      vertex 9 17.6872 7.38794
      vertex 9 17.8398 7.46565
    endloop
  endfacet
  facet normal -1 0 0
    outer loop
      vertex 9 17.5399 2.69921
      vertex 9 17.6872 7.38794
      vertex 9 17.6872 2.61206
    endloop
  endfacet
  facet normal -1 0 0
    outer loop
      vertex 9 17.5399 2.69921
      vertex 9 17.5399 7.30079
      vertex 9 17.6872 7.38794
    endloop
  endfacet
  facet normal -1 0 0
    outer loop
      vertex 9 17.3983 2.79543
      vertex 9 17.5399 7.30079
      vertex 9 17.5399 2.69921
    endloop
  endfacet
  facet normal -1 0 0
    outer loop
      vertex 9 17.3983 2.79543
      vertex 9 17.3983 7.20457
      vertex 9 17.5399 7.30079
    endloop
  endfacet
  facet normal -1 0 0
    outer loop
      vertex 9 17.263 2.90035
      vertex 9 17.3983 7.20457
      vertex 9 17.3983 2.79543
    endloop
  endfacet
  facet normal -1 0 0
    outer loop
      vertex 9 17.263 2.90035
      vertex 9 17.263 7.09965
      vertex 9 17.3983 7.20457
    endloop
  endfacet
  facet normal -1 0 0
    outer loop
      vertex 9 17.1346 3.01356
      vertex 9 17.263 7.09965
      vertex 9 17.263 2.90035
    endloop
  endfacet
  facet normal -1 0 0
    outer loop
      vertex 9 17.1346 3.01356
      vertex 9 17.1346 6.98644
      vertex 9 17.263 7.09965
    endloop
  endfacet
  facet normal -1 0 0
    outer loop
      vertex 9 17.0136 3.13461
      vertex 9 17.1346 6.98644
      vertex 9 17.1346 3.01356
    endloop
  endfacet
  facet normal -1 0 0
    outer loop
      vertex 9 17.0136 3.13461
      vertex 9 17.0136 6.86539
      vertex 9 17.1346 6.98644
    endloop
  endfacet
  facet normal -1 0 0
    outer loop
      vertex 9 16.9004 3.26302
      vertex 9 17.0136 6.86539
      vertex 9 17.0136 3.13461
    endloop
  endfacet
  facet normal -1 0 0
    outer loop
      vertex 9 16.9004 3.26302
      vertex 9 16.9004 6.73698
      vertex 9 17.0136 6.86539
    endloop
  endfacet
  facet normal -1 0 0
    outer loop
      vertex 9 16.7954 3.39829
      vertex 9 16.9004 6.73698
      vertex 9 16.9004 3.26302
    endloop
  endfacet
  facet normal -1 0 0
    outer loop
      vertex 9 16.7954 3.39829
      vertex 9 16.7954 6.60171
      vertex 9 16.9004 6.73698
    endloop
  endfacet
  facet normal -1 0 0
    outer loop
      vertex 9 16.6992 3.53987
      vertex 9 16.7954 6.60171
      vertex 9 16.7954 3.39829
    endloop
  endfacet
  facet normal -1 0 0
    outer loop
      vertex 9 16.6992 3.53987
      vertex 9 16.6992 6.46013
      vertex 9 16.7954 6.60171
    endloop
  endfacet
  facet normal -1 0 0
    outer loop
      vertex 9 16.6121 3.68722
      vertex 9 16.6992 6.46013
      vertex 9 16.6992 3.53987
    endloop
  endfacet
  facet normal -1 0 0
    outer loop
      vertex 9 16.6121 3.68722
      vertex 9 16.6121 6.31278
      vertex 9 16.6992 6.46013
    endloop
  endfacet
  facet normal -1 0 0
    outer loop
      vertex 9 16.5343 3.83975
      vertex 9 16.6121 6.31278
      vertex 9 16.6121 3.68722
    endloop
  endfacet
  facet normal -1 0 0
    outer loop
      vertex 9 16.5343 3.83975
      vertex 9 16.5343 6.16025
      vertex 9 16.6121 6.31278
    endloop
  endfacet
  facet normal -1 0 0
    outer loop
      vertex 9 16.4664 3.99686
      vertex 9 16.5343 6.16025
      vertex 9 16.5343 3.83975
    endloop
  endfacet
  facet normal -1 0 0
    outer loop
      vertex 9 16.4664 3.99686
      vertex 9 16.4664 6.00314
      vertex 9 16.5343 6.16025
    endloop
  endfacet
  facet normal -1 0 0
    outer loop
      vertex 9 16.4084 4.15793
      vertex 9 16.4664 6.00314
      vertex 9 16.4664 3.99686
    endloop
  endfacet
  facet normal -1 0 0
    outer loop
      vertex 9 16.4084 4.15793
      vertex 9 16.4084 5.84207
      vertex 9 16.4664 6.00314
    endloop
  endfacet
  facet normal -1 0 0
    outer loop
      vertex 9 16.3606 4.32232
      vertex 9 16.4084 5.84207
      vertex 9 16.4084 4.15793
    endloop
  endfacet
  facet normal -1 0 0
    outer loop
      vertex 9 16.3606 4.32232
      vertex 9 16.3606 5.67768
      vertex 9 16.4084 5.84207
    endloop
  endfacet
  facet normal -1 0 0
    outer loop
      vertex 9 16.3233 4.48939
      vertex 9 16.3606 5.67768
      vertex 9 16.3606 4.32232
    endloop
  endfacet
  facet normal -1 0 0
    outer loop
      vertex 9 16.3233 4.48939
      vertex 9 16.3233 5.51061
      vertex 9 16.3606 5.67768
    endloop
  endfacet
  facet normal -1 0 0
    outer loop
      vertex 9 16.2965 4.65847
      vertex 9 16.3233 5.51061
      vertex 9 16.3233 4.48939
    endloop
  endfacet
  facet normal -1 0 0
    outer loop
      vertex 9 16.2965 4.65847
      vertex 9 16.2965 5.34153
      vertex 9 16.3233 5.51061
    endloop
  endfacet
  facet normal -1 0 0
    outer loop
      vertex 9 16.2804 4.8289
      vertex 9 16.2965 5.34153
      vertex 9 16.2965 4.65847
    endloop
  endfacet
  facet normal -1 0 0
    outer loop
      vertex 9 16.2804 4.8289
      vertex 9 16.2804 5.1711
      vertex 9 16.2965 5.34153
    endloop
  endfacet
  facet normal -1 0 -0
    outer loop
      vertex 9 16.2804 5.1711
      vertex 9 16.2804 4.8289
      vertex 9 16.275 5
    endloop
  endfacet
  facet normal 1 -0 0
    outer loop
      vertex 30 0 10
      vertex 30 20 0
      vertex 30 20 10
    endloop
  endfacet
  facet normal 1 0 0
    outer loop
      vertex 30 20 0
      vertex 30 0 10
      vertex 30 0 0
    endloop
  endfacet
  facet normal -0 0 1
    outer loop
      vertex 16.8924 1.07872 10
      vertex 30 0 10
      vertex 30 20 10
    endloop
  endfacet
  facet normal 0 0 1
    outer loop
      vertex 30 0 10
      vertex 17.3972 0.0879059 10
      vertex 17.4 0 10
    endloop
  endfacet
  facet normal 0 0 1
    outer loop
      vertex 30 0 10
      vertex 17.389 0.175466 10
      vertex 17.3972 0.0879059 10
    endloop
  endfacet
  facet normal 0 0 1
    outer loop
      vertex 30 0 10
      vertex 17.3752 0.262333 10
      vertex 17.389 0.175466 10
    endloop
  endfacet
  facet normal 0 0 1
    outer loop
      vertex 30 0 10
      vertex 17.356 0.348166 10
      vertex 17.3752 0.262333 10
    endloop
  endfacet
  facet normal 0 0 1
    outer loop
      vertex 30 0 10
      vertex 17.3315 0.432623 10
      vertex 17.356 0.348166 10
    endloop
  endfacet
  facet normal 0 0 1
    outer loop
      vertex 30 0 10
      vertex 17.3017 0.515374 10
      vertex 17.3315 0.432623 10
    endloop
  endfacet
  facet normal 0 0 1
    outer loop
      vertex 30 0 10
      vertex 17.2668 0.59609 10
      vertex 17.3017 0.515374 10
    endloop
  endfacet
  facet normal 0 0 1
    outer loop
      vertex 30 0 10
      vertex 17.2268 0.674455 10
      vertex 17.2668 0.59609 10
    endloop
  endfacet
  facet normal 0 0 1
    outer loop
      vertex 30 0 10
      vertex 17.1821 0.750157 10
      vertex 17.2268 0.674455 10
    endloop
  endfacet
  facet normal 0 0 1
    outer loop
      vertex 30 0 10
      vertex 17.1326 0.822899 10
      vertex 17.1821 0.750157 10
    endloop
  endfacet
  facet normal 0 0 1
    outer loop
      vertex 30 0 10
      vertex 17.0787 0.892393 10
      vertex 17.1326 0.822899 10
    endloop
  endfacet
  facet normal 0 0 1
    outer loop
      vertex 30 0 10
      vertex 17.0206 0.958365 10
      vertex 17.0787 0.892393 10
    endloop
  endfacet
  facet normal 0 0 1
    outer loop
      vertex 30 0 10
      vertex 16.9584 1.02056 10
      vertex 17.0206 0.958365 10
    endloop
  endfacet
  facet normal 0 0 1
    outer loop
      vertex 30 0 10
      vertex 16.8924 1.07872 10
      vertex 16.9584 1.02056 10
    endloop
  endfacet
  facet normal 0 0 1
    outer loop
      vertex 30 20 10
      vertex 16.8229 1.13262 10
      vertex 16.8924 1.07872 10
    endloop
  endfacet
  facet normal 0 0 1
    outer loop
      vertex 30 20 10
      vertex 16.7502 1.18206 10
      vertex 16.8229 1.13262 10
    endloop
  endfacet
  facet normal 0 0 1
    outer loop
      vertex 30 20 10
      vertex 16.6745 1.22683 10
      vertex 16.7502 1.18206 10
    endloop
  endfacet
  facet normal 0 0 1
    outer loop
      vertex 30 20 10
      vertex 16.5961 1.26676 10
      vertex 16.6745 1.22683 10
    endloop
  endfacet
  facet normal 0 0 1
    outer loop
      vertex 30 20 10
      vertex 16.5154 1.30169 10
      vertex 16.5961 1.26676 10
    endloop
  endfacet
  facet normal 0 0 1
    outer loop
      vertex 30 20 10
      vertex 16.4326 1.33148 10
      vertex 16.5154 1.30169 10
    endloop
  endfacet
  facet normal 0 0 1
    outer loop
      vertex 30 20 10
      vertex 16.3482 1.35602 10
      vertex 16.4326 1.33148 10
    endloop
  endfacet
  facet normal 0 0 1
    outer loop
      vertex 30 20 10
      vertex 16.2623 1.3752 10
      vertex 16.3482 1.35602 10
    endloop
  endfacet
  facet normal 0 0 1
    outer loop
      vertex 30 20 10
      vertex 16.1755 1.38896 10
      vertex 16.2623 1.3752 10
    endloop
  endfacet
  facet normal 0 0 1
    outer loop
      vertex 30 20 10
      vertex 16.0879 1.39724 10
      vertex 16.1755 1.38896 10
    endloop
  endfacet
  facet normal 0 0 1
    outer loop
      vertex 30 20 10
      vertex 16 1.4 10
      vertex 16.0879 1.39724 10
    endloop
  endfacet
  facet normal 0 0 1
    outer loop
      vertex 30 20 10
      vertex 15.9121 1.39724 10
      vertex 16 1.4 10
    endloop
  endfacet
  facet normal -0 0 1
    outer loop
      vertex 0 20 10
      vertex 15.9121 1.39724 10
      vertex 30 20 10
    endloop
  endfacet
  facet normal 0 0 1
    outer loop
      vertex 15.9121 1.39724 10
      vertex 0 20 10
      vertex 15.8245 1.38896 10
    endloop
  endfacet
  facet normal 0 0 1
    outer loop
      vertex 15.8245 1.38896 10
      vertex 0 20 10
      vertex 15.7377 1.3752 10
    endloop
  endfacet
  facet normal 0 0 1
    outer loop
      vertex 15.7377 1.3752 10
      vertex 0 20 10
      vertex 15.6518 1.35602 10
    endloop
  endfacet
  facet normal 0 0 1
    outer loop
      vertex 15.6518 1.35602 10
      vertex 0 20 10
      vertex 15.5674 1.33148 10
    endloop
  endfacet
  facet normal 0 0 1
    outer loop
      vertex 15.5674 1.33148 10
      vertex 0 20 10
      vertex 15.4846 1.30169 10
    endloop
  endfacet
  facet normal 0 0 1
    outer loop
      vertex 15.4846 1.30169 10
      vertex 0 20 10
      vertex 15.4039 1.26676 10
    endloop
  endfacet
  facet normal 0 0 1
    outer loop
      vertex 15.4039 1.26676 10
      vertex 0 20 10
      vertex 15.3255 1.22683 10
    endloop
  endfacet
  facet normal 0 0 1
    outer loop
      vertex 15.3255 1.22683 10
      vertex 0 20 10
      vertex 15.2498 1.18206 10
    endloop
  endfacet
  facet normal 0 0 1
    outer loop
      vertex 15.2498 1.18206 10
      vertex 0 20 10
      vertex 15.1771 1.13262 10
    endloop
  endfacet
  facet normal 0 0 1
    outer loop
      vertex 15.1771 1.13262 10
      vertex 0 20 10
      vertex 15.1076 1.07872 10
    endloop
  endfacet
  facet normal 0 0 1
    outer loop
      vertex 15.1076 1.07872 10
      vertex 0 20 10
      vertex 15.0416 1.02056 10
    endloop
  endfacet
  facet normal 0 0 1
    outer loop
      vertex 0 0 10
      vertex 15.0416 1.02056 10
      vertex 0 20 10
    endloop
  endfacet
  facet normal 0 0 1
    outer loop
      vertex 15.0416 1.02056 10
      vertex 0 0 10
      vertex 14.9794 0.958365 10
    endloop
  endfacet
  facet normal 0 0 1
    outer loop
      vertex 14.9794 0.958365 10
      vertex 0 0 10
      vertex 14.9213 0.892393 10
    endloop
  endfacet
  facet normal 0 0 1
    outer loop
      vertex 14.9213 0.892393 10
      vertex 0 0 10
      vertex 14.8674 0.822899 10
    endloop
  endfacet
  facet normal 0 0 1
    outer loop
      vertex 14.8674 0.822899 10
      vertex 0 0 10
      vertex 14.8179 0.750157 10
    endloop
  endfacet
  facet normal 0 0 1
    outer loop
      vertex 14.8179 0.750157 10
      vertex 0 0 10
      vertex 14.7732 0.674455 10
    endloop
  endfacet
  facet normal 0 0 1
    outer loop
      vertex 14.7732 0.674455 10
      vertex 0 0 10
      vertex 14.7332 0.59609 10
    endloop
  endfacet
  facet normal 0 0 1
    outer loop
      vertex 14.7332 0.59609 10
      vertex 0 0 10
      vertex 14.6983 0.515374 10
    endloop
  endfacet
  facet normal 0 0 1
    outer loop
      vertex 14.6983 0.515374 10
      vertex 0 0 10
      vertex 14.6685 0.432623 10
    endloop
  endfacet
  facet normal 0 0 1
    outer loop
      vertex 14.6685 0.432623 10
      vertex 0 0 10
      vertex 14.644 0.348166 10
    endloop
  endfacet
  facet normal 0 0 1
    outer loop
      vertex 14.644 0.348166 10
      vertex 0 0 10
      vertex 14.6248 0.262333 10
    endloop
  endfacet
  facet normal 0 0 1
    outer loop
      vertex 14.6248 0.262333 10
      vertex 0 0 10
      vertex 14.611 0.175466 10
    endloop
  endfacet
  facet normal 0 0 1
    outer loop
      vertex 14.611 0.175466 10
      vertex 0 0 10
      vertex 14.6028 0.0879059 10
    endloop
  endfacet
  facet normal 0 0 1
    outer loop
      vertex 14.6028 0.0879059 10
      vertex 0 0 10
      vertex 14.6 0 10
    endloop
  endfacet
  facet normal 0 0 -1
    outer loop
      vertex 17.3972 0.0879059 0
      vertex 30 0 0
      vertex 17.4 0 0
    endloop
  endfacet
  facet normal 0 0 -1
    outer loop
      vertex 17.389 0.175466 0
      vertex 30 0 0
      vertex 17.3972 0.0879059 0
    endloop
  endfacet
  facet normal 0 0 -1
    outer loop
      vertex 17.3752 0.262333 0
      vertex 30 0 0
      vertex 17.389 0.175466 0
    endloop
  endfacet
  facet normal 0 0 -1
    outer loop
      vertex 17.356 0.348166 0
      vertex 30 0 0
      vertex 17.3752 0.262333 0
    endloop
  endfacet
  facet normal 0 0 -1
    outer loop
      vertex 17.3315 0.432623 0
      vertex 30 0 0
      vertex 17.356 0.348166 0
    endloop
  endfacet
  facet normal 0 0 -1
    outer loop
      vertex 17.3017 0.515374 0
      vertex 30 0 0
      vertex 17.3315 0.432623 0
    endloop
  endfacet
  facet normal 0 0 -1
    outer loop
      vertex 17.2668 0.59609 0
      vertex 30 0 0
      vertex 17.3017 0.515374 0
    endloop
  endfacet
  facet normal 0 0 -1
    outer loop
      vertex 17.2268 0.674455 0
      vertex 30 0 0
      vertex 17.2668 0.59609 0
    endloop
  endfacet
  facet normal 0 0 -1
    outer loop
      vertex 17.1821 0.750157 0
      vertex 30 0 0
      vertex 17.2268 0.674455 0
    endloop
  endfacet
  facet normal 0 0 -1
    outer loop
      vertex 17.1326 0.822899 0
      vertex 30 0 0
      vertex 17.1821 0.750157 0
    endloop
  endfacet
  facet normal 0 0 -1
    outer loop
      vertex 17.0787 0.892393 0
      vertex 30 0 0
      vertex 17.1326 0.822899 0
    endloop
  endfacet
  facet normal 0 0 -1
    outer loop
      vertex 17.0206 0.958365 0
      vertex 30 0 0
      vertex 17.0787 0.892393 0
    endloop
  endfacet
  facet normal 0 0 -1
    outer loop
      vertex 16.9584 1.02056 0
      vertex 30 0 0
      vertex 17.0206 0.958365 0
    endloop
  endfacet
  facet normal 0 0 -1
    outer loop
      vertex 16.8924 1.07872 0
      vertex 30 0 0
      vertex 16.9584 1.02056 0
    endloop
  endfacet
  facet normal 0 0 -1
    outer loop
      vertex 30 0 0
      vertex 16.8924 1.07872 0
      vertex 30 20 0
    endloop
  endfacet
  facet normal 0 0 -1
    outer loop
      vertex 16.8229 1.13262 0
      vertex 30 20 0
      vertex 16.8924 1.07872 0
    endloop
  endfacet
  facet normal 0 0 -1
    outer loop
      vertex 16.7502 1.18206 0
      vertex 30 20 0
      vertex 16.8229 1.13262 0
    endloop
  endfacet
  facet normal 0 0 -1
    outer loop
      vertex 16.6745 1.22683 0
      vertex 30 20 0
      vertex 16.7502 1.18206 0
    endloop
  endfacet
  facet normal 0 0 -1
    outer loop
      vertex 16.5961 1.26676 0
      vertex 30 20 0
      vertex 16.6745 1.22683 0
    endloop
  endfacet
  facet normal 0 0 -1
    outer loop
      vertex 16.5154 1.30169 0
      vertex 30 20 0
      vertex 16.5961 1.26676 0
    endloop
  endfacet
  facet normal 0 0 -1
    outer loop
      vertex 16.4326 1.33148 0
      vertex 30 20 0
      vertex 16.5154 1.30169 0
    endloop
  endfacet
  facet normal 0 0 -1
    outer loop
      vertex 16.3482 1.35602 0
      vertex 30 20 0
      vertex 16.4326 1.33148 0
    endloop
  endfacet
  facet normal 0 0 -1
    outer loop
      vertex 16.2623 1.3752 0
      vertex 30 20 0
      vertex 16.3482 1.35602 0
    endloop
  endfacet
  facet normal 0 0 -1
    outer loop
      vertex 16.1755 1.38896 0
      vertex 30 20 0
      vertex 16.2623 1.3752 0
    endloop
  endfacet
  facet normal 0 0 -1
    outer loop
      vertex 16.0879 1.39724 0
      vertex 30 20 0
      vertex 16.1755 1.38896 0
    endloop
  endfacet
  facet normal 0 0 -1
    outer loop
      vertex 16 1.4 0
      vertex 30 20 0
      vertex 16.0879 1.39724 0
    endloop
  endfacet
  facet normal 0 0 -1
    outer loop
      vertex 15.9121 1.39724 0
      vertex 30 20 0
      vertex 16 1.4 0
    endloop
  endfacet
  facet normal 0 0 -1
    outer loop
      vertex 0 20 0
      vertex 15.9121 1.39724 0
      vertex 15.8245 1.38896 0
    endloop
  endfacet
  facet normal 0 0 -1
    outer loop
      vertex 0 20 0
      vertex 15.8245 1.38896 0
      vertex 15.7377 1.3752 0
    endloop
  endfacet
  facet normal 0 0 -1
    outer loop
      vertex 0 20 0
      vertex 15.7377 1.3752 0
      vertex 15.6518 1.35602 0
    endloop
  endfacet
  facet normal 0 0 -1
    outer loop
      vertex 0 20 0
      vertex 15.6518 1.35602 0
      vertex 15.5674 1.33148 0
    endloop
  endfacet
  facet normal 0 0 -1
    outer loop
      vertex 0 20 0
      vertex 15.5674 1.33148 0
      vertex 15.4846 1.30169 0
    endloop
  endfacet
  facet normal 0 0 -1
    outer loop
      vertex 0 20 0
      vertex 15.4846 1.30169 0
      vertex 15.4039 1.26676 0
    endloop
  endfacet
  facet normal 0 0 -1
    outer loop
      vertex 0 20 0
      vertex 15.4039 1.26676 0
      vertex 15.3255 1.22683 0
    endloop
  endfacet
  facet normal 0 0 -1
    outer loop
      vertex 0 20 0
      vertex 15.3255 1.22683 0
      vertex 15.2498 1.18206 0
    endloop
  endfacet
  facet normal 0 0 -1
    outer loop
      vertex 0 20 0
      vertex 15.2498 1.18206 0
      vertex 15.1771 1.13262 0
    endloop
  endfacet
  facet normal 0 0 -1
    outer loop
      vertex 0 20 0
      vertex 15.1771 1.13262 0
      vertex 15.1076 1.07872 0
    endloop
  endfacet
  facet normal 0 0 -1
    outer loop
      vertex 0 20 0
      vertex 15.1076 1.07872 0
      vertex 15.0416 1.02056 0
    endloop
  endfacet
  facet normal 0 0 -1
    outer loop
      vertex 0 0 0
      vertex 15.0416 1.02056 0
      vertex 14.9794 0.958365 0
    endloop
  endfacet
  facet normal 0 0 -1
    outer loop
      vertex 0 0 0
      vertex 14.9794 0.958365 0
      vertex 14.9213 0.892393 0
    endloop
  endfacet
  facet normal 0 0 -1
    outer loop
      vertex 0 0 0
      vertex 14.6028 0.0879059 0
      vertex 14.6 0 0
    endloop
  endfacet
  facet normal 0 0 -1
    outer loop
      vertex 0 0 0
      vertex 14.611 0.175466 0
      vertex 14.6028 0.0879059 0
    endloop
  endfacet
  facet normal 0 0 -1
    outer loop
      vertex 0 0 0
      vertex 14.6248 0.262333 0
      vertex 14.611 0.175466 0
    endloop
  endfacet
  facet normal 0 0 -1
    outer loop
      vertex 0 0 0
      vertex 14.644 0.348166 0
      vertex 14.6248 0.262333 0
    endloop
  endfacet
  facet normal 0 0 -1
    outer loop
      vertex 0 0 0
      vertex 14.6685 0.432623 0
      vertex 14.644 0.348166 0
    endloop
  endfacet
  facet normal 0 0 -1
    outer loop
      vertex 0 0 0
      vertex 14.6983 0.515374 0
      vertex 14.6685 0.432623 0
    endloop
  endfacet
  facet normal 0 0 -1
    outer loop
      vertex 0 0 0
      vertex 14.7332 0.59609 0
      vertex 14.6983 0.515374 0
    endloop
  endfacet
  facet normal 0 0 -1
    outer loop
      vertex 0 0 0
      vertex 14.7732 0.674455 0
      vertex 14.7332 0.59609 0
    endloop
  endfacet
  facet normal 0 0 -1
    outer loop
      vertex 0 0 0
      vertex 14.8179 0.750157 0
      vertex 14.7732 0.674455 0
    endloop
  endfacet
  facet normal 0 0 -1
    outer loop
      vertex 0 0 0
      vertex 14.8674 0.822899 0
      vertex 14.8179 0.750157 0
    endloop
  endfacet
  facet normal 0 0 -1
    outer loop
      vertex 0 0 0
      vertex 14.9213 0.892393 0
      vertex 14.8674 0.822899 0
    endloop
  endfacet
  facet normal -0 0 -1
    outer loop
      vertex 15.0416 1.02056 0
      vertex 0 0 0
      vertex 0 20 0
    endloop
  endfacet
  facet normal 0 0 -1
    outer loop
      vertex 15.9121 1.39724 0
      vertex 0 20 0
      vertex 30 20 0
    endloop
  endfacet
  facet normal -1 0 0
    outer loop
      vertex 0 0 0
      vertex 0 20 10
      vertex 0 20 0
    endloop
  endfacet
  facet normal -1 -0 0
    outer loop
      vertex 0 20 10
      vertex 0 0 0
      vertex 0 0 10
    endloop
  endfacet
  facet normal 0 1 0
    outer loop
      vertex 30 20 10
      vertex 9 20 7.53477
      vertex 0 20 10
    endloop
  endfacet
  facet normal 0 1 0
    outer loop
      vertex 30 20 10
      vertex 9 20 2.46523
      vertex 9 20 7.53477
    endloop
  endfacet
  facet normal 0 1 0
    outer loop
      vertex 0 20 0
      vertex 9 20 2.46523
      vertex 30 20 0
    endloop
  endfacet
  facet normal 0 1 -0
    outer loop
      vertex 30 20 0
      vertex 9 20 2.46523
      vertex 30 20 10
    endloop
  endfacet
  facet normal 0 1 -0
    outer loop
      vertex 6 20 7.53477
      vertex 0 20 10
      vertex 9 20 7.53477
    endloop
  endfacet
  facet normal 0 1 -0
    outer loop
      vertex 6 20 2.46523
      vertex 0 20 10
      vertex 6 20 7.53477
    endloop
  endfacet
  facet normal 0 1 0
    outer loop
      vertex 6 20 2.46523
      vertex 0 20 0
      vertex 0 20 10
    endloop
  endfacet
  facet normal 0 1 0
    outer loop
      vertex 9 20 2.46523
      vertex 0 20 0
      vertex 6 20 2.46523
    endloop
  endfacet
  facet normal 0 -1 0
    outer loop
      vertex 0 0 0
      vertex 14.6 0 10
      vertex 0 0 10
    endloop
  endfacet
  facet normal 0 -1 -0
    outer loop
      vertex 14.6 0 10
      vertex 0 0 0
      vertex 14.6 0 0
    endloop
  endfacet
  facet normal 0 -1 0
    outer loop
      vertex 17.4 0 0
      vertex 30 0 10
      vertex 17.4 0 10
    endloop
  endfacet
  facet normal 0 -1 -0
    outer loop
      vertex 30 0 10
      vertex 17.4 0 0
      vertex 30 0 0
    endloop
  endfacet
endsolid OpenSCAD_Model
