solid OpenSCAD_Model
  facet normal 1 -0 0
    outer loop
      vertex 5.115 -4.175 5.9
      vertex 5.115 4.175 0
      vertex 5.115 4.175 5.9
    endloop
  endfacet
  facet normal 1 0 0
    outer loop
      vertex 5.115 4.175 0
      vertex 5.115 -4.175 5.9
      vertex 5.115 -4.175 0
    endloop
  endfacet
  facet normal 0 0 1
    outer loop
      vertex 5.115 4.175 5.9
      vertex 4.63035 0 5.9
      vertex 5.115 -4.175 5.9
    endloop
  endfacet
  facet normal 0 0 1
    outer loop
      vertex 5.115 4.175 5.9
      vertex 2.31517 4.01 5.9
      vertex 4.63035 0 5.9
    endloop
  endfacet
  facet normal 0 0 1
    outer loop
      vertex 5.115 4.175 5.9
      vertex -2.31517 4.01 5.9
      vertex 2.31517 4.01 5.9
    endloop
  endfacet
  facet normal 0 0 1
    outer loop
      vertex -2.31517 4.01 5.9
      vertex -5.115 4.175 5.9
      vertex -4.63035 0 5.9
    endloop
  endfacet
  facet normal -0 0 1
    outer loop
      vertex -5.115 4.175 5.9
      vertex -2.31517 4.01 5.9
      vertex 5.115 4.175 5.9
    endloop
  endfacet
  facet normal -0 0 1
    outer loop
      vertex 2.31517 -4.01 5.9
      vertex 5.115 -4.175 5.9
      vertex 4.63035 0 5.9
    endloop
  endfacet
  facet normal -0 0 1
    outer loop
      vertex -2.31517 -4.01 5.9
      vertex 5.115 -4.175 5.9
      vertex 2.31517 -4.01 5.9
    endloop
  endfacet
  facet normal 0 0 1
    outer loop
      vertex -2.31517 -4.01 5.9
      vertex -5.115 -4.175 5.9
      vertex 5.115 -4.175 5.9
    endloop
  endfacet
  facet normal 0 0 1
    outer loop
      vertex -4.63035 0 5.9
      vertex -5.115 -4.175 5.9
      vertex -2.31517 -4.01 5.9
    endloop
  endfacet
  facet normal 0 0 1
    outer loop
      vertex -5.115 -4.175 5.9
      vertex -4.63035 0 5.9
      vertex -5.115 4.175 5.9
    endloop
  endfacet
  facet normal 0 0 -1
    outer loop
      vertex 5.115 -4.175 0
      vertex 4.63035 0 0
      vertex 5.115 4.175 0
    endloop
  endfacet
  facet normal 0 0 -1
    outer loop
      vertex 5.115 -4.175 0
      vertex 2.31517 -4.01 0
      vertex 4.63035 0 0
    endloop
  endfacet
  facet normal 0 0 -1
    outer loop
      vertex 5.115 -4.175 0
      vertex -2.31517 -4.01 0
      vertex 2.31517 -4.01 0
    endloop
  endfacet
  facet normal -0 0 -1
    outer loop
      vertex -2.31517 -4.01 0
      vertex -5.115 -4.175 0
      vertex -4.63035 0 0
    endloop
  endfacet
  facet normal 0 0 -1
    outer loop
      vertex -5.115 -4.175 0
      vertex -2.31517 -4.01 0
      vertex 5.115 -4.175 0
    endloop
  endfacet
  facet normal 0 0 -1
    outer loop
      vertex 2.31517 4.01 0
      vertex 5.115 4.175 0
      vertex 4.63035 0 0
    endloop
  endfacet
  facet normal 0 0 -1
    outer loop
      vertex -2.31517 4.01 0
      vertex 5.115 4.175 0
      vertex 2.31517 4.01 0
    endloop
  endfacet
  facet normal 0 0 -1
    outer loop
      vertex -2.31517 4.01 0
      vertex -5.115 4.175 0
      vertex 5.115 4.175 0
    endloop
  endfacet
  facet normal 0 0 -1
    outer loop
      vertex -4.63035 0 0
      vertex -5.115 4.175 0
      vertex -2.31517 4.01 0
    endloop
  endfacet
  facet normal 0 0 -1
    outer loop
      vertex -5.115 4.175 0
      vertex -4.63035 0 0
      vertex -5.115 -4.175 0
    endloop
  endfacet
  facet normal -1 0 0
    outer loop
      vertex -5.115 -4.175 0
      vertex -5.115 4.175 5.9
      vertex -5.115 4.175 0
    endloop
  endfacet
  facet normal -1 -0 0
    outer loop
      vertex -5.115 4.175 5.9
      vertex -5.115 -4.175 0
      vertex -5.115 -4.175 5.9
    endloop
  endfacet
  facet normal 0 1 -0
    outer loop
      vertex 5.115 4.175 0
      vertex -5.115 4.175 5.9
      vertex 5.115 4.175 5.9
    endloop
  endfacet
  facet normal 0 1 0
    outer loop
      vertex -5.115 4.175 5.9
      vertex 5.115 4.175 0
      vertex -5.115 4.175 0
    endloop
  endfacet
  facet normal 0 -1 0
    outer loop
      vertex -5.115 -4.175 0
      vertex 5.115 -4.175 5.9
      vertex -5.115 -4.175 5.9
    endloop
  endfacet
  facet normal 0 -1 -0
    outer loop
      vertex 5.115 -4.175 5.9
      vertex -5.115 -4.175 0
      vertex 5.115 -4.175 0
    endloop
  endfacet
  facet normal 0 1 -0
    outer loop
      vertex 2.31517 -4.01 0
      vertex -2.31517 -4.01 5.9
      vertex 2.31517 -4.01 5.9
    endloop
  endfacet
  facet normal 0 1 0
    outer loop
      vertex -2.31517 -4.01 5.9
      vertex 2.31517 -4.01 0
      vertex -2.31517 -4.01 0
    endloop
  endfacet
  facet normal -0.866025 0.500001 1.63973e-17
    outer loop
      vertex 2.31517 -4.01 0
      vertex 4.63035 0 5.9
      vertex 4.63035 0 0
    endloop
  endfacet
  facet normal -0.866025 0.500001 1.63973e-17
    outer loop
      vertex 4.63035 0 5.9
      vertex 2.31517 -4.01 0
      vertex 2.31517 -4.01 5.9
    endloop
  endfacet
  facet normal 0 -1 0
    outer loop
      vertex -2.31517 4.01 0
      vertex 2.31517 4.01 5.9
      vertex -2.31517 4.01 5.9
    endloop
  endfacet
  facet normal 0 -1 -0
    outer loop
      vertex 2.31517 4.01 5.9
      vertex -2.31517 4.01 0
      vertex 2.31517 4.01 0
    endloop
  endfacet
  facet normal -0.866025 -0.500001 -1.63973e-17
    outer loop
      vertex 4.63035 0 0
      vertex 2.31517 4.01 5.9
      vertex 2.31517 4.01 0
    endloop
  endfacet
  facet normal -0.866025 -0.500001 -1.63973e-17
    outer loop
      vertex 2.31517 4.01 5.9
      vertex 4.63035 0 0
      vertex 4.63035 0 5.9
    endloop
  endfacet
  facet normal 0.866025 -0.500001 1.63973e-17
    outer loop
      vertex -4.63035 0 5.9
      vertex -2.31517 4.01 0
      vertex -2.31517 4.01 5.9
    endloop
  endfacet
  facet normal 0.866025 -0.500001 1.63973e-17
    outer loop
      vertex -2.31517 4.01 0
      vertex -4.63035 0 5.9
      vertex -4.63035 0 0
    endloop
  endfacet
  facet normal 0.866025 0.500001 -1.63973e-17
    outer loop
      vertex -2.31517 -4.01 5.9
      vertex -4.63035 0 0
      vertex -4.63035 0 5.9
    endloop
  endfacet
  facet normal 0.866025 0.500001 -1.63973e-17
    outer loop
      vertex -4.63035 0 0
      vertex -2.31517 -4.01 5.9
      vertex -2.31517 -4.01 0
    endloop
  endfacet
endsolid OpenSCAD_Model
