solid OpenSCAD_Model
  facet normal 1 -0 0
    outer loop
      vertex 5.115 -4.175 10
      vertex 5.115 4.175 0
      vertex 5.115 4.175 10
    endloop
  endfacet
  facet normal 1 0 0
    outer loop
      vertex 5.115 4.175 0
      vertex 5.115 -4.175 10
      vertex 5.115 -4.175 0
    endloop
  endfacet
  facet normal -0 0 1
    outer loop
      vertex -5.115 4.175 10
      vertex 5.115 -4.175 10
      vertex 5.115 4.175 10
    endloop
  endfacet
  facet normal 0 0 1
    outer loop
      vertex 5.115 -4.175 10
      vertex -5.115 4.175 10
      vertex -5.115 -4.175 10
    endloop
  endfacet
  facet normal 0 0 -1
    outer loop
      vertex -5.115 -4.175 0
      vertex 5.115 4.175 0
      vertex 5.115 -4.175 0
    endloop
  endfacet
  facet normal -0 0 -1
    outer loop
      vertex 5.115 4.175 0
      vertex -5.115 -4.175 0
      vertex -5.115 4.175 0
    endloop
  endfacet
  facet normal -1 0 0
    outer loop
      vertex -5.115 -4.175 0
      vertex -5.115 4.175 10
      vertex -5.115 4.175 0
    endloop
  endfacet
  facet normal -1 -0 0
    outer loop
      vertex -5.115 4.175 10
      vertex -5.115 -4.175 0
      vertex -5.115 -4.175 10
    endloop
  endfacet
  facet normal 0 1 -0
    outer loop
      vertex 5.115 4.175 0
      vertex -5.115 4.175 10
      vertex 5.115 4.175 10
    endloop
  endfacet
  facet normal 0 1 0
    outer loop
      vertex -5.115 4.175 10
      vertex 5.115 4.175 0
      vertex -5.115 4.175 0
    endloop
  endfacet
  facet normal 0 -1 0
    outer loop
      vertex -5.115 -4.175 0
      vertex 5.115 -4.175 10
      vertex -5.115 -4.175 10
    endloop
  endfacet
  facet normal 0 -1 -0
    outer loop
      vertex 5.115 -4.175 10
      vertex -5.115 -4.175 0
      vertex 5.115 -4.175 0
    endloop
  endfacet
  facet normal 0 1 -0
    outer loop
      vertex 2.31517 -4.01 0.95
      vertex -2.31517 -4.01 9.05
      vertex 2.31517 -4.01 9.05
    endloop
  endfacet
  facet normal 0 1 0
    outer loop
      vertex -2.31517 -4.01 9.05
      vertex 2.31517 -4.01 0.95
      vertex -2.31517 -4.01 0.95
    endloop
  endfacet
  facet normal -0.866025 0.500001 1.19437e-17
    outer loop
      vertex 2.31517 -4.01 0.95
      vertex 4.63035 0 9.05
      vertex 4.63035 0 0.95
    endloop
  endfacet
  facet normal -0.866025 0.500001 1.19437e-17
    outer loop
      vertex 4.63035 0 9.05
      vertex 2.31517 -4.01 0.95
      vertex 2.31517 -4.01 9.05
    endloop
  endfacet
  facet normal 0 -1 0
    outer loop
      vertex -2.31517 4.01 0.95
      vertex 2.31517 4.01 9.05
      vertex -2.31517 4.01 9.05
    endloop
  endfacet
  facet normal 0 -1 -0
    outer loop
      vertex 2.31517 4.01 9.05
      vertex -2.31517 4.01 0.95
      vertex 2.31517 4.01 0.95
    endloop
  endfacet
  facet normal -0.866025 -0.500001 -1.19437e-17
    outer loop
      vertex 4.63035 0 0.95
      vertex 2.31517 4.01 9.05
      vertex 2.31517 4.01 0.95
    endloop
  endfacet
  facet normal -0.866025 -0.500001 -1.19437e-17
    outer loop
      vertex 2.31517 4.01 9.05
      vertex 4.63035 0 0.95
      vertex 4.63035 0 9.05
    endloop
  endfacet
  facet normal 0.866025 -0.500001 1.19437e-17
    outer loop
      vertex -4.63035 0 9.05
      vertex -2.31517 4.01 0.95
      vertex -2.31517 4.01 9.05
    endloop
  endfacet
  facet normal 0.866025 -0.500001 1.19437e-17
    outer loop
      vertex -2.31517 4.01 0.95
      vertex -4.63035 0 9.05
      vertex -4.63035 0 0.95
    endloop
  endfacet
  facet normal 0.866025 0.500001 -1.19437e-17
    outer loop
      vertex -2.31517 -4.01 9.05
      vertex -4.63035 0 0.95
      vertex -4.63035 0 9.05
    endloop
  endfacet
  facet normal 0.866025 0.500001 -1.19437e-17
    outer loop
      vertex -4.63035 0 0.95
      vertex -2.31517 -4.01 9.05
      vertex -2.31517 -4.01 0.95
    endloop
  endfacet
  facet normal 0 0 -1
    outer loop
      vertex 2.31517 -4.01 9.05
      vertex 2.31517 4.01 9.05
      vertex 4.63035 0 9.05
    endloop
  endfacet
  facet normal 0 0 -1
    outer loop
      vertex -2.31517 -4.01 9.05
      vertex 2.31517 4.01 9.05
      vertex 2.31517 -4.01 9.05
    endloop
  endfacet
  facet normal 0 0 -1
    outer loop
      vertex -2.31517 -4.01 9.05
      vertex -2.31517 4.01 9.05
      vertex 2.31517 4.01 9.05
    endloop
  endfacet
  facet normal 0 -0 -1
    outer loop
      vertex -2.31517 4.01 9.05
      vertex -2.31517 -4.01 9.05
      vertex -4.63035 0 9.05
    endloop
  endfacet
  facet normal 0 0 1
    outer loop
      vertex 2.31517 4.01 0.95
      vertex 2.31517 -4.01 0.95
      vertex 4.63035 0 0.95
    endloop
  endfacet
  facet normal -0 0 1
    outer loop
      vertex -2.31517 4.01 0.95
      vertex 2.31517 -4.01 0.95
      vertex 2.31517 4.01 0.95
    endloop
  endfacet
  facet normal 0 0 1
    outer loop
      vertex -2.31517 4.01 0.95
      vertex -2.31517 -4.01 0.95
      vertex 2.31517 -4.01 0.95
    endloop
  endfacet
  facet normal 0 -0 1
    outer loop
      vertex -2.31517 -4.01 0.95
      vertex -2.31517 4.01 0.95
      vertex -4.63035 0 0.95
    endloop
  endfacet
endsolid OpenSCAD_Model
