solid OpenSCAD_Model
  facet normal -0.995563 -0.0941012 -4.67662e-20
    outer loop
      vertex 0.948125 0.0596504 0
      vertex 0.942509 0.119066 9
      vertex 0.942509 0.119066 0
    endloop
  endfacet
  facet normal -0.995563 -0.0941012 -4.67662e-20
    outer loop
      vertex 0.942509 0.119066 9
      vertex 0.948125 0.0596504 0
      vertex 0.948125 0.0596504 9
    endloop
  endfacet
  facet normal -0.999506 -0.0314176 5.95946e-21
    outer loop
      vertex 0.95 0 0
      vertex 0.948125 0.0596504 9
      vertex 0.948125 0.0596504 0
    endloop
  endfacet
  facet normal -0.999506 -0.0314176 5.95946e-21
    outer loop
      vertex 0.948125 0.0596504 9
      vertex 0.95 0 0
      vertex 0.95 0 9
    endloop
  endfacet
  facet normal -0.750107 -0.661316 -1.73161e-19
    outer loop
      vertex 0.731987 0.605553 0
      vertex 0.69252 0.650319 9
      vertex 0.69252 0.650319 0
    endloop
  endfacet
  facet normal -0.750107 -0.661316 -1.73161e-19
    outer loop
      vertex 0.69252 0.650319 9
      vertex 0.731987 0.605553 0
      vertex 0.731987 0.605553 9
    endloop
  endfacet
  facet normal -0.562083 -0.827081 0
    outer loop
      vertex 0.509035 0.802111 0
      vertex 0.558395 0.768566 9
      vertex 0.509035 0.802111 9
    endloop
  endfacet
  facet normal -0.562083 -0.827081 -0
    outer loop
      vertex 0.558395 0.768566 9
      vertex 0.509035 0.802111 0
      vertex 0.558395 0.768566 0
    endloop
  endfacet
  facet normal -0.827081 -0.562083 4.64714e-20
    outer loop
      vertex 0.802111 0.509035 0
      vertex 0.768566 0.558395 9
      vertex 0.768566 0.558395 0
    endloop
  endfacet
  facet normal -0.827081 -0.562083 4.64714e-20
    outer loop
      vertex 0.768566 0.558395 9
      vertex 0.802111 0.509035 0
      vertex 0.802111 0.509035 9
    endloop
  endfacet
  facet normal -0.860743 -0.50904 -2.12617e-20
    outer loop
      vertex 0.832491 0.457665 0
      vertex 0.802111 0.509035 9
      vertex 0.802111 0.509035 0
    endloop
  endfacet
  facet normal -0.860743 -0.50904 -2.12617e-20
    outer loop
      vertex 0.802111 0.509035 9
      vertex 0.832491 0.457665 0
      vertex 0.832491 0.457665 9
    endloop
  endfacet
  facet normal -0.50904 -0.860743 0
    outer loop
      vertex 0.457665 0.832491 0
      vertex 0.509035 0.802111 9
      vertex 0.457665 0.832491 9
    endloop
  endfacet
  facet normal -0.50904 -0.860743 -0
    outer loop
      vertex 0.509035 0.802111 9
      vertex 0.457665 0.832491 0
      vertex 0.509035 0.802111 0
    endloop
  endfacet
  facet normal -0.960291 -0.279001 -8.21995e-20
    outer loop
      vertex 0.920154 0.236255 0
      vertex 0.903503 0.293566 9
      vertex 0.903503 0.293566 0
    endloop
  endfacet
  facet normal -0.960291 -0.279001 -8.21995e-20
    outer loop
      vertex 0.903503 0.293566 9
      vertex 0.920154 0.236255 0
      vertex 0.920154 0.236255 9
    endloop
  endfacet
  facet normal -0.21813 -0.97592 0
    outer loop
      vertex 0.178012 0.933172 0
      vertex 0.236255 0.920154 9
      vertex 0.178012 0.933172 9
    endloop
  endfacet
  facet normal -0.21813 -0.97592 -0
    outer loop
      vertex 0.236255 0.920154 9
      vertex 0.178012 0.933172 0
      vertex 0.236255 0.920154 0
    endloop
  endfacet
  facet normal -0.987686 -0.156449 3.83554e-20
    outer loop
      vertex 0.942509 0.119066 0
      vertex 0.933172 0.178012 9
      vertex 0.933172 0.178012 0
    endloop
  endfacet
  facet normal -0.987686 -0.156449 3.83554e-20
    outer loop
      vertex 0.933172 0.178012 9
      vertex 0.942509 0.119066 0
      vertex 0.942509 0.119066 9
    endloop
  endfacet
  facet normal -0.156449 -0.987686 0
    outer loop
      vertex 0.119066 0.942509 0
      vertex 0.178012 0.933172 9
      vertex 0.119066 0.942509 9
    endloop
  endfacet
  facet normal -0.156449 -0.987686 -0
    outer loop
      vertex 0.178012 0.933172 9
      vertex 0.119066 0.942509 0
      vertex 0.178012 0.933172 0
    endloop
  endfacet
  facet normal -0.917754 -0.397148 -1.65259e-19
    outer loop
      vertex 0.883287 0.349718 0
      vertex 0.859585 0.40449 9
      vertex 0.859585 0.40449 0
    endloop
  endfacet
  facet normal -0.917754 -0.397148 -1.65259e-19
    outer loop
      vertex 0.859585 0.40449 9
      vertex 0.883287 0.349718 0
      vertex 0.883287 0.349718 9
    endloop
  endfacet
  facet normal -0.891007 -0.45399 1.07259e-19
    outer loop
      vertex 0.859585 0.40449 0
      vertex 0.832491 0.457665 9
      vertex 0.832491 0.457665 0
    endloop
  endfacet
  facet normal -0.891007 -0.45399 1.07259e-19
    outer loop
      vertex 0.832491 0.457665 9
      vertex 0.859585 0.40449 0
      vertex 0.859585 0.40449 9
    endloop
  endfacet
  facet normal -0.612902 -0.790159 0
    outer loop
      vertex 0.558395 0.768566 0
      vertex 0.605553 0.731987 9
      vertex 0.558395 0.768566 9
    endloop
  endfacet
  facet normal -0.612902 -0.790159 -0
    outer loop
      vertex 0.605553 0.731987 9
      vertex 0.558395 0.768566 0
      vertex 0.605553 0.731987 0
    endloop
  endfacet
  facet normal -0.397148 -0.917754 0
    outer loop
      vertex 0.349718 0.883287 0
      vertex 0.40449 0.859585 9
      vertex 0.349718 0.883287 9
    endloop
  endfacet
  facet normal -0.397148 -0.917754 -0
    outer loop
      vertex 0.40449 0.859585 9
      vertex 0.349718 0.883287 0
      vertex 0.40449 0.859585 0
    endloop
  endfacet
  facet normal -0.661316 -0.750107 0
    outer loop
      vertex 0.605553 0.731987 0
      vertex 0.650319 0.69252 9
      vertex 0.605553 0.731987 9
    endloop
  endfacet
  facet normal -0.661316 -0.750107 -0
    outer loop
      vertex 0.650319 0.69252 9
      vertex 0.605553 0.731987 0
      vertex 0.650319 0.69252 0
    endloop
  endfacet
  facet normal -0.45399 -0.891007 0
    outer loop
      vertex 0.40449 0.859585 0
      vertex 0.457665 0.832491 9
      vertex 0.40449 0.859585 9
    endloop
  endfacet
  facet normal -0.45399 -0.891007 -0
    outer loop
      vertex 0.457665 0.832491 9
      vertex 0.40449 0.859585 0
      vertex 0.457665 0.832491 0
    endloop
  endfacet
  facet normal -0.97592 -0.21813 9.21309e-20
    outer loop
      vertex 0.933172 0.178012 0
      vertex 0.920154 0.236255 9
      vertex 0.920154 0.236255 0
    endloop
  endfacet
  facet normal -0.97592 -0.21813 9.21309e-20
    outer loop
      vertex 0.920154 0.236255 9
      vertex 0.933172 0.178012 0
      vertex 0.933172 0.178012 9
    endloop
  endfacet
  facet normal -0.707107 -0.707107 3.88061e-20
    outer loop
      vertex 0.69252 0.650319 0
      vertex 0.650319 0.69252 9
      vertex 0.650319 0.69252 0
    endloop
  endfacet
  facet normal -0.707107 -0.707107 3.88061e-20
    outer loop
      vertex 0.650319 0.69252 9
      vertex 0.69252 0.650319 0
      vertex 0.69252 0.650319 9
    endloop
  endfacet
  facet normal -0.940881 -0.338738 8.00514e-20
    outer loop
      vertex 0.903503 0.293566 0
      vertex 0.883287 0.349718 9
      vertex 0.883287 0.349718 0
    endloop
  endfacet
  facet normal -0.940881 -0.338738 8.00514e-20
    outer loop
      vertex 0.883287 0.349718 9
      vertex 0.903503 0.293566 0
      vertex 0.903503 0.293566 9
    endloop
  endfacet
  facet normal -0.0941012 -0.995563 0
    outer loop
      vertex 0.0596504 0.948125 0
      vertex 0.119066 0.942509 9
      vertex 0.0596504 0.948125 9
    endloop
  endfacet
  facet normal -0.0941012 -0.995563 -0
    outer loop
      vertex 0.119066 0.942509 9
      vertex 0.0596504 0.948125 0
      vertex 0.119066 0.942509 0
    endloop
  endfacet
  facet normal -0.338738 -0.940881 0
    outer loop
      vertex 0.293566 0.903503 0
      vertex 0.349718 0.883287 9
      vertex 0.293566 0.903503 9
    endloop
  endfacet
  facet normal -0.338738 -0.940881 -0
    outer loop
      vertex 0.349718 0.883287 9
      vertex 0.293566 0.903503 0
      vertex 0.349718 0.883287 0
    endloop
  endfacet
  facet normal -0.0314176 -0.999506 0
    outer loop
      vertex 0 0.95 0
      vertex 0.0596504 0.948125 9
      vertex 0 0.95 9
    endloop
  endfacet
  facet normal -0.0314176 -0.999506 -0
    outer loop
      vertex 0.0596504 0.948125 9
      vertex 0 0.95 0
      vertex 0.0596504 0.948125 0
    endloop
  endfacet
  facet normal -0.790159 -0.612902 -7.30978e-20
    outer loop
      vertex 0.768566 0.558395 0
      vertex 0.731987 0.605553 9
      vertex 0.731987 0.605553 0
    endloop
  endfacet
  facet normal -0.790159 -0.612902 -7.30978e-20
    outer loop
      vertex 0.731987 0.605553 9
      vertex 0.768566 0.558395 0
      vertex 0.768566 0.558395 9
    endloop
  endfacet
  facet normal -0.279001 -0.960291 0
    outer loop
      vertex 0.236255 0.920154 0
      vertex 0.293566 0.903503 9
      vertex 0.236255 0.920154 9
    endloop
  endfacet
  facet normal -0.279001 -0.960291 -0
    outer loop
      vertex 0.293566 0.903503 9
      vertex 0.236255 0.920154 0
      vertex 0.293566 0.903503 0
    endloop
  endfacet
  facet normal -0.987782 -0.155844 9.7348e-21
    outer loop
      vertex 15.9425 0.119066 0
      vertex 15.9332 0.178012 9
      vertex 15.9332 0.178012 0
    endloop
  endfacet
  facet normal -0.987782 -0.155844 9.7348e-21
    outer loop
      vertex 15.9332 0.178012 9
      vertex 15.9425 0.119066 0
      vertex 15.9425 0.119066 9
    endloop
  endfacet
  facet normal -0.995588 -0.0938355 -1.53586e-20
    outer loop
      vertex 15.9481 0.0596504 0
      vertex 15.9425 0.119066 9
      vertex 15.9425 0.119066 0
    endloop
  endfacet
  facet normal -0.995588 -0.0938355 -1.53586e-20
    outer loop
      vertex 15.9425 0.119066 9
      vertex 15.9481 0.0596504 0
      vertex 15.9481 0.0596504 9
    endloop
  endfacet
  facet normal -0.999493 -0.0318361 -3.70817e-21
    outer loop
      vertex 15.95 0 0
      vertex 15.9481 0.0596504 9
      vertex 15.9481 0.0596504 0
    endloop
  endfacet
  facet normal -0.999493 -0.0318361 -3.70817e-21
    outer loop
      vertex 15.9481 0.0596504 9
      vertex 15.95 0 0
      vertex 15.95 0 9
    endloop
  endfacet
  facet normal -0.789989 -0.613121 9.61047e-20
    outer loop
      vertex 15.7686 0.558395 0
      vertex 15.732 0.605553 9
      vertex 15.732 0.605553 0
    endloop
  endfacet
  facet normal -0.789989 -0.613121 9.61047e-20
    outer loop
      vertex 15.732 0.605553 9
      vertex 15.7686 0.558395 0
      vertex 15.7686 0.558395 9
    endloop
  endfacet
  facet normal -0.561772 -0.827292 0
    outer loop
      vertex 15.509 0.802111 0
      vertex 15.5584 0.768566 9
      vertex 15.509 0.802111 9
    endloop
  endfacet
  facet normal -0.561772 -0.827292 -0
    outer loop
      vertex 15.5584 0.768566 9
      vertex 15.509 0.802111 0
      vertex 15.5584 0.768566 0
    endloop
  endfacet
  facet normal 0.987782 -0.155844 -9.7348e-21
    outer loop
      vertex 14.0575 0.119066 9
      vertex 14.0668 0.178012 0
      vertex 14.0668 0.178012 9
    endloop
  endfacet
  facet normal 0.987782 -0.155844 -9.7348e-21
    outer loop
      vertex 14.0668 0.178012 0
      vertex 14.0575 0.119066 9
      vertex 14.0575 0.119066 0
    endloop
  endfacet
  facet normal -0.217926 -0.975965 0
    outer loop
      vertex 15.178 0.933172 0
      vertex 15.2363 0.920154 9
      vertex 15.178 0.933172 9
    endloop
  endfacet
  facet normal -0.217926 -0.975965 -0
    outer loop
      vertex 15.2363 0.920154 9
      vertex 15.178 0.933172 0
      vertex 15.2363 0.920154 0
    endloop
  endfacet
  facet normal 0.561772 -0.827292 0
    outer loop
      vertex 14.4416 0.768566 0
      vertex 14.491 0.802111 9
      vertex 14.4416 0.768566 9
    endloop
  endfacet
  facet normal 0.561772 -0.827292 0
    outer loop
      vertex 14.491 0.802111 9
      vertex 14.4416 0.768566 0
      vertex 14.491 0.802111 0
    endloop
  endfacet
  facet normal 0.995588 -0.0938355 1.53586e-20
    outer loop
      vertex 14.0519 0.0596504 9
      vertex 14.0575 0.119066 0
      vertex 14.0575 0.119066 9
    endloop
  endfacet
  facet normal 0.995588 -0.0938355 1.53586e-20
    outer loop
      vertex 14.0575 0.119066 0
      vertex 14.0519 0.0596504 9
      vertex 14.0519 0.0596504 0
    endloop
  endfacet
  facet normal 0.975984 -0.217842 9.40329e-20
    outer loop
      vertex 14.0668 0.178012 9
      vertex 14.0798 0.236255 0
      vertex 14.0798 0.236255 9
    endloop
  endfacet
  facet normal 0.975984 -0.217842 9.40329e-20
    outer loop
      vertex 14.0798 0.236255 0
      vertex 14.0668 0.178012 9
      vertex 14.0668 0.178012 0
    endloop
  endfacet
  facet normal 0.0313916 -0.999507 0
    outer loop
      vertex 14.9403 0.948125 0
      vertex 15 0.95 9
      vertex 14.9403 0.948125 9
    endloop
  endfacet
  facet normal 0.0313916 -0.999507 0
    outer loop
      vertex 15 0.95 9
      vertex 14.9403 0.948125 0
      vertex 15 0.95 0
    endloop
  endfacet
  facet normal -0.749833 -0.661627 -1.85716e-19
    outer loop
      vertex 15.732 0.605553 0
      vertex 15.6925 0.650319 9
      vertex 15.6925 0.650319 0
    endloop
  endfacet
  facet normal -0.749833 -0.661627 -1.85716e-19
    outer loop
      vertex 15.6925 0.650319 9
      vertex 15.732 0.605553 0
      vertex 15.732 0.605553 9
    endloop
  endfacet
  facet normal -0.860596 -0.509288 1.23183e-19
    outer loop
      vertex 15.8325 0.457665 0
      vertex 15.8021 0.509035 9
      vertex 15.8021 0.509035 0
    endloop
  endfacet
  facet normal -0.860596 -0.509288 1.23183e-19
    outer loop
      vertex 15.8021 0.509035 9
      vertex 15.8325 0.457665 0
      vertex 15.8325 0.457665 9
    endloop
  endfacet
  facet normal 0.156568 -0.987667 0
    outer loop
      vertex 14.822 0.933172 0
      vertex 14.8809 0.942509 9
      vertex 14.822 0.933172 9
    endloop
  endfacet
  facet normal 0.156568 -0.987667 0
    outer loop
      vertex 14.8809 0.942509 9
      vertex 14.822 0.933172 0
      vertex 14.8809 0.942509 0
    endloop
  endfacet
  facet normal 0.860596 -0.509288 -1.23183e-19
    outer loop
      vertex 14.1675 0.457665 9
      vertex 14.1979 0.509035 0
      vertex 14.1979 0.509035 9
    endloop
  endfacet
  facet normal 0.860596 -0.509288 -1.23183e-19
    outer loop
      vertex 14.1979 0.509035 0
      vertex 14.1675 0.457665 9
      vertex 14.1675 0.457665 0
    endloop
  endfacet
  facet normal 0.999493 -0.0318361 3.70817e-21
    outer loop
      vertex 14.05 0 9
      vertex 14.0519 0.0596504 0
      vertex 14.0519 0.0596504 9
    endloop
  endfacet
  facet normal 0.999493 -0.0318361 3.70817e-21
    outer loop
      vertex 14.0519 0.0596504 0
      vertex 14.05 0 9
      vertex 14.05 0 0
    endloop
  endfacet
  facet normal -0.827431 -0.561567 1.2555e-19
    outer loop
      vertex 15.8021 0.509035 0
      vertex 15.7686 0.558395 9
      vertex 15.7686 0.558395 0
    endloop
  endfacet
  facet normal -0.827431 -0.561567 1.2555e-19
    outer loop
      vertex 15.7686 0.558395 9
      vertex 15.8021 0.509035 0
      vertex 15.8021 0.509035 9
    endloop
  endfacet
  facet normal 0.612561 -0.790423 0
    outer loop
      vertex 14.3944 0.731987 0
      vertex 14.4416 0.768566 9
      vertex 14.3944 0.731987 9
    endloop
  endfacet
  facet normal 0.612561 -0.790423 0
    outer loop
      vertex 14.4416 0.768566 9
      vertex 14.3944 0.731987 0
      vertex 14.4416 0.768566 0
    endloop
  endfacet
  facet normal -0.960071 -0.279757 -3.46054e-22
    outer loop
      vertex 15.9202 0.236255 0
      vertex 15.9035 0.293566 9
      vertex 15.9035 0.293566 0
    endloop
  endfacet
  facet normal -0.960071 -0.279757 -3.46054e-22
    outer loop
      vertex 15.9035 0.293566 9
      vertex 15.9202 0.236255 0
      vertex 15.9202 0.236255 9
    endloop
  endfacet
  facet normal 0.940966 -0.338501 -1.38963e-19
    outer loop
      vertex 14.0965 0.293566 9
      vertex 14.1167 0.349718 0
      vertex 14.1167 0.349718 9
    endloop
  endfacet
  facet normal 0.940966 -0.338501 -1.38963e-19
    outer loop
      vertex 14.1167 0.349718 0
      vertex 14.0965 0.293566 9
      vertex 14.0965 0.293566 0
    endloop
  endfacet
  facet normal -0.396978 -0.917828 0
    outer loop
      vertex 15.3497 0.883287 0
      vertex 15.4045 0.859585 9
      vertex 15.3497 0.883287 9
    endloop
  endfacet
  facet normal -0.396978 -0.917828 -0
    outer loop
      vertex 15.4045 0.859585 9
      vertex 15.3497 0.883287 0
      vertex 15.4045 0.859585 0
    endloop
  endfacet
  facet normal -0.975984 -0.217842 -9.40329e-20
    outer loop
      vertex 15.9332 0.178012 0
      vertex 15.9202 0.236255 9
      vertex 15.9202 0.236255 0
    endloop
  endfacet
  facet normal -0.975984 -0.217842 -9.40329e-20
    outer loop
      vertex 15.9202 0.236255 9
      vertex 15.9332 0.178012 0
      vertex 15.9332 0.178012 9
    endloop
  endfacet
  facet normal 0.749833 -0.661627 1.85716e-19
    outer loop
      vertex 14.268 0.605553 9
      vertex 14.3075 0.650319 0
      vertex 14.3075 0.650319 9
    endloop
  endfacet
  facet normal 0.749833 -0.661627 1.85716e-19
    outer loop
      vertex 14.3075 0.650319 0
      vertex 14.268 0.605553 9
      vertex 14.268 0.605553 0
    endloop
  endfacet
  facet normal -0.917767 -0.39712 -9.24718e-20
    outer loop
      vertex 15.8833 0.349718 0
      vertex 15.8596 0.40449 9
      vertex 15.8596 0.40449 0
    endloop
  endfacet
  facet normal -0.917767 -0.39712 -9.24718e-20
    outer loop
      vertex 15.8596 0.40449 9
      vertex 15.8833 0.349718 0
      vertex 15.8833 0.349718 9
    endloop
  endfacet
  facet normal -0.890966 -0.45407 -1.73406e-19
    outer loop
      vertex 15.8596 0.40449 0
      vertex 15.8325 0.457665 9
      vertex 15.8325 0.457665 0
    endloop
  endfacet
  facet normal -0.890966 -0.45407 -1.73406e-19
    outer loop
      vertex 15.8325 0.457665 9
      vertex 15.8596 0.40449 0
      vertex 15.8596 0.40449 9
    endloop
  endfacet
  facet normal -0.509554 -0.860439 0
    outer loop
      vertex 15.4577 0.832491 0
      vertex 15.509 0.802111 9
      vertex 15.4577 0.832491 9
    endloop
  endfacet
  facet normal -0.509554 -0.860439 -0
    outer loop
      vertex 15.509 0.802111 9
      vertex 15.4577 0.832491 0
      vertex 15.509 0.802111 0
    endloop
  endfacet
  facet normal 0.339016 -0.94078 0
    outer loop
      vertex 14.6503 0.883287 0
      vertex 14.7064 0.903503 9
      vertex 14.6503 0.883287 9
    endloop
  endfacet
  facet normal 0.339016 -0.94078 0
    outer loop
      vertex 14.7064 0.903503 9
      vertex 14.6503 0.883287 0
      vertex 14.7064 0.903503 0
    endloop
  endfacet
  facet normal 0.827431 -0.561567 -1.2555e-19
    outer loop
      vertex 14.1979 0.509035 9
      vertex 14.2314 0.558395 0
      vertex 14.2314 0.558395 9
    endloop
  endfacet
  facet normal 0.827431 -0.561567 -1.2555e-19
    outer loop
      vertex 14.2314 0.558395 0
      vertex 14.1979 0.509035 9
      vertex 14.1979 0.509035 0
    endloop
  endfacet
  facet normal 0.27905 -0.960277 0
    outer loop
      vertex 14.7064 0.903503 0
      vertex 14.7637 0.920154 9
      vertex 14.7064 0.903503 9
    endloop
  endfacet
  facet normal 0.27905 -0.960277 0
    outer loop
      vertex 14.7637 0.920154 9
      vertex 14.7064 0.903503 0
      vertex 14.7637 0.920154 0
    endloop
  endfacet
  facet normal 0.217926 -0.975965 0
    outer loop
      vertex 14.7637 0.920154 0
      vertex 14.822 0.933172 9
      vertex 14.7637 0.920154 9
    endloop
  endfacet
  facet normal 0.217926 -0.975965 0
    outer loop
      vertex 14.822 0.933172 9
      vertex 14.7637 0.920154 0
      vertex 14.822 0.933172 0
    endloop
  endfacet
  facet normal -0.0313916 -0.999507 0
    outer loop
      vertex 15 0.95 0
      vertex 15.0597 0.948125 9
      vertex 15 0.95 9
    endloop
  endfacet
  facet normal -0.0313916 -0.999507 -0
    outer loop
      vertex 15.0597 0.948125 9
      vertex 15 0.95 0
      vertex 15.0597 0.948125 0
    endloop
  endfacet
  facet normal -0.707115 -0.707098 1.12137e-19
    outer loop
      vertex 15.6925 0.650319 0
      vertex 15.6503 0.69252 9
      vertex 15.6503 0.69252 0
    endloop
  endfacet
  facet normal -0.707115 -0.707098 1.12137e-19
    outer loop
      vertex 15.6503 0.69252 9
      vertex 15.6925 0.650319 0
      vertex 15.6925 0.650319 9
    endloop
  endfacet
  facet normal -0.339016 -0.94078 0
    outer loop
      vertex 15.2936 0.903503 0
      vertex 15.3497 0.883287 9
      vertex 15.2936 0.903503 9
    endloop
  endfacet
  facet normal -0.339016 -0.94078 -0
    outer loop
      vertex 15.3497 0.883287 9
      vertex 15.2936 0.903503 0
      vertex 15.3497 0.883287 0
    endloop
  endfacet
  facet normal -0.940966 -0.338501 1.38963e-19
    outer loop
      vertex 15.9035 0.293566 0
      vertex 15.8833 0.349718 9
      vertex 15.8833 0.349718 0
    endloop
  endfacet
  facet normal -0.940966 -0.338501 1.38963e-19
    outer loop
      vertex 15.8833 0.349718 9
      vertex 15.9035 0.293566 0
      vertex 15.9035 0.293566 9
    endloop
  endfacet
  facet normal 0.707115 -0.707098 -1.12137e-19
    outer loop
      vertex 14.3075 0.650319 9
      vertex 14.3497 0.69252 0
      vertex 14.3497 0.69252 9
    endloop
  endfacet
  facet normal 0.707115 -0.707098 -1.12137e-19
    outer loop
      vertex 14.3497 0.69252 0
      vertex 14.3075 0.650319 9
      vertex 14.3075 0.650319 0
    endloop
  endfacet
  facet normal 0.661865 -0.749623 0
    outer loop
      vertex 14.3497 0.69252 0
      vertex 14.3944 0.731987 9
      vertex 14.3497 0.69252 9
    endloop
  endfacet
  facet normal 0.661865 -0.749623 0
    outer loop
      vertex 14.3944 0.731987 9
      vertex 14.3497 0.69252 0
      vertex 14.3944 0.731987 0
    endloop
  endfacet
  facet normal -0.156568 -0.987667 0
    outer loop
      vertex 15.1191 0.942509 0
      vertex 15.178 0.933172 9
      vertex 15.1191 0.942509 9
    endloop
  endfacet
  facet normal -0.156568 -0.987667 -0
    outer loop
      vertex 15.178 0.933172 9
      vertex 15.1191 0.942509 0
      vertex 15.178 0.933172 0
    endloop
  endfacet
  facet normal 0.0941257 -0.99556 0
    outer loop
      vertex 14.8809 0.942509 0
      vertex 14.9403 0.948125 9
      vertex 14.8809 0.942509 9
    endloop
  endfacet
  facet normal 0.0941257 -0.99556 0
    outer loop
      vertex 14.9403 0.948125 9
      vertex 14.8809 0.942509 0
      vertex 14.9403 0.948125 0
    endloop
  endfacet
  facet normal -0.661865 -0.749623 0
    outer loop
      vertex 15.6056 0.731987 0
      vertex 15.6503 0.69252 9
      vertex 15.6056 0.731987 9
    endloop
  endfacet
  facet normal -0.661865 -0.749623 -0
    outer loop
      vertex 15.6503 0.69252 9
      vertex 15.6056 0.731987 0
      vertex 15.6503 0.69252 0
    endloop
  endfacet
  facet normal -0.453821 -0.891093 0
    outer loop
      vertex 15.4045 0.859585 0
      vertex 15.4577 0.832491 9
      vertex 15.4045 0.859585 9
    endloop
  endfacet
  facet normal -0.453821 -0.891093 -0
    outer loop
      vertex 15.4577 0.832491 9
      vertex 15.4045 0.859585 0
      vertex 15.4577 0.832491 0
    endloop
  endfacet
  facet normal 0.509554 -0.860439 0
    outer loop
      vertex 14.491 0.802111 0
      vertex 14.5423 0.832491 9
      vertex 14.491 0.802111 9
    endloop
  endfacet
  facet normal 0.509554 -0.860439 0
    outer loop
      vertex 14.5423 0.832491 9
      vertex 14.491 0.802111 0
      vertex 14.5423 0.832491 0
    endloop
  endfacet
  facet normal -0.612561 -0.790423 0
    outer loop
      vertex 15.5584 0.768566 0
      vertex 15.6056 0.731987 9
      vertex 15.5584 0.768566 9
    endloop
  endfacet
  facet normal -0.612561 -0.790423 -0
    outer loop
      vertex 15.6056 0.731987 9
      vertex 15.5584 0.768566 0
      vertex 15.6056 0.731987 0
    endloop
  endfacet
  facet normal 0.917767 -0.39712 9.24718e-20
    outer loop
      vertex 14.1167 0.349718 9
      vertex 14.1404 0.40449 0
      vertex 14.1404 0.40449 9
    endloop
  endfacet
  facet normal 0.917767 -0.39712 9.24718e-20
    outer loop
      vertex 14.1404 0.40449 0
      vertex 14.1167 0.349718 9
      vertex 14.1167 0.349718 0
    endloop
  endfacet
  facet normal 0.960071 -0.279757 3.46054e-22
    outer loop
      vertex 14.0798 0.236255 9
      vertex 14.0965 0.293566 0
      vertex 14.0965 0.293566 9
    endloop
  endfacet
  facet normal 0.960071 -0.279757 3.46054e-22
    outer loop
      vertex 14.0965 0.293566 0
      vertex 14.0798 0.236255 9
      vertex 14.0798 0.236255 0
    endloop
  endfacet
  facet normal -0.27905 -0.960277 0
    outer loop
      vertex 15.2363 0.920154 0
      vertex 15.2936 0.903503 9
      vertex 15.2363 0.920154 9
    endloop
  endfacet
  facet normal -0.27905 -0.960277 -0
    outer loop
      vertex 15.2936 0.903503 9
      vertex 15.2363 0.920154 0
      vertex 15.2936 0.903503 0
    endloop
  endfacet
  facet normal 0.890966 -0.45407 1.73406e-19
    outer loop
      vertex 14.1404 0.40449 9
      vertex 14.1675 0.457665 0
      vertex 14.1675 0.457665 9
    endloop
  endfacet
  facet normal 0.890966 -0.45407 1.73406e-19
    outer loop
      vertex 14.1675 0.457665 0
      vertex 14.1404 0.40449 9
      vertex 14.1404 0.40449 0
    endloop
  endfacet
  facet normal -0.0941257 -0.99556 0
    outer loop
      vertex 15.0597 0.948125 0
      vertex 15.1191 0.942509 9
      vertex 15.0597 0.948125 9
    endloop
  endfacet
  facet normal -0.0941257 -0.99556 -0
    outer loop
      vertex 15.1191 0.942509 9
      vertex 15.0597 0.948125 0
      vertex 15.1191 0.942509 0
    endloop
  endfacet
  facet normal 0.789989 -0.613121 -9.61047e-20
    outer loop
      vertex 14.2314 0.558395 9
      vertex 14.268 0.605553 0
      vertex 14.268 0.605553 9
    endloop
  endfacet
  facet normal 0.789989 -0.613121 -9.61047e-20
    outer loop
      vertex 14.268 0.605553 0
      vertex 14.2314 0.558395 9
      vertex 14.2314 0.558395 0
    endloop
  endfacet
  facet normal 0.396978 -0.917828 0
    outer loop
      vertex 14.5955 0.859585 0
      vertex 14.6503 0.883287 9
      vertex 14.5955 0.859585 9
    endloop
  endfacet
  facet normal 0.396978 -0.917828 0
    outer loop
      vertex 14.6503 0.883287 9
      vertex 14.5955 0.859585 0
      vertex 14.6503 0.883287 0
    endloop
  endfacet
  facet normal 0.453821 -0.891093 0
    outer loop
      vertex 14.5423 0.832491 0
      vertex 14.5955 0.859585 9
      vertex 14.5423 0.832491 9
    endloop
  endfacet
  facet normal 0.453821 -0.891093 0
    outer loop
      vertex 14.5955 0.859585 9
      vertex 14.5423 0.832491 0
      vertex 14.5955 0.859585 0
    endloop
  endfacet
  facet normal 1 -0 0
    outer loop
      vertex 24.2 0 9
      vertex 24.2 51.3 0
      vertex 24.2 51.3 9
    endloop
  endfacet
  facet normal 1 0 0
    outer loop
      vertex 24.2 51.3 0
      vertex 24.2 0 9
      vertex 24.2 0 0
    endloop
  endfacet
  facet normal -0 0 1
    outer loop
      vertex 15.2936 0.903503 9
      vertex 24.2 0 9
      vertex 24.2 51.3 9
    endloop
  endfacet
  facet normal 0 0 1
    outer loop
      vertex 24.2 0 9
      vertex 15.9481 0.0596504 9
      vertex 15.95 0 9
    endloop
  endfacet
  facet normal 0 0 1
    outer loop
      vertex 24.2 0 9
      vertex 15.9425 0.119066 9
      vertex 15.9481 0.0596504 9
    endloop
  endfacet
  facet normal 0 0 1
    outer loop
      vertex 24.2 0 9
      vertex 15.9332 0.178012 9
      vertex 15.9425 0.119066 9
    endloop
  endfacet
  facet normal 0 0 1
    outer loop
      vertex 24.2 0 9
      vertex 15.9202 0.236255 9
      vertex 15.9332 0.178012 9
    endloop
  endfacet
  facet normal 0 0 1
    outer loop
      vertex 24.2 0 9
      vertex 15.9035 0.293566 9
      vertex 15.9202 0.236255 9
    endloop
  endfacet
  facet normal 0 0 1
    outer loop
      vertex 24.2 0 9
      vertex 15.8833 0.349718 9
      vertex 15.9035 0.293566 9
    endloop
  endfacet
  facet normal 0 0 1
    outer loop
      vertex 24.2 0 9
      vertex 15.8596 0.40449 9
      vertex 15.8833 0.349718 9
    endloop
  endfacet
  facet normal 0 0 1
    outer loop
      vertex 24.2 0 9
      vertex 15.8325 0.457665 9
      vertex 15.8596 0.40449 9
    endloop
  endfacet
  facet normal 0 0 1
    outer loop
      vertex 24.2 0 9
      vertex 15.8021 0.509035 9
      vertex 15.8325 0.457665 9
    endloop
  endfacet
  facet normal 0 0 1
    outer loop
      vertex 24.2 0 9
      vertex 15.7686 0.558395 9
      vertex 15.8021 0.509035 9
    endloop
  endfacet
  facet normal 0 0 1
    outer loop
      vertex 24.2 0 9
      vertex 15.732 0.605553 9
      vertex 15.7686 0.558395 9
    endloop
  endfacet
  facet normal 0 0 1
    outer loop
      vertex 24.2 0 9
      vertex 15.6925 0.650319 9
      vertex 15.732 0.605553 9
    endloop
  endfacet
  facet normal 0 0 1
    outer loop
      vertex 24.2 0 9
      vertex 15.6503 0.69252 9
      vertex 15.6925 0.650319 9
    endloop
  endfacet
  facet normal 0 0 1
    outer loop
      vertex 24.2 0 9
      vertex 15.6056 0.731987 9
      vertex 15.6503 0.69252 9
    endloop
  endfacet
  facet normal 0 0 1
    outer loop
      vertex 24.2 0 9
      vertex 15.5584 0.768566 9
      vertex 15.6056 0.731987 9
    endloop
  endfacet
  facet normal 0 0 1
    outer loop
      vertex 24.2 0 9
      vertex 15.509 0.802111 9
      vertex 15.5584 0.768566 9
    endloop
  endfacet
  facet normal 0 0 1
    outer loop
      vertex 24.2 0 9
      vertex 15.4577 0.832491 9
      vertex 15.509 0.802111 9
    endloop
  endfacet
  facet normal 0 0 1
    outer loop
      vertex 24.2 0 9
      vertex 15.4045 0.859585 9
      vertex 15.4577 0.832491 9
    endloop
  endfacet
  facet normal 0 0 1
    outer loop
      vertex 24.2 0 9
      vertex 15.3497 0.883287 9
      vertex 15.4045 0.859585 9
    endloop
  endfacet
  facet normal 0 0 1
    outer loop
      vertex 24.2 0 9
      vertex 15.2936 0.903503 9
      vertex 15.3497 0.883287 9
    endloop
  endfacet
  facet normal 0 0 1
    outer loop
      vertex 24.2 51.3 9
      vertex 15.2363 0.920154 9
      vertex 15.2936 0.903503 9
    endloop
  endfacet
  facet normal 0 0 1
    outer loop
      vertex 24.2 51.3 9
      vertex 15.178 0.933172 9
      vertex 15.2363 0.920154 9
    endloop
  endfacet
  facet normal 0 0 1
    outer loop
      vertex 24.2 51.3 9
      vertex 15.1191 0.942509 9
      vertex 15.178 0.933172 9
    endloop
  endfacet
  facet normal 0 0 1
    outer loop
      vertex 24.2 51.3 9
      vertex 15.0597 0.948125 9
      vertex 15.1191 0.942509 9
    endloop
  endfacet
  facet normal 0 0 1
    outer loop
      vertex 24.2 51.3 9
      vertex 15 0.95 9
      vertex 15.0597 0.948125 9
    endloop
  endfacet
  facet normal 0 0 1
    outer loop
      vertex 24.2 51.3 9
      vertex 14.9403 0.948125 9
      vertex 15 0.95 9
    endloop
  endfacet
  facet normal 0 0 1
    outer loop
      vertex 24.2 51.3 9
      vertex 14.8809 0.942509 9
      vertex 14.9403 0.948125 9
    endloop
  endfacet
  facet normal -0 0 1
    outer loop
      vertex 0 51.3 9
      vertex 14.8809 0.942509 9
      vertex 24.2 51.3 9
    endloop
  endfacet
  facet normal 0 0 1
    outer loop
      vertex 14.8809 0.942509 9
      vertex 0 51.3 9
      vertex 14.822 0.933172 9
    endloop
  endfacet
  facet normal 0 0 1
    outer loop
      vertex 14.822 0.933172 9
      vertex 0 51.3 9
      vertex 14.7637 0.920154 9
    endloop
  endfacet
  facet normal 0 0 1
    outer loop
      vertex 14.7637 0.920154 9
      vertex 0 51.3 9
      vertex 14.7064 0.903503 9
    endloop
  endfacet
  facet normal 0 -0 1
    outer loop
      vertex 0.293566 0.903503 9
      vertex 14.7064 0.903503 9
      vertex 0 51.3 9
    endloop
  endfacet
  facet normal 0 0 1
    outer loop
      vertex 14.7064 0.903503 9
      vertex 0.293566 0.903503 9
      vertex 14.6503 0.883287 9
    endloop
  endfacet
  facet normal 0 -0 1
    outer loop
      vertex 0.349718 0.883287 9
      vertex 14.6503 0.883287 9
      vertex 0.293566 0.903503 9
    endloop
  endfacet
  facet normal 0 0 1
    outer loop
      vertex 14.6503 0.883287 9
      vertex 0.349718 0.883287 9
      vertex 14.5955 0.859585 9
    endloop
  endfacet
  facet normal 0 -0 1
    outer loop
      vertex 0.40449 0.859585 9
      vertex 14.5955 0.859585 9
      vertex 0.349718 0.883287 9
    endloop
  endfacet
  facet normal 0 0 1
    outer loop
      vertex 14.5955 0.859585 9
      vertex 0.40449 0.859585 9
      vertex 14.5423 0.832491 9
    endloop
  endfacet
  facet normal 0 -0 1
    outer loop
      vertex 0.457665 0.832491 9
      vertex 14.5423 0.832491 9
      vertex 0.40449 0.859585 9
    endloop
  endfacet
  facet normal 0 0 1
    outer loop
      vertex 14.5423 0.832491 9
      vertex 0.457665 0.832491 9
      vertex 14.491 0.802111 9
    endloop
  endfacet
  facet normal 0 -0 1
    outer loop
      vertex 0.509035 0.802111 9
      vertex 14.491 0.802111 9
      vertex 0.457665 0.832491 9
    endloop
  endfacet
  facet normal 0 0 1
    outer loop
      vertex 14.491 0.802111 9
      vertex 0.509035 0.802111 9
      vertex 14.4416 0.768566 9
    endloop
  endfacet
  facet normal 0 -0 1
    outer loop
      vertex 0.558395 0.768566 9
      vertex 14.4416 0.768566 9
      vertex 0.509035 0.802111 9
    endloop
  endfacet
  facet normal 0 0 1
    outer loop
      vertex 14.4416 0.768566 9
      vertex 0.558395 0.768566 9
      vertex 14.3944 0.731987 9
    endloop
  endfacet
  facet normal 0 -0 1
    outer loop
      vertex 0.605553 0.731987 9
      vertex 14.3944 0.731987 9
      vertex 0.558395 0.768566 9
    endloop
  endfacet
  facet normal 0 0 1
    outer loop
      vertex 14.3944 0.731987 9
      vertex 0.605553 0.731987 9
      vertex 14.3497 0.69252 9
    endloop
  endfacet
  facet normal 0 -0 1
    outer loop
      vertex 0.650319 0.69252 9
      vertex 14.3497 0.69252 9
      vertex 0.605553 0.731987 9
    endloop
  endfacet
  facet normal 0 0 1
    outer loop
      vertex 14.3497 0.69252 9
      vertex 0.650319 0.69252 9
      vertex 14.3075 0.650319 9
    endloop
  endfacet
  facet normal 0 0 1
    outer loop
      vertex 14.0519 0.0596504 9
      vertex 0.95 0 9
      vertex 14.05 0 9
    endloop
  endfacet
  facet normal 0 0 1
    outer loop
      vertex 0.948125 0.0596504 9
      vertex 14.0519 0.0596504 9
      vertex 14.0575 0.119066 9
    endloop
  endfacet
  facet normal 0 0 1
    outer loop
      vertex 0.942509 0.119066 9
      vertex 14.0575 0.119066 9
      vertex 14.0668 0.178012 9
    endloop
  endfacet
  facet normal 0 -0 1
    outer loop
      vertex 0.69252 0.650319 9
      vertex 14.3075 0.650319 9
      vertex 0.650319 0.69252 9
    endloop
  endfacet
  facet normal 0 0 1
    outer loop
      vertex 14.0519 0.0596504 9
      vertex 0.948125 0.0596504 9
      vertex 0.95 0 9
    endloop
  endfacet
  facet normal 0 0 1
    outer loop
      vertex 14.0575 0.119066 9
      vertex 0.942509 0.119066 9
      vertex 0.948125 0.0596504 9
    endloop
  endfacet
  facet normal 0 0 1
    outer loop
      vertex 14.0668 0.178012 9
      vertex 0.933172 0.178012 9
      vertex 0.942509 0.119066 9
    endloop
  endfacet
  facet normal 0 0 1
    outer loop
      vertex 14.0668 0.178012 9
      vertex 0.920154 0.236255 9
      vertex 0.933172 0.178012 9
    endloop
  endfacet
  facet normal 0 0 1
    outer loop
      vertex 14.0798 0.236255 9
      vertex 0.920154 0.236255 9
      vertex 14.0668 0.178012 9
    endloop
  endfacet
  facet normal 0 -0 1
    outer loop
      vertex 0.920154 0.236255 9
      vertex 14.0798 0.236255 9
      vertex 0.903503 0.293566 9
    endloop
  endfacet
  facet normal 0 0 1
    outer loop
      vertex 14.0965 0.293566 9
      vertex 0.903503 0.293566 9
      vertex 14.0798 0.236255 9
    endloop
  endfacet
  facet normal 0 -0 1
    outer loop
      vertex 0.903503 0.293566 9
      vertex 14.0965 0.293566 9
      vertex 0.883287 0.349718 9
    endloop
  endfacet
  facet normal 0 0 1
    outer loop
      vertex 14.1167 0.349718 9
      vertex 0.883287 0.349718 9
      vertex 14.0965 0.293566 9
    endloop
  endfacet
  facet normal 0 -0 1
    outer loop
      vertex 0.883287 0.349718 9
      vertex 14.1167 0.349718 9
      vertex 0.859585 0.40449 9
    endloop
  endfacet
  facet normal 0 0 1
    outer loop
      vertex 14.1404 0.40449 9
      vertex 0.859585 0.40449 9
      vertex 14.1167 0.349718 9
    endloop
  endfacet
  facet normal 0 -0 1
    outer loop
      vertex 0.859585 0.40449 9
      vertex 14.1404 0.40449 9
      vertex 0.832491 0.457665 9
    endloop
  endfacet
  facet normal 0 0 1
    outer loop
      vertex 14.1675 0.457665 9
      vertex 0.832491 0.457665 9
      vertex 14.1404 0.40449 9
    endloop
  endfacet
  facet normal 0 -0 1
    outer loop
      vertex 0.832491 0.457665 9
      vertex 14.1675 0.457665 9
      vertex 0.802111 0.509035 9
    endloop
  endfacet
  facet normal 0 0 1
    outer loop
      vertex 14.1979 0.509035 9
      vertex 0.802111 0.509035 9
      vertex 14.1675 0.457665 9
    endloop
  endfacet
  facet normal 0 -0 1
    outer loop
      vertex 0.802111 0.509035 9
      vertex 14.1979 0.509035 9
      vertex 0.768566 0.558395 9
    endloop
  endfacet
  facet normal 0 0 1
    outer loop
      vertex 14.2314 0.558395 9
      vertex 0.768566 0.558395 9
      vertex 14.1979 0.509035 9
    endloop
  endfacet
  facet normal 0 -0 1
    outer loop
      vertex 0.768566 0.558395 9
      vertex 14.2314 0.558395 9
      vertex 0.731987 0.605553 9
    endloop
  endfacet
  facet normal 0 0 1
    outer loop
      vertex 14.3075 0.650319 9
      vertex 0.69252 0.650319 9
      vertex 14.268 0.605553 9
    endloop
  endfacet
  facet normal 0 0 1
    outer loop
      vertex 14.268 0.605553 9
      vertex 0.731987 0.605553 9
      vertex 14.2314 0.558395 9
    endloop
  endfacet
  facet normal 0 -0 1
    outer loop
      vertex 0.731987 0.605553 9
      vertex 14.268 0.605553 9
      vertex 0.69252 0.650319 9
    endloop
  endfacet
  facet normal 0 0 1
    outer loop
      vertex 0.293566 0.903503 9
      vertex 0 51.3 9
      vertex 0.236255 0.920154 9
    endloop
  endfacet
  facet normal 0 0 1
    outer loop
      vertex 0.236255 0.920154 9
      vertex 0 51.3 9
      vertex 0.178012 0.933172 9
    endloop
  endfacet
  facet normal 0 0 1
    outer loop
      vertex 0.178012 0.933172 9
      vertex 0 51.3 9
      vertex 0.119066 0.942509 9
    endloop
  endfacet
  facet normal 0 0 1
    outer loop
      vertex 0.119066 0.942509 9
      vertex 0 51.3 9
      vertex 0.0596504 0.948125 9
    endloop
  endfacet
  facet normal 0 0 1
    outer loop
      vertex 0.0596504 0.948125 9
      vertex 0 51.3 9
      vertex 0 0.95 9
    endloop
  endfacet
  facet normal 0 0 -1
    outer loop
      vertex 15.9481 0.0596504 0
      vertex 24.2 0 0
      vertex 15.95 0 0
    endloop
  endfacet
  facet normal 0 0 -1
    outer loop
      vertex 15.9425 0.119066 0
      vertex 24.2 0 0
      vertex 15.9481 0.0596504 0
    endloop
  endfacet
  facet normal 0 0 -1
    outer loop
      vertex 15.9332 0.178012 0
      vertex 24.2 0 0
      vertex 15.9425 0.119066 0
    endloop
  endfacet
  facet normal 0 0 -1
    outer loop
      vertex 15.9202 0.236255 0
      vertex 24.2 0 0
      vertex 15.9332 0.178012 0
    endloop
  endfacet
  facet normal 0 0 -1
    outer loop
      vertex 15.9035 0.293566 0
      vertex 24.2 0 0
      vertex 15.9202 0.236255 0
    endloop
  endfacet
  facet normal 0 0 -1
    outer loop
      vertex 15.8833 0.349718 0
      vertex 24.2 0 0
      vertex 15.9035 0.293566 0
    endloop
  endfacet
  facet normal 0 0 -1
    outer loop
      vertex 15.8596 0.40449 0
      vertex 24.2 0 0
      vertex 15.8833 0.349718 0
    endloop
  endfacet
  facet normal 0 0 -1
    outer loop
      vertex 15.8325 0.457665 0
      vertex 24.2 0 0
      vertex 15.8596 0.40449 0
    endloop
  endfacet
  facet normal 0 0 -1
    outer loop
      vertex 15.8021 0.509035 0
      vertex 24.2 0 0
      vertex 15.8325 0.457665 0
    endloop
  endfacet
  facet normal 0 0 -1
    outer loop
      vertex 15.7686 0.558395 0
      vertex 24.2 0 0
      vertex 15.8021 0.509035 0
    endloop
  endfacet
  facet normal 0 0 -1
    outer loop
      vertex 15.732 0.605553 0
      vertex 24.2 0 0
      vertex 15.7686 0.558395 0
    endloop
  endfacet
  facet normal 0 0 -1
    outer loop
      vertex 15.6925 0.650319 0
      vertex 24.2 0 0
      vertex 15.732 0.605553 0
    endloop
  endfacet
  facet normal 0 0 -1
    outer loop
      vertex 15.6503 0.69252 0
      vertex 24.2 0 0
      vertex 15.6925 0.650319 0
    endloop
  endfacet
  facet normal 0 0 -1
    outer loop
      vertex 15.6056 0.731987 0
      vertex 24.2 0 0
      vertex 15.6503 0.69252 0
    endloop
  endfacet
  facet normal 0 0 -1
    outer loop
      vertex 15.5584 0.768566 0
      vertex 24.2 0 0
      vertex 15.6056 0.731987 0
    endloop
  endfacet
  facet normal 0 0 -1
    outer loop
      vertex 15.509 0.802111 0
      vertex 24.2 0 0
      vertex 15.5584 0.768566 0
    endloop
  endfacet
  facet normal 0 0 -1
    outer loop
      vertex 15.4577 0.832491 0
      vertex 24.2 0 0
      vertex 15.509 0.802111 0
    endloop
  endfacet
  facet normal 0 0 -1
    outer loop
      vertex 15.4045 0.859585 0
      vertex 24.2 0 0
      vertex 15.4577 0.832491 0
    endloop
  endfacet
  facet normal 0 0 -1
    outer loop
      vertex 15.3497 0.883287 0
      vertex 24.2 0 0
      vertex 15.4045 0.859585 0
    endloop
  endfacet
  facet normal 0 0 -1
    outer loop
      vertex 15.2936 0.903503 0
      vertex 24.2 0 0
      vertex 15.3497 0.883287 0
    endloop
  endfacet
  facet normal 0 0 -1
    outer loop
      vertex 24.2 0 0
      vertex 15.2936 0.903503 0
      vertex 24.2 51.3 0
    endloop
  endfacet
  facet normal 0 0 -1
    outer loop
      vertex 15.2363 0.920154 0
      vertex 24.2 51.3 0
      vertex 15.2936 0.903503 0
    endloop
  endfacet
  facet normal 0 0 -1
    outer loop
      vertex 15.178 0.933172 0
      vertex 24.2 51.3 0
      vertex 15.2363 0.920154 0
    endloop
  endfacet
  facet normal 0 0 -1
    outer loop
      vertex 15.1191 0.942509 0
      vertex 24.2 51.3 0
      vertex 15.178 0.933172 0
    endloop
  endfacet
  facet normal 0 0 -1
    outer loop
      vertex 15.0597 0.948125 0
      vertex 24.2 51.3 0
      vertex 15.1191 0.942509 0
    endloop
  endfacet
  facet normal 0 0 -1
    outer loop
      vertex 15 0.95 0
      vertex 24.2 51.3 0
      vertex 15.0597 0.948125 0
    endloop
  endfacet
  facet normal 0 0 -1
    outer loop
      vertex 14.9403 0.948125 0
      vertex 24.2 51.3 0
      vertex 15 0.95 0
    endloop
  endfacet
  facet normal 0 0 -1
    outer loop
      vertex 14.8809 0.942509 0
      vertex 24.2 51.3 0
      vertex 14.9403 0.948125 0
    endloop
  endfacet
  facet normal 0 0 -1
    outer loop
      vertex 0 51.3 0
      vertex 14.8809 0.942509 0
      vertex 14.822 0.933172 0
    endloop
  endfacet
  facet normal 0 0 -1
    outer loop
      vertex 0 51.3 0
      vertex 14.822 0.933172 0
      vertex 14.7637 0.920154 0
    endloop
  endfacet
  facet normal 0 0 -1
    outer loop
      vertex 0 51.3 0
      vertex 14.7637 0.920154 0
      vertex 14.7064 0.903503 0
    endloop
  endfacet
  facet normal 0 0 -1
    outer loop
      vertex 0.293566 0.903503 0
      vertex 14.7064 0.903503 0
      vertex 14.6503 0.883287 0
    endloop
  endfacet
  facet normal 0 0 -1
    outer loop
      vertex 0.349718 0.883287 0
      vertex 14.6503 0.883287 0
      vertex 14.5955 0.859585 0
    endloop
  endfacet
  facet normal 0 0 -1
    outer loop
      vertex 0.40449 0.859585 0
      vertex 14.5955 0.859585 0
      vertex 14.5423 0.832491 0
    endloop
  endfacet
  facet normal 0 0 -1
    outer loop
      vertex 0.457665 0.832491 0
      vertex 14.5423 0.832491 0
      vertex 14.491 0.802111 0
    endloop
  endfacet
  facet normal 0 0 -1
    outer loop
      vertex 0.509035 0.802111 0
      vertex 14.491 0.802111 0
      vertex 14.4416 0.768566 0
    endloop
  endfacet
  facet normal 0 0 -1
    outer loop
      vertex 0.558395 0.768566 0
      vertex 14.4416 0.768566 0
      vertex 14.3944 0.731987 0
    endloop
  endfacet
  facet normal 0 0 -1
    outer loop
      vertex 0.605553 0.731987 0
      vertex 14.3944 0.731987 0
      vertex 14.3497 0.69252 0
    endloop
  endfacet
  facet normal 0 0 -1
    outer loop
      vertex 0.650319 0.69252 0
      vertex 14.3497 0.69252 0
      vertex 14.3075 0.650319 0
    endloop
  endfacet
  facet normal 0 0 -1
    outer loop
      vertex 0.69252 0.650319 0
      vertex 14.3075 0.650319 0
      vertex 14.268 0.605553 0
    endloop
  endfacet
  facet normal 0 0 -1
    outer loop
      vertex 0.731987 0.605553 0
      vertex 14.268 0.605553 0
      vertex 14.2314 0.558395 0
    endloop
  endfacet
  facet normal 0 0 -1
    outer loop
      vertex 0.768566 0.558395 0
      vertex 14.2314 0.558395 0
      vertex 14.1979 0.509035 0
    endloop
  endfacet
  facet normal 0 0 -1
    outer loop
      vertex 0.802111 0.509035 0
      vertex 14.1979 0.509035 0
      vertex 14.1675 0.457665 0
    endloop
  endfacet
  facet normal 0 0 -1
    outer loop
      vertex 0.832491 0.457665 0
      vertex 14.1675 0.457665 0
      vertex 14.1404 0.40449 0
    endloop
  endfacet
  facet normal 0 0 -1
    outer loop
      vertex 0.859585 0.40449 0
      vertex 14.1404 0.40449 0
      vertex 14.1167 0.349718 0
    endloop
  endfacet
  facet normal 0 0 -1
    outer loop
      vertex 0.883287 0.349718 0
      vertex 14.1167 0.349718 0
      vertex 14.0965 0.293566 0
    endloop
  endfacet
  facet normal 0 0 -1
    outer loop
      vertex 0.903503 0.293566 0
      vertex 14.0965 0.293566 0
      vertex 14.0798 0.236255 0
    endloop
  endfacet
  facet normal 0 0 -1
    outer loop
      vertex 0.920154 0.236255 0
      vertex 14.0798 0.236255 0
      vertex 14.0668 0.178012 0
    endloop
  endfacet
  facet normal 0 0 -1
    outer loop
      vertex 0.95 0 0
      vertex 14.0519 0.0596504 0
      vertex 14.05 0 0
    endloop
  endfacet
  facet normal 0 0 -1
    outer loop
      vertex 0.948125 0.0596504 0
      vertex 14.0519 0.0596504 0
      vertex 0.95 0 0
    endloop
  endfacet
  facet normal 0 0 -1
    outer loop
      vertex 14.0519 0.0596504 0
      vertex 0.948125 0.0596504 0
      vertex 14.0575 0.119066 0
    endloop
  endfacet
  facet normal 0 0 -1
    outer loop
      vertex 0.942509 0.119066 0
      vertex 14.0575 0.119066 0
      vertex 0.948125 0.0596504 0
    endloop
  endfacet
  facet normal 0 0 -1
    outer loop
      vertex 14.0575 0.119066 0
      vertex 0.942509 0.119066 0
      vertex 14.0668 0.178012 0
    endloop
  endfacet
  facet normal 0 0 -1
    outer loop
      vertex 0.933172 0.178012 0
      vertex 14.0668 0.178012 0
      vertex 0.942509 0.119066 0
    endloop
  endfacet
  facet normal 0 0 -1
    outer loop
      vertex 0.920154 0.236255 0
      vertex 14.0668 0.178012 0
      vertex 0.933172 0.178012 0
    endloop
  endfacet
  facet normal 0 0 -1
    outer loop
      vertex 14.0798 0.236255 0
      vertex 0.920154 0.236255 0
      vertex 0.903503 0.293566 0
    endloop
  endfacet
  facet normal 0 0 -1
    outer loop
      vertex 14.0965 0.293566 0
      vertex 0.903503 0.293566 0
      vertex 0.883287 0.349718 0
    endloop
  endfacet
  facet normal 0 0 -1
    outer loop
      vertex 14.1167 0.349718 0
      vertex 0.883287 0.349718 0
      vertex 0.859585 0.40449 0
    endloop
  endfacet
  facet normal 0 0 -1
    outer loop
      vertex 14.1404 0.40449 0
      vertex 0.859585 0.40449 0
      vertex 0.832491 0.457665 0
    endloop
  endfacet
  facet normal 0 0 -1
    outer loop
      vertex 14.1675 0.457665 0
      vertex 0.832491 0.457665 0
      vertex 0.802111 0.509035 0
    endloop
  endfacet
  facet normal 0 0 -1
    outer loop
      vertex 14.1979 0.509035 0
      vertex 0.802111 0.509035 0
      vertex 0.768566 0.558395 0
    endloop
  endfacet
  facet normal 0 0 -1
    outer loop
      vertex 14.2314 0.558395 0
      vertex 0.768566 0.558395 0
      vertex 0.731987 0.605553 0
    endloop
  endfacet
  facet normal 0 0 -1
    outer loop
      vertex 14.268 0.605553 0
      vertex 0.731987 0.605553 0
      vertex 0.69252 0.650319 0
    endloop
  endfacet
  facet normal 0 0 -1
    outer loop
      vertex 14.3075 0.650319 0
      vertex 0.69252 0.650319 0
      vertex 0.650319 0.69252 0
    endloop
  endfacet
  facet normal 0 0 -1
    outer loop
      vertex 14.3497 0.69252 0
      vertex 0.650319 0.69252 0
      vertex 0.605553 0.731987 0
    endloop
  endfacet
  facet normal 0 0 -1
    outer loop
      vertex 14.3944 0.731987 0
      vertex 0.605553 0.731987 0
      vertex 0.558395 0.768566 0
    endloop
  endfacet
  facet normal 0 0 -1
    outer loop
      vertex 14.4416 0.768566 0
      vertex 0.558395 0.768566 0
      vertex 0.509035 0.802111 0
    endloop
  endfacet
  facet normal 0 0 -1
    outer loop
      vertex 14.491 0.802111 0
      vertex 0.509035 0.802111 0
      vertex 0.457665 0.832491 0
    endloop
  endfacet
  facet normal 0 0 -1
    outer loop
      vertex 14.5423 0.832491 0
      vertex 0.457665 0.832491 0
      vertex 0.40449 0.859585 0
    endloop
  endfacet
  facet normal 0 0 -1
    outer loop
      vertex 14.5955 0.859585 0
      vertex 0.40449 0.859585 0
      vertex 0.349718 0.883287 0
    endloop
  endfacet
  facet normal 0 0 -1
    outer loop
      vertex 14.6503 0.883287 0
      vertex 0.349718 0.883287 0
      vertex 0.293566 0.903503 0
    endloop
  endfacet
  facet normal 0 0 -1
    outer loop
      vertex 14.7064 0.903503 0
      vertex 0.293566 0.903503 0
      vertex 0 51.3 0
    endloop
  endfacet
  facet normal 0 0 -1
    outer loop
      vertex 0 51.3 0
      vertex 0.293566 0.903503 0
      vertex 0.236255 0.920154 0
    endloop
  endfacet
  facet normal 0 0 -1
    outer loop
      vertex 0 51.3 0
      vertex 0.236255 0.920154 0
      vertex 0.178012 0.933172 0
    endloop
  endfacet
  facet normal 0 0 -1
    outer loop
      vertex 0 51.3 0
      vertex 0.178012 0.933172 0
      vertex 0.119066 0.942509 0
    endloop
  endfacet
  facet normal 0 0 -1
    outer loop
      vertex 0 51.3 0
      vertex 0.119066 0.942509 0
      vertex 0.0596504 0.948125 0
    endloop
  endfacet
  facet normal 0 0 -1
    outer loop
      vertex 0 51.3 0
      vertex 0.0596504 0.948125 0
      vertex 0 0.95 0
    endloop
  endfacet
  facet normal 0 0 -1
    outer loop
      vertex 14.8809 0.942509 0
      vertex 0 51.3 0
      vertex 24.2 51.3 0
    endloop
  endfacet
  facet normal -1 0 0
    outer loop
      vertex 0 0.95 0
      vertex 0 51.3 9
      vertex 0 51.3 0
    endloop
  endfacet
  facet normal -1 -0 0
    outer loop
      vertex 0 51.3 9
      vertex 0 0.95 0
      vertex 0 0.95 9
    endloop
  endfacet
  facet normal 0 1 -0
    outer loop
      vertex 24.2 51.3 0
      vertex 0 51.3 9
      vertex 24.2 51.3 9
    endloop
  endfacet
  facet normal 0 1 0
    outer loop
      vertex 0 51.3 9
      vertex 24.2 51.3 0
      vertex 0 51.3 0
    endloop
  endfacet
  facet normal 0 -1 0
    outer loop
      vertex 15.95 0 0
      vertex 24.2 0 9
      vertex 15.95 0 9
    endloop
  endfacet
  facet normal 0 -1 -0
    outer loop
      vertex 24.2 0 9
      vertex 15.95 0 0
      vertex 24.2 0 0
    endloop
  endfacet
  facet normal 0 -1 0
    outer loop
      vertex 0.95 0 0
      vertex 14.05 0 9
      vertex 0.95 0 9
    endloop
  endfacet
  facet normal 0 -1 -0
    outer loop
      vertex 14.05 0 9
      vertex 0.95 0 0
      vertex 14.05 0 0
    endloop
  endfacet
endsolid OpenSCAD_Model
