solid OpenSCAD_Model
  facet normal 1 -0 0
    outer loop
      vertex 2 -2 0.5
      vertex 2 2 -0.5
      vertex 2 2 0.5
    endloop
  endfacet
  facet normal 1 0 0
    outer loop
      vertex 2 2 -0.5
      vertex 2 -2 0.5
      vertex 2 -2 -0.5
    endloop
  endfacet
  facet normal 0 0 1
    outer loop
      vertex 1 0.5 0.5
      vertex 2 2 0.5
      vertex 1 1.5 0.5
    endloop
  endfacet
  facet normal 0 -0 1
    outer loop
      vertex 1 1.5 0.5
      vertex 2 2 0.5
      vertex 0 2 0.5
    endloop
  endfacet
  facet normal 0 0 1
    outer loop
      vertex 2 2 0.5
      vertex 1 0.5 0.5
      vertex 2 -2 0.5
    endloop
  endfacet
  facet normal -0 0 1
    outer loop
      vertex 0 0 0.5
      vertex 2 -2 0.5
      vertex 1 0.5 0.5
    endloop
  endfacet
  facet normal 0 0 1
    outer loop
      vertex -2 -2 0.5
      vertex 0 0 0.5
      vertex -1 0.5 0.5
    endloop
  endfacet
  facet normal 0 0 1
    outer loop
      vertex 0 0 0.5
      vertex -2 -2 0.5
      vertex 2 -2 0.5
    endloop
  endfacet
  facet normal 0 0 1
    outer loop
      vertex -2 -2 0.5
      vertex -1 0.5 0.5
      vertex -2 2 0.5
    endloop
  endfacet
  facet normal 0 0 1
    outer loop
      vertex -1 1.5 0.5
      vertex -2 2 0.5
      vertex -1 0.5 0.5
    endloop
  endfacet
  facet normal -0 0 1
    outer loop
      vertex -2 2 0.5
      vertex -1 1.5 0.5
      vertex 0 2 0.5
    endloop
  endfacet
  facet normal 0 0 -1
    outer loop
      vertex -2 -2 -0.5
      vertex 2 2 -0.5
      vertex 2 -2 -0.5
    endloop
  endfacet
  facet normal -0 0 -1
    outer loop
      vertex 2 2 -0.5
      vertex -2 -2 -0.5
      vertex -2 2 -0.5
    endloop
  endfacet
  facet normal -1 0 0
    outer loop
      vertex -2 -2 -0.5
      vertex -2 2 0.5
      vertex -2 2 -0.5
    endloop
  endfacet
  facet normal -1 -0 0
    outer loop
      vertex -2 2 0.5
      vertex -2 -2 -0.5
      vertex -2 -2 0.5
    endloop
  endfacet
  facet normal 0 1 -0
    outer loop
      vertex 2 2 -0.5
      vertex 0 2 0.5
      vertex 2 2 0.5
    endloop
  endfacet
  facet normal 0 1 0
    outer loop
      vertex -2 2 -0.5
      vertex 0 2 0.5
      vertex 2 2 -0.5
    endloop
  endfacet
  facet normal 0 1 0
    outer loop
      vertex 0 2 0.5
      vertex -2 2 -0.5
      vertex -2 2 0.5
    endloop
  endfacet
  facet normal 0 -1 0
    outer loop
      vertex -2 -2 -0.5
      vertex 2 -2 0.5
      vertex -2 -2 0.5
    endloop
  endfacet
  facet normal 0 -1 -0
    outer loop
      vertex 2 -2 0.5
      vertex -2 -2 -0.5
      vertex 2 -2 -0.5
    endloop
  endfacet
  facet normal 0.447214 0.894427 -0
    outer loop
      vertex 1 1.5 0.5
      vertex 0 2 0.7
      vertex 1 1.5 0.7
    endloop
  endfacet
  facet normal 0.447214 0.894427 0
    outer loop
      vertex 0 2 0.7
      vertex 1 1.5 0.5
      vertex 0 2 0.5
    endloop
  endfacet
  facet normal 0 0 1
    outer loop
      vertex 0 2 0.7
      vertex 1 0.5 0.7
      vertex 1 1.5 0.7
    endloop
  endfacet
  facet normal 0 0 1
    outer loop
      vertex 0 2 0.7
      vertex 0 0 0.7
      vertex 1 0.5 0.7
    endloop
  endfacet
  facet normal -0 0 1
    outer loop
      vertex -1 1.5 0.7
      vertex 0 0 0.7
      vertex 0 2 0.7
    endloop
  endfacet
  facet normal 0 0 1
    outer loop
      vertex 0 0 0.7
      vertex -1 1.5 0.7
      vertex -1 0.5 0.7
    endloop
  endfacet
  facet normal 1 -0 0
    outer loop
      vertex 1 0.5 0.7
      vertex 1 1.5 0.5
      vertex 1 1.5 0.7
    endloop
  endfacet
  facet normal 1 0 0
    outer loop
      vertex 1 1.5 0.5
      vertex 1 0.5 0.7
      vertex 1 0.5 0.5
    endloop
  endfacet
  facet normal -1 0 0
    outer loop
      vertex -1 0.5 0.5
      vertex -1 1.5 0.7
      vertex -1 1.5 0.5
    endloop
  endfacet
  facet normal -1 -0 0
    outer loop
      vertex -1 1.5 0.7
      vertex -1 0.5 0.5
      vertex -1 0.5 0.7
    endloop
  endfacet
  facet normal -0.447214 -0.894427 0
    outer loop
      vertex -1 0.5 0.5
      vertex 0 0 0.7
      vertex -1 0.5 0.7
    endloop
  endfacet
  facet normal -0.447214 -0.894427 -0
    outer loop
      vertex 0 0 0.7
      vertex -1 0.5 0.5
      vertex 0 0 0.5
    endloop
  endfacet
  facet normal 0.447214 -0.894427 0
    outer loop
      vertex 0 0 0.5
      vertex 1 0.5 0.7
      vertex 0 0 0.7
    endloop
  endfacet
  facet normal 0.447214 -0.894427 0
    outer loop
      vertex 1 0.5 0.7
      vertex 0 0 0.5
      vertex 1 0.5 0.5
    endloop
  endfacet
  facet normal -0.447214 0.894427 0
    outer loop
      vertex 0 2 0.5
      vertex -1 1.5 0.7
      vertex 0 2 0.7
    endloop
  endfacet
  facet normal -0.447214 0.894427 0
    outer loop
      vertex -1 1.5 0.7
      vertex 0 2 0.5
      vertex -1 1.5 0.5
    endloop
  endfacet
endsolid OpenSCAD_Model
