solid OpenSCAD_Model
  facet normal 0 0 -1
    outer loop
      vertex 8 0 0
      vertex 6.8 1 0
      vertex 8 12 0
    endloop
  endfacet
  facet normal 0 0 -1
    outer loop
      vertex 8 0 0
      vertex 1.2 1 0
      vertex 6.8 1 0
    endloop
  endfacet
  facet normal -0 0 -1
    outer loop
      vertex 1.2 1 0
      vertex 0 0 0
      vertex 1.2 11 0
    endloop
  endfacet
  facet normal 0 0 -1
    outer loop
      vertex 0 0 0
      vertex 1.2 1 0
      vertex 8 0 0
    endloop
  endfacet
  facet normal 0 0 -1
    outer loop
      vertex 6.8 11 0
      vertex 8 12 0
      vertex 6.8 1 0
    endloop
  endfacet
  facet normal 0 0 -1
    outer loop
      vertex 1.2 11 0
      vertex 8 12 0
      vertex 6.8 11 0
    endloop
  endfacet
  facet normal 0 0 -1
    outer loop
      vertex 1.2 11 0
      vertex 0 12 0
      vertex 8 12 0
    endloop
  endfacet
  facet normal 0 0 -1
    outer loop
      vertex 0 12 0
      vertex 1.2 11 0
      vertex 0 0 0
    endloop
  endfacet
  facet normal -1 0 0
    outer loop
      vertex 0 0 0
      vertex 0 12 4
      vertex 0 12 0
    endloop
  endfacet
  facet normal -1 -0 0
    outer loop
      vertex 0 12 4
      vertex 0 0 0
      vertex 0 0 4
    endloop
  endfacet
  facet normal 0 0 1
    outer loop
      vertex 8 12 4
      vertex 6.8 11 4
      vertex 8 0 4
    endloop
  endfacet
  facet normal 0 0 1
    outer loop
      vertex 8 12 4
      vertex 1.2 11 4
      vertex 6.8 11 4
    endloop
  endfacet
  facet normal 0 0 1
    outer loop
      vertex 1.2 11 4
      vertex 0 12 4
      vertex 1.2 1 4
    endloop
  endfacet
  facet normal -0 0 1
    outer loop
      vertex 0 12 4
      vertex 1.2 11 4
      vertex 8 12 4
    endloop
  endfacet
  facet normal -0 0 1
    outer loop
      vertex 6.8 1 4
      vertex 8 0 4
      vertex 6.8 11 4
    endloop
  endfacet
  facet normal -0 0 1
    outer loop
      vertex 1.2 1 4
      vertex 8 0 4
      vertex 6.8 1 4
    endloop
  endfacet
  facet normal 0 0 1
    outer loop
      vertex 1.2 1 4
      vertex 0 0 4
      vertex 8 0 4
    endloop
  endfacet
  facet normal 0 0 1
    outer loop
      vertex 0 0 4
      vertex 1.2 1 4
      vertex 0 12 4
    endloop
  endfacet
  facet normal 0 1 -0
    outer loop
      vertex 8 12 0
      vertex 0 12 4
      vertex 8 12 4
    endloop
  endfacet
  facet normal 0 1 0
    outer loop
      vertex 0 12 4
      vertex 8 12 0
      vertex 0 12 0
    endloop
  endfacet
  facet normal 1 -0 0
    outer loop
      vertex 8 0 4
      vertex 8 12 0
      vertex 8 12 4
    endloop
  endfacet
  facet normal 1 0 0
    outer loop
      vertex 8 12 0
      vertex 8 0 4
      vertex 8 0 0
    endloop
  endfacet
  facet normal 0 -1 0
    outer loop
      vertex 0 0 0
      vertex 8 0 4
      vertex 0 0 4
    endloop
  endfacet
  facet normal 0 -1 -0
    outer loop
      vertex 8 0 4
      vertex 0 0 0
      vertex 8 0 0
    endloop
  endfacet
  facet normal 1 -0 0
    outer loop
      vertex 1.2 1 4
      vertex 1.2 11 0
      vertex 1.2 11 4
    endloop
  endfacet
  facet normal 1 0 0
    outer loop
      vertex 1.2 11 0
      vertex 1.2 1 4
      vertex 1.2 1 0
    endloop
  endfacet
  facet normal 0 -1 0
    outer loop
      vertex 1.2 11 0
      vertex 6.8 11 4
      vertex 1.2 11 4
    endloop
  endfacet
  facet normal 0 -1 -0
    outer loop
      vertex 6.8 11 4
      vertex 1.2 11 0
      vertex 6.8 11 0
    endloop
  endfacet
  facet normal -1 0 0
    outer loop
      vertex 6.8 1 0
      vertex 6.8 11 4
      vertex 6.8 11 0
    endloop
  endfacet
  facet normal -1 -0 0
    outer loop
      vertex 6.8 11 4
      vertex 6.8 1 0
      vertex 6.8 1 4
    endloop
  endfacet
  facet normal 0 1 -0
    outer loop
      vertex 6.8 1 0
      vertex 1.2 1 4
      vertex 6.8 1 4
    endloop
  endfacet
  facet normal 0 1 0
    outer loop
      vertex 1.2 1 4
      vertex 6.8 1 0
      vertex 1.2 1 0
    endloop
  endfacet
endsolid OpenSCAD_Model
